<svg width="68" height="67" viewBox="0 0 68 67" fill="none" xmlns="http://www.w3.org/2000/svg">
<path d="M33.642 2.12513C14.9561 1.86341 1.07842 17.7864 2.00956 34.8138C3.10904 54.8667 17.518 64.9429 34.3732 64.8277C52.0807 64.7073 65.5165 52.2181 65.1482 33.3534C64.7852 14.5201 50.8655 2.37115 33.642 2.12513Z" fill="#C8C8C8"/>
<path d="M18.8649 7.96151C5.78685 15.4205 -2.5145 36.5621 11.4158 52.5584C13.1202 54.516 15.8295 55.8822 17.8864 56.8139C31.9324 63.1318 48.9297 53.4168 55.5055 46.0102C60.7241 40.132 62.6443 36.2324 62.0235 28.2081C61.5448 21.9687 58.8618 15.9439 53.3013 11.4895C40.7283 1.39761 27.1715 3.21917 18.8649 7.96151Z" fill="white"/>
<path d="M32.0374 20.8275C31.9901 20.8014 27.1239 18.0219 23.3468 16.6296C19.4118 15.1796 16.5079 14.3997 16.4763 14.3945L17.0182 12.374C17.1392 12.4054 20.0431 13.1801 24.078 14.6719C28.0235 16.1271 32.8844 18.9013 33.0895 19.0217L32.0374 20.8275ZM40.5949 15.3649L43.4583 5.19873L45.4847 5.76352L42.6219 15.9297L40.5949 15.3649ZM61.8654 28.5378C61.8391 28.5273 59.0405 27.4699 55.9156 26.6272C53.5641 25.9939 50.5339 25.35 50.5024 25.3448L50.939 23.2982C51.0653 23.3243 54.0533 23.9577 56.4627 24.6067C59.698 25.4757 62.4967 26.5382 62.6177 26.5801L61.8654 28.5378ZM45.3101 49.0774C45.3101 49.046 45.0471 45.8531 44.4158 42.5868C43.7898 39.3624 42.5956 36.3265 42.5851 36.3003L44.542 35.5309C44.5946 35.6617 45.8204 38.771 46.4832 42.1942C47.1355 45.5809 47.3986 48.7791 47.4091 48.9152L45.3101 49.0774ZM55.7736 51.9878L54.3848 50.4122C54.4058 50.3965 56.4259 48.6168 58.9195 45.2668C61.2236 42.1681 62.2863 39.4567 62.2968 39.4253L64.2591 40.1738C64.2117 40.2942 63.0807 43.1835 60.6081 46.5074C57.9725 50.0563 55.863 51.9092 55.7736 51.9878ZM17.2796 41.2887L29.4544 30.4761L30.8559 32.038L18.6805 42.8506L17.2796 41.2887ZM6.7914 38.3941C6.75984 38.1899 6.06543 33.3482 6.06543 28.9199C6.06543 24.5021 6.57045 20.414 6.59676 20.2413L8.68525 20.503C8.67999 20.5449 8.17496 24.6382 8.17496 28.9199C8.17496 33.1911 8.87463 38.0486 8.87989 38.0957L6.7914 38.3941ZM37.5085 59.4886C37.377 59.4729 34.168 59.0699 28.618 57.4472C25.0828 56.4108 21.0426 54.2857 20.869 54.1967L21.858 52.3489C21.9001 52.3699 25.8824 54.4689 29.2124 55.4424C34.5783 57.0128 37.7347 57.4106 37.7663 57.4158L37.5085 59.4886Z" fill="#171717"/>
<path d="M28.0762 17.1268C27.9131 17.5351 28.1288 32.1128 28.4602 32.5473C28.7916 32.9817 43.5215 37.9596 44.1791 37.7974C44.8367 37.6351 52.6961 25.3291 52.6961 24.8371C52.6961 24.345 43.027 12.4787 42.5325 12.3688C42.038 12.2589 28.2971 16.5772 28.0762 17.1268ZM61.7392 18.917C61.7392 18.917 59.5718 26.0933 59.5718 26.6429C59.5718 27.1873 60.8923 30.1971 61.4973 33.9135C62.1022 37.6299 61.2237 43.2097 61.6077 43.4296C61.9918 43.6494 63.8961 43.5395 63.8961 43.5395C63.8961 43.5395 65.7321 37.7974 64.9588 30.4169C64.1855 23.0312 61.7392 18.917 61.7392 18.917ZM46.1045 47.4757C45.6626 47.5176 34.0681 57.4263 34.1207 57.7037C34.1733 57.9759 38.6606 64.5555 38.6606 64.5555C38.6606 64.5555 44.3001 64.1106 49.4661 61.3259C54.6321 58.5412 56.5943 56.0653 56.5943 56.0653C56.5943 56.0653 57.3097 49.4491 57.0362 49.3967C56.7679 49.3339 46.6569 47.4234 46.1045 47.4757ZM7.41221 35.1174C7.11236 35.3634 5.37633 39.1635 4.88183 41.2992C4.38732 43.4296 4.11377 45.4553 4.11377 45.4553C4.11377 45.4553 5.4342 49.2554 7.41221 52.0715C9.86369 55.5576 13.0517 58.0178 13.0517 58.0178C13.0517 58.0178 23.4573 54.8614 23.5152 54.4217C23.573 53.9821 22.3052 50.1557 21.4267 46.9837C20.5481 43.8117 20.385 40.2575 20.0536 40.0377C19.7222 39.8178 16.3712 38.7814 13.7356 37.7398C11.1 36.6982 7.74364 34.8452 7.41221 35.1174ZM4.15059 21.9215C4.15059 21.9215 7.02819 24.3974 7.47008 24.3974C7.91198 24.3974 10.7001 20.7228 13.5146 18.493C17.3076 15.4832 19.1751 14.4992 19.233 14.1171C19.2856 13.7349 20.9374 4.60096 20.9374 4.60096C20.9374 4.60096 14.835 6.89885 10.3845 11.9814C5.93396 17.064 4.15059 21.9215 4.15059 21.9215ZM35.2728 2.16174C35.2728 2.16174 38.7816 3.95713 40.06 4.84174C41.3383 5.72635 43.2217 7.60026 43.7793 7.65784C44.3317 7.71542 51.9649 7.72065 51.9649 7.72065C51.9649 7.72065 48.5034 5.36518 44.6683 4.01471C40.0547 2.38682 35.2728 2.16174 35.2728 2.16174Z" fill="#474C4F"/>
</svg>
