<svg width="65" height="64" viewBox="0 0 65 64" fill="none" xmlns="http://www.w3.org/2000/svg">
<path d="M41.5076 46.9C26.2312 53.1 29.9498 60.8 21.2061 61.8C3.41713 63.9 12.2613 44.7 11.8593 34.3C11.1558 11.3 16.8845 2.69998 33.4674 1.99998C56.0804 0.999978 62.4121 38.5 41.5076 46.9Z" fill="#FED0AC"/>
<path d="M22.8141 32.9C20.402 30.7 18.6935 27.8 17.6884 24.5C17.1859 22.9 16.9849 21.1 17.1859 19.2C17.3869 17.4 17.9899 15.5 18.8945 13.9C19.8995 12.3 21.3065 10.9 22.7136 9.89999C24.2211 8.89999 25.8291 8.09999 27.4372 7.59999C29.2462 6.99999 31.1558 6.79999 33.0653 7.09999C34.9749 7.39999 36.7839 8.09999 38.1909 9.09999C41.206 11.1 43.2161 14 44.7236 17C46.1306 20 47.0352 23.2 47.3367 26.5C47.6382 29.8 47.3367 33.1 46.2311 36.2C45.7286 37.7 44.9246 39.2 43.9196 40.5C42.9146 41.8 41.7085 42.9 40.3015 43.7L40.201 43.3C42.7135 41.4 44.3216 38.7 45.0251 35.8C45.7286 32.9 45.7286 29.8 45.2261 26.8C44.7236 23.8 43.7186 21 42.211 18.4C40.804 15.8 38.7939 13.6 36.4824 12.2C35.2764 11.5 34.0703 11.2 32.8643 11.1C31.6583 11 30.3517 11.3 29.2462 11.8C26.6331 12.9 24.3216 14.4 22.8141 16.4C21.3065 18.4 20.7035 21 20.9045 23.9C21.1055 26.8 22.01 29.7 23.2161 32.6L22.8141 32.9Z" fill="#E0A372"/>
<path d="M18.9948 20.8999C21.9094 19.5999 25.628 19.7999 28.7436 21.3999C31.8591 22.9999 34.3717 25.9999 34.9747 29.4999C35.2762 31.1999 35.1757 32.9999 34.7737 34.5999C34.3717 36.1999 33.7687 37.6999 33.0652 39.0999C32.3617 40.4999 31.6581 41.9 30.7536 43.2C29.8491 44.5 28.9446 45.7999 27.7385 47C26.633 48.2 25.226 49.2999 23.6179 50C22.0099 50.7 20.1003 51.0999 18.1908 50.7999C17.6883 50.6999 17.1858 50.6 16.7838 50.5C16.5828 50.4 16.2812 50.4 15.9797 50.2C15.5777 50 15.2762 49.9 14.8742 49.5C14.4722 49.1 13.9697 48.4 13.8692 47.7C13.7687 47 13.9697 46.4 14.0702 46C14.3717 45.2 14.7737 44.8 15.0752 44.4C16.2812 42.9 17.4873 41.9999 18.5928 41.0999C19.6983 40.1999 20.8039 39.3 21.7084 38.4C22.1104 38 22.5124 37.4999 22.7134 37.0999C22.9144 36.6999 23.0149 36.3999 23.0149 36.0999C23.0149 35.7999 22.8139 35.3 22.4119 34.9C22.0099 34.4 21.5074 33.9999 21.0049 33.4999C19.8993 32.5999 18.5928 31.9 17.2863 31.0999L17.3868 30.7C18.9948 30.8 20.5024 30.9999 22.1104 31.4999C22.9144 31.7999 23.7184 32.0999 24.422 32.7C25.226 33.2 26.03 33.9999 26.432 35.0999C26.834 36.1999 26.834 37.5999 26.432 38.5999C26.1305 39.5999 25.628 40.4 25.1255 41.2C24.1204 42.7 22.9144 43.7999 21.7084 44.7999C20.6029 45.7999 19.2963 46.7999 18.5928 47.5999C18.3918 47.7999 18.2913 48 18.2913 47.9C18.2913 47.8 18.3918 47.6999 18.2913 47.2999C18.2913 46.9 17.9898 46.6 17.8893 46.5C17.6883 46.4 17.7888 46.4 17.6883 46.4C17.6883 46.4 17.8893 46.5 17.9898 46.5C18.2913 46.6 18.4923 46.6999 18.7938 46.7999C20.9044 47.2999 23.6179 46.6999 26.1305 45.2999C28.5426 43.9 30.6531 41.5 31.5576 38.7999C32.0601 37.4 32.1606 35.9999 32.0601 34.5999C32.0601 34.1999 31.9596 33.9999 31.9596 33.5999C31.8591 33.2999 31.8591 32.8999 31.7586 32.5999C31.5576 31.8999 31.3566 31.3 31.1556 30.7C30.2511 28.2999 28.8441 26.2 26.7335 24.6C25.7285 23.8 24.5225 23.2 23.2159 22.7C21.9094 22.2 20.5024 21.9 18.8943 21.6L18.9948 20.8999Z" fill="#E0A372"/>
</svg>
