<svg width="48" height="48" viewBox="0 0 48 48" fill="none" xmlns="http://www.w3.org/2000/svg">
<path d="M26.8295 35.8339L14.4056 23.7447C14.2581 23.6008 14.1534 23.4449 14.0915 23.277C14.0295 23.1091 13.999 22.9292 14 22.7373C14 22.5454 14.031 22.3655 14.0929 22.1976C14.1549 22.0297 14.2591 21.8737 14.4056 21.7298L26.8295 9.60465C27.1736 9.26885 27.6037 9.10095 28.1198 9.10095C28.6359 9.10095 29.0783 9.28085 29.447 9.64055C29.8157 10.0004 30 10.4202 30 10.8999C30 11.3797 29.8157 11.7994 29.447 12.1592L18.6083 22.7373L29.447 33.3153C29.7911 33.6511 29.9631 34.0651 29.9631 34.5573C29.9631 35.0495 29.7788 35.475 29.4101 35.8339C29.0415 36.1937 28.6114 36.3736 28.1198 36.3736C27.6283 36.3736 27.1982 36.1937 26.8295 35.8339Z" fill="black"/>
</svg>
