<svg width="93" height="93" viewBox="0 0 93 93" fill="none" xmlns="http://www.w3.org/2000/svg">
<path d="M42.749 70.7866L66.7047 47.5539C66.9891 47.2773 67.191 46.9777 67.3104 46.655C67.4298 46.3323 67.4886 45.9866 67.4867 45.6178C67.4867 45.2491 67.427 44.9033 67.3075 44.5807C67.1881 44.258 66.9872 43.9584 66.7047 43.6818L42.749 20.3799C42.0855 19.7345 41.2562 19.4118 40.261 19.4118C39.2658 19.4118 38.4128 19.7576 37.7019 20.449C36.9911 21.1405 36.6357 21.9472 36.6357 22.8691C36.6357 23.791 36.9911 24.5977 37.7019 25.2892L58.601 45.6178L37.7019 65.9465C37.0385 66.5918 36.7067 67.3875 36.7067 68.3334C36.7067 69.2793 37.0622 70.097 37.773 70.7866C38.4839 71.4781 39.3132 71.8238 40.261 71.8238C41.2088 71.8238 42.0381 71.4781 42.749 70.7866Z" fill="currentColor"/>
</svg>
