<svg width="1360" height="1360" viewBox="0 0 1360 1360" fill="none" xmlns="http://www.w3.org/2000/svg">
<g>
<path d="M1360 1360H0V0H1360V1360Z" fill="#D2FFFF"/>
<path d="M1360 0H0V1360H1360V0Z" fill="#D2FFFF"/>
<path d="M1295 733C1270 728.8 1246 741 1234 761.7C1230.2 752.6 1222 745.6 1211.5 743.8C1201 742.1 1190.9 746 1184.4 753.5C1180.5 726.7 1156 706 1126.4 706C1119 706 1111.9 707.3 1105.4 709.6C1096.4 690.1 1075.8 676.5 1051.7 676.5C1026.3 676.5 1004.7 691.7 996.6 712.9C992.2 707.8 985 705.2 977.7 706.9C967.8 709.1 961.3 718.2 962.8 727.6C953.7 726.3 944.2 727.2 934.9 730.4C911 738.8 895.9 761 895.3 785C887.6 778.8 877 776.7 867 780.2C852.6 785.3 844.6 800.4 848 815C841.5 814 834.7 814.6 828 816.9C806.5 824.5 795.2 848.1 802.7 869.6C796.1 874.2 790.8 880.5 787.4 887.9C783.7 895.8 782.4 904.7 783.7 913.3L1351.1 952.4V793.9C1348.8 794.4 1346.6 795.2 1344.5 796.2C1346.9 765.8 1325.6 738 1295 733Z" fill="#A9EFFF"/>
<path opacity="0.37" d="M1271.5 540.4C1265.8 540.4 1260.3 541.4 1255.1 543.3C1254.5 506.1 1224.2 476.2 1186.9 476.2C1161.5 476.2 1139.3 490.1 1127.6 510.7C1122 508.4 1115.9 507.1 1109.5 507.1C1087.1 507.1 1068.2 522.6 1062.1 544C1056.5 541.7 1050.4 540.4 1044 540.4C1019.4 540.4 999 559.2 995.2 583.8H1320.2C1316.6 559.2 1296.2 540.4 1271.5 540.4Z" fill="white"/>
<path opacity="0.37" d="M289.4 246.1C284.9 246.1 280.6 246.9 276.5 248.4C276 219.1 252.2 195.6 222.8 195.6C202.8 195.6 185.4 206.5 176.1 222.8C171.7 221 166.9 220 161.8 220C144.2 220 129.3 232.2 124.5 249C120.1 247.2 115.3 246.2 110.2 246.2C90.7998 246.2 74.6998 261 71.7998 280.3H327.7C324.9 260.8 308.8 246.1 289.4 246.1Z" fill="white"/>
<path d="M1333.4 603C1290.1 627.9 1268.8 676.3 1276.3 722.8C1259.2 713.6 1237.8 713.1 1219.7 723.6C1193.6 738.6 1183.5 770.7 1195.4 797.7C1182.4 798.1 1169.4 801.6 1157.4 808.5C1136.3 820.7 1122.7 840.8 1118.2 862.9C1114.3 881.6 1117 901.7 1127.1 919.5C1124.1 922.5 1121.4 925.7 1118.9 929.1C1115.4 933.9 1112.3 939 1109.7 944.3C1107.3 949.4 1105.3 954.9 1103.9 960.5C1103.9 960.7 1103.8 960.9 1103.8 961C1099.7 977.5 1100.4 994.9 1105.8 1011L1360.1 982.1V591.9C1350.9 594.4 1342 598.1 1333.4 603Z" fill="#A9EFFF"/>
<path d="M1016 938.3C1012.5 919.6 1004.3 902 992.1 887.3C1004.2 870.9 1010.9 851.2 1011.4 830.8C1012.3 803.8 1002.5 777.5 984.1 757.7C968.1 740.5 946.8 729.5 923.8 726.2C926.1 721.1 927.9 715.7 928.8 709.9C934.7 674.5 910.8 641 875.3 635.1C861.5 632.8 848 635.1 836.2 640.9C841.6 574.2 795 513.4 727.8 502.2C672.9 493.1 620.5 519.8 594 565.1C585.7 545.1 567.6 529.6 544.6 525.8C521.6 522 499.5 530.8 485.2 547.1C476.8 488.4 423.2 443 358.2 443C342 443 326.4 445.9 312.2 451C292.4 408.3 247.1 378.4 194.4 378.4C138.7 378.4 91.3 411.7 73.5 458.3C64 447.1 48.2 441.5 32.1 445.1C15.7 448.7 3.6 461 0 475.6V924.8L1012.2 994.5C1018.2 976.4 1019.5 957.1 1016 938.3Z" fill="#A9EFFF"/>
<path d="M1360 1360V771C1202.9 775.2 977.3 788.8 793.6 830.8C548.3 887 183.7 833.5 0 784.6V1360H1360Z" fill="#7CDEFC"/>
<path d="M306.6 870.8C299.3 841.7 280.3 816.5 253.6 801.5C258.6 782.4 257.9 762.1 251.5 743.4C237.4 702.5 199.5 676.6 158.6 675.9C147.2 675.7 135.6 677.4 124.2 681.3C129.9 658.8 120.8 635.1 101.4 622.3C76.3 605.7 42.5 612.6 25.9 637.7C19.8 622.4 11 608.5 0 596.7V892.2H309.8C309.5 884.9 308.4 877.8 306.6 870.8Z" fill="#7CDEFC"/>
<path d="M117.1 662.3C107.7 677.9 114.5 699.3 114.5 699.3C114.5 699.3 136.7 695.5 146.2 679.9C155.6 664.3 148.8 642.9 148.8 642.9C148.8 642.9 126.5 646.7 117.1 662.3Z" fill="#7CDEFC"/>
<path d="M253.6 784.3C235.9 788.8 225.8 808.9 225.8 808.9C225.8 808.9 244.3 821.8 262 817.3C279.7 812.8 289.8 792.7 289.8 792.7C289.8 792.7 271.3 779.8 253.6 784.3Z" fill="#7CDEFC"/>
<path d="M154 656.7C138.6 666.4 135.1 688.6 135.1 688.6C135.1 688.6 156.7 695.3 172.1 685.6C187.5 675.9 191 653.7 191 653.7C191 653.7 169.5 647.1 154 656.7Z" fill="#7CDEFC"/>
<path d="M227.8 984.8H227.7C214.2 984.8 202.1 994.5 196.9 1009.3H258.6C253.4 994.5 241.3 984.9 227.8 984.8Z" fill="#3ECAFF"/>
<path d="M1134.5 1003.6H1134.4C1120.9 1003.6 1108.8 1013.3 1103.6 1028.1H1165.3C1160.1 1013.3 1148 1003.7 1134.5 1003.6Z" fill="#3ECAFF"/>
<path d="M1165.4 900.5C1157.6 900.5 1150.7 906 1147.7 914.5H1183C1180 906.1 1173.1 900.5 1165.4 900.5Z" fill="#3ECAFF"/>
<path d="M1018 938.9C1010.8 938.9 1004.4 944 1001.7 951.8H1034.3C1031.5 944 1025.1 938.9 1018 938.9Z" fill="#3ECAFF"/>
<path d="M1205.5 880.6H1205.4C1192.5 880.6 1181 889.8 1176.1 903.9H1234.9C1229.9 889.9 1218.3 880.7 1205.5 880.6Z" fill="#3ECAFF"/>
<path d="M277.9 965.5C270.3 965.5 263.5 970.9 260.6 979.2H295.1C292.2 970.9 285.4 965.5 277.9 965.5Z" fill="#3ECAFF"/>
<path d="M186.9 1130.8C192.4 1095 218.6 1070.2 218.6 1070.2C218.6 1070.2 140.3 1096.9 126.6 1168.5L236.8 1137C255.7 1114.1 281 1104.2 281 1104.2C281 1104.2 228.3 1101 186.9 1130.8Z" fill="#3ECAFF"/>
<path d="M508.5 0C492.1 10.6 483.8 30.9 525.2 56.9C419.5 129.7 530.1 158.9 550.1 173.7C509 227.7 592 259.6 624.8 209.6C623.2 241.2 639.2 264.1 661.9 271.7C672.2 275.1 683.9 275.4 696 271.9C709 268.1 722.6 260 735.3 246.7C706.9 317.8 804.1 336.9 824.3 275.2C824.3 275.2 860.4 357.1 932.2 299.5C949 390.3 977 351.8 981.9 303.6C981.9 314.1 988.6 389.5 1005.1 390.3C1021.5 391 1034.2 356.4 1028.3 275.2C1037.5 333.4 1082.5 354.7 1095.3 267.9C1096.1 262.6 1096.7 256.9 1097.3 250.8C1110.8 262.5 1264.4 276.7 1309.9 217.7C1311.5 224.5 1315.4 230.1 1320.9 234.5C1321.1 234.7 1321.3 234.8 1321.5 235C1331.1 242.5 1345.1 246.5 1360 246.7V0H508.5Z" fill="#9DE7FC"/>
<path d="M1357.4 275.4C1356.8 275.1 1356.3 274.8 1355.7 274.5C1355.2 274.2 1354.7 273.9 1354.2 273.6C1351.6 272 1349.1 270.4 1346.7 268.6C1346.3 268.3 1346 268.1 1345.6 267.8C1342.3 265.3 1339.3 262.6 1336.5 259.7C1336 259.2 1335.5 258.7 1335.1 258.1C1333.9 256.7 1332.7 255.4 1331.6 253.9C1331.2 253.3 1330.7 252.7 1330.3 252.2C1330.3 252.2 1330.3 252.1 1330.2 252.1C1329.7 251.4 1329.3 250.8 1328.8 250.1C1328.8 250 1328.7 250 1328.7 250C1328.3 249.4 1327.9 248.7 1327.5 248C1327.1 247.3 1326.7 246.6 1326.3 245.9C1325.6 244.6 1324.9 243.3 1324.3 242C1324.1 241.6 1323.9 241.2 1323.7 240.7C1323.4 240.1 1323.2 239.5 1322.9 238.9C1322.6 238.2 1322.3 237.4 1322 236.6C1322 236.5 1321.9 236.4 1321.9 236.3C1321.7 235.9 1321.6 235.4 1321.4 234.9C1321.3 234.6 1321.2 234.2 1321.1 233.9C1339.3 213 1351.7 191.5 1360 170.5V100.2H1327.3C1325.5 113.5 1322.7 125.9 1318.9 137.4C1314.6 150.2 1309 161.9 1302 172.5C1284.8 198.5 1259.5 217.2 1225.5 228.2C1168.6 242 1119.6 229.7 1079.5 207C1069.5 201.4 1060.1 195.1 1051.3 188.4C1028.8 171.5 1010 152 995.1 133.9C985 121.6 976.6 110.1 970.2 100.3H928.2C934 114.2 940.1 126.9 946.4 138.6C953.5 151.9 960.9 163.8 968.5 174.6C979.3 189.9 990.6 202.8 1002.2 213.8C1032.5 242.6 1064.6 257.9 1095.4 268C1147 284.8 1194.8 286.7 1224.2 311.9C1229.3 316.3 1234.1 320.3 1238.7 324.1C1266.2 346.5 1286 358.5 1312.7 369.1C1313.4 369.4 1314.1 369.6 1314.8 369.9C1317.1 370.8 1319.4 371.7 1321.8 372.5C1322.9 372.9 1324 373.3 1325.1 373.7C1326.2 374.1 1327.4 374.5 1328.5 374.9C1329.7 375.3 1330.8 375.7 1332 376.1C1332.4 376.3 1332.9 376.4 1333.3 376.5C1335.2 377.1 1337.1 377.8 1339.1 378.4C1339.2 378.4 1339.2 378.4 1339.3 378.4C1345.8 380.5 1352.7 382.7 1360.2 384.9V276.8C1359.1 276.3 1358.3 275.9 1357.4 275.4Z" fill="#7DDCFC"/>
<path d="M1290.3 301.3C1236.8 342.3 1157.7 323.3 1157.7 323.3L1151.4 356.5C1151.4 356.5 1221.4 389.9 1331.2 365.3L1303.8 307.6C1303.5 300.8 1295.7 297.2 1290.3 301.3Z" fill="#7DDCFC"/>
<path d="M1318.9 137.4C1282.8 134.9 1262.3 119 1249.2 100.2H1213.6C1230 138.4 1262.5 164 1302 172.5C1306.4 173.5 1311 174.2 1315.6 174.7C1315.6 174.7 1336.9 152.3 1331.3 137.7C1326.9 137.8 1322.8 137.7 1318.9 137.4Z" fill="#7DDCFC"/>
<path d="M982.401 174.7C977.601 174.8 972.901 174.7 968.301 174.5C934.701 173 908.801 164.3 889.401 150.4C871.501 137.6 859.001 120.4 850.801 100.2H825.601C834.501 127 845.801 149 862.001 166.3C889.801 195.9 932.101 211.7 1002 213.7C1007 213.8 1012.1 213.9 1017.4 213.9C1017.4 214 990.101 180.8 982.401 174.7Z" fill="#7DDCFC"/>
<path d="M1090.2 100.2C1090.2 108.7 1089.5 117 1088 125.1C1083.5 148.7 1072 170.3 1051.3 188.3C1050.7 188.8 1050.2 189.3 1049.6 189.8C1052.8 202.2 1055.1 214.9 1056.3 227.7C1065.3 221.1 1073 214.2 1079.6 207C1100.2 184.5 1109.9 158.8 1112.9 128.5C1113.8 119.5 1114.1 110.1 1113.9 100.3H1090.2V100.2Z" fill="#7DDCFC"/>
<path d="M861.7 291.4C861.7 291.4 914.8 277.5 895.5 232C850.7 241.1 861.7 291.4 861.7 291.4Z" fill="#9DE7FC"/>
<path d="M915.4 214.9C899.1 257.6 947.5 275.2 947.5 275.2C947.5 275.2 964.1 223 915.4 214.9Z" fill="#9DE7FC"/>
<path d="M704.2 289.9C704.2 289.9 758.301 280.6 742.901 233.6C697.501 238.8 704.2 289.9 704.2 289.9Z" fill="#9DE7FC"/>
<path d="M508.2 190.5C508.2 190.5 556.6 216.3 573.3 169.8C534.3 146 508.2 190.5 508.2 190.5Z" fill="#9DE7FC"/>
<path d="M671.9 152.9C671.9 152.9 711.8 173.3 724.8 135.1C692.6 116.2 671.9 152.9 671.9 152.9Z" fill="#9DE7FC"/>
<path d="M745.2 187C745.2 187 783.8 164.2 758.5 132.8C725.3 149.9 745.2 187 745.2 187Z" fill="#9DE7FC"/>
<path d="M1321.1 234C1309 259.6 1297.6 332.1 1312.1 368.8C1320.3 372 1329.2 375.2 1339.1 378.4C1330.1 336.1 1341.6 290.8 1357.4 275.4C1340.1 265.8 1327.4 252.7 1321.1 234Z" fill="#6ACFFC"/>
<path d="M1360 1360V1099.1C1278.6 1092.6 1200 1087.5 1127.9 1084.2V1083.6C1055.4 1080.5 990.2 1079.4 936.3 1080.8C938.7 1062.2 950.3 1045.8 951.1 1044.8C949.4 1045.1 913.5 1052.3 906.4 1076.4C894.1 1028.8 842.6 1026.5 842.6 1026.5C866 1041.7 871.2 1062.3 872.9 1076.2C856.8 1047.9 825.8 1053.2 825.8 1053.2C825.8 1053.2 848.2 1058.4 857.1 1079.8L857.3 1080.4C762.3 1081.5 686.6 1096.4 482.7 1119.3C334.5 1136 174.3 1144 0 1132.4V1360H1360Z" fill="#3ECAFF"/>
<path opacity="0.37" d="M392.7 44.4999C373.5 40.9999 352.7 52.5999 356.8 63.8999C356.8 63.8999 319.7 44.2999 298.6 71.0999C292.2 79.2999 296.3 92.2999 296.3 92.2999H440.4C440.3 92.3999 428.7 51.0999 392.7 44.4999Z" fill="white"/>
<path d="M720.7 47.6L711.6 92.3C711.6 92.3 767 137.4 837.8 137.4C896.8 137.4 899.6 100.1 899.6 100.1C899.6 100.1 923.3 145.2 969.8 129.5C993.7 121.4 1017.9 100.1 1017.9 100.1C1017.9 100.1 1056.3 143.9 1112.8 128.3C1159.6 115.4 1162.8 81.5 1162.8 81.5C1162.8 81.5 1183.3 130.7 1222.9 137.4C1262.5 144.1 1279.9 98.8 1279.9 98.8C1279.9 98.8 1325.4 131.1 1360.1 143.5V47.5H720.7V47.6Z" fill="#9DE7FC"/>
<path d="M708.3 1323C708.3 1323 648.1 1348.7 551.9 1344.5C622.1 1292.7 642.9 1244.7 642.9 1244.7C642.9 1244.7 608 1267.9 441.6 1298.8C470.5 1258.2 472.3 1215.3 472.3 1215.3C472.3 1215.3 441.8 1267.5 344.5 1296.9C329.7 1301.4 317.6 1307.4 307.6 1314.3C341.9 1257.7 331.7 1201.4 331.7 1201.4C331.7 1201.4 310.6 1245.3 262.3 1275.6C244.1 1287 234.5 1298.7 229.6 1308.8C219.2 1281 174.3 1259.3 156.6 1259.1C156.6 1259.1 165.2 1269.5 166.8 1305.2C112 1255.6 46.5 1255.5 0 1268.3V1360H679.8C700.3 1340.1 708.3 1323 708.3 1323Z" fill="#31A9D2"/>
<path d="M1360 1329C1288.2 1306.4 1220.6 1281.4 1123.4 1281.4C1035.8 1281.4 973.1 1323.3 935.1 1360H1360V1329Z" fill="#31A9D2"/>
</g>
</svg>
