<svg width="1360" height="1360" viewBox="0 0 1360 1360" fill="none" xmlns="http://www.w3.org/2000/svg">
<g clip-path="url(#clip0_201_11151)">
<path d="M1360 1360H0V0H1360V1360Z" fill="#FFFAB9"/>
<path d="M1360 0H0V1360H1360V0Z" fill="#FFFFC8"/>
<path d="M1016 938.3C1012.5 919.6 1004.3 902 992.1 887.3C1004.2 870.9 1010.9 851.2 1011.4 830.8C1012.3 803.8 1002.5 777.5 984.1 757.7C968.1 740.5 946.8 729.5 923.8 726.2C926.1 721.1 927.9 715.7 928.8 709.9C934.7 674.5 910.8 641 875.3 635.1C861.5 632.8 848 635.1 836.2 640.9C841.6 574.2 795 513.4 727.8 502.2C672.9 493.1 620.5 519.8 594 565.1C585.7 545.1 567.6 529.6 544.6 525.8C521.6 522 499.5 530.8 485.2 547.1C476.8 488.4 423.2 443 358.2 443C342 443 326.4 445.9 312.2 451C292.4 408.3 247.1 378.4 194.4 378.4C138.7 378.4 91.3 411.7 73.5 458.3C64 447.1 48.2 441.5 32.1 445.1C15.7 448.7 3.6 461 0 475.6V924.8L1012.2 994.5C1018.2 976.4 1019.5 957.1 1016 938.3Z" fill="#FFDE80"/>
<path d="M403.9 768.9C407.3 763.9 420.4 743.5 415.7 717.8C410.7 690.3 385.7 663.1 346 661.5C339.1 673.9 329.7 682.8 329.7 682.8C317.8 638.9 275.1 655.4 275.1 655.4C286.5 665.9 284.2 684.6 272.8 696.5C240.1 655.3 176.2 663.4 151.7 698.3L200.6 864.8L453.2 808C446 779.5 423.8 768.8 403.9 768.9Z" fill="#FECF78"/>
<path d="M284.1 825.6C278.5 811 284.7 792.7 290.5 781.8C272.5 787.7 259.9 802.5 255.9 819.7C219.3 772.7 177.2 786.7 177.2 786.7C201.5 799.2 220.8 822 217.6 843C215 841.6 218 880.1 220.7 889.7C221.3 892 272 849.7 298.9 828.5C292.6 828.8 287.4 828.1 284.1 825.6Z" fill="#C5F88D"/>
<path d="M259.7 706.7C250.7 694 243.8 679.9 238.9 665.3L158 432.6C135.7 357.6 159.6 309.2 181.4 260.2C271.1 242.6 325.6 169.8 325.6 82.6001L301.7 81.2001C305.6 146.4 258.2 206.5 197 221.5C207.1 192.5 212.1 162.6 204.1 123.7L161.6 126.3C177.4 196.9 135.3 231.6 106.7 285.2L43.5 103.4L0.5 144.7V234.6V821.9L314 845.6L407.7 804.3C367.8 795.7 290.5 781.8 259.7 706.7Z" fill="#FEEC9D"/>
<path d="M16.7002 285.2C85.9002 371.6 58.5002 466.9 103.8 543.8C80.0002 460.9 127.5 346.9 16.7002 285.2Z" fill="#FEDD85"/>
<path d="M0.5 -0.199951V197C13.7 199.2 27.2 200.3 41 200.3C161.7 200.3 262.2 114 284.2 -0.199951H0.5Z" fill="#FEDD85"/>
<path d="M107.6 -0.199951C119.2 81.7001 189.5 144.7 274.6 144.7C359.7 144.7 430 81.7001 441.6 -0.199951H107.6Z" fill="#FEDD85"/>
<path d="M410.9 54.4001L410.8 54.2001C410.8 54.2001 393.5 66.3001 392.1 83.0001C390.3 99.7001 405 114.9 405 114.9C405 114.9 419.5 104.6 423.1 90.1001C434.8 99.5001 452.4 98.9001 452.4 98.9001C452.4 98.9001 454.8 78.2001 443.4 66.0001C432 53.7001 410.9 54.4001 410.9 54.4001Z" fill="#FEDD85"/>
<path d="M139 64.5C121.6 54.4 98.2998 63 98.2998 63C98.2998 63 103.1 87.5 120.4 97.3C137.6 107.1 161.1 98.8 161.1 98.8C161.1 98.8 156.8 74.1 139 64.5Z" fill="#FEEC9D"/>
<path d="M75.7999 80.9C75.7999 80.9 63.6999 92.2 63.8999 105.4C64.3999 118.4 77.4999 129.1 77.4999 129.1C77.4999 129.1 89.6999 118 89.3999 104.6C88.7999 91.3 75.7999 80.9 75.7999 80.9Z" fill="#FEEC9D"/>
<path d="M368.7 -0.199951C379.3 40.3 416.1 70.2 459.9 70.2C503.7 70.2 540.5 40.3 551.1 -0.199951H368.7Z" fill="#FEDD85"/>
<path d="M296.1 58.2C287.2 67.7 288.9 84.6 288.9 84.6C288.9 84.6 305.3 85.4 314.6 75.7C323.6 65.9 321.8 49.3 321.8 49.3C321.8 49.3 305.2 48.8 296.1 58.2Z" fill="#FEEC9D"/>
<path d="M0 889.2V648.3C50.8 669.4 80.1 707.1 92.2 727.6C126.1 675.6 185.9 685.4 201.5 692.4C164 703.4 150.3 729.2 145.5 742.9C326.1 733.9 377.1 889.2 377.1 889.2H308.2H0Z" fill="#FECF78"/>
<path d="M71.7997 809.3C76.8997 828.7 99.4997 839.1 99.4997 839.1C99.4997 839.1 113.4 818.4 108.1 799.2C102.8 780.1 80.3997 769.4 80.3997 769.4C80.3997 769.4 65.9997 790 71.7997 809.3Z" fill="#C5F88D"/>
<path d="M135.2 816C126.2 825.8 128 842.4 128 842.4C128 842.4 144.5 842.9 153.7 833.5C162.6 824 160.9 807.1 160.9 807.1C160.9 807.1 144.5 806.3 135.2 816Z" fill="#C5F88D"/>
<path d="M1295 733C1270 728.8 1246 741 1234 761.7C1230.2 752.6 1222 745.6 1211.5 743.8C1201 742.1 1190.9 746 1184.4 753.5C1180.5 726.7 1156 706 1126.4 706C1119 706 1111.9 707.3 1105.4 709.6C1096.4 690.1 1075.8 676.5 1051.7 676.5C1026.3 676.5 1004.7 691.7 996.6 712.9C992.2 707.8 985 705.2 977.7 706.9C967.8 709.1 961.3 718.2 962.8 727.6C953.7 726.3 944.2 727.2 934.9 730.4C911 738.8 895.9 761 895.3 785C887.6 778.8 877 776.7 867 780.2C852.6 785.3 844.6 800.4 848 815C841.5 814 834.7 814.6 828 816.9C806.5 824.5 795.2 848.1 802.7 869.6C796.1 874.2 790.8 880.5 787.4 887.9C783.7 895.8 782.4 904.7 783.7 913.3L1351.1 952.4V793.9C1348.8 794.4 1346.6 795.2 1344.5 796.2C1346.9 765.8 1325.6 738 1295 733Z" fill="#FFDE80"/>
<path opacity="0.44" d="M1261.4 486.6C1255.7 486.6 1250.2 487.6 1245 489.5C1244.4 452.3 1214.1 422.4 1176.8 422.4C1151.4 422.4 1129.2 436.3 1117.5 456.9C1111.9 454.6 1105.8 453.3 1099.4 453.3C1077 453.3 1058.1 468.8 1052 490.2C1046.4 487.9 1040.3 486.6 1033.9 486.6C1009.3 486.6 988.9 505.4 985.1 530H1310.1C1306.4 505.4 1286 486.6 1261.4 486.6Z" fill="white"/>
<path opacity="0.44" d="M1015.9 140.9C1011.4 140.9 1007.1 141.7 1003 143.2C1002.5 113.9 978.7 90.4 949.3 90.4C929.3 90.4 911.9 101.3 902.6 117.6C898.2 115.8 893.4 114.8 888.3 114.8C870.7 114.8 855.8 127 851 143.8C846.6 142 841.8 141 836.7 141C817.3 141 801.2 155.8 798.3 175.1H1054.2C1051.4 155.7 1035.3 140.9 1015.9 140.9Z" fill="white"/>
<path d="M1333.4 603C1290.1 627.9 1268.8 676.3 1276.3 722.8C1259.2 713.6 1237.8 713.1 1219.7 723.6C1193.6 738.6 1183.5 770.7 1195.4 797.7C1182.4 798.1 1169.4 801.6 1157.4 808.5C1136.3 820.7 1122.7 840.8 1118.2 862.9C1114.3 881.6 1117 901.7 1127.1 919.5C1124.1 922.5 1121.4 925.7 1118.9 929.1C1115.4 933.9 1112.3 939 1109.7 944.3C1107.3 949.4 1105.3 954.9 1103.9 960.5C1103.9 960.7 1103.8 960.9 1103.8 961C1099.7 977.5 1100.4 994.9 1105.8 1011L1360.1 982.1V591.9C1350.9 594.4 1342 598.1 1333.4 603Z" fill="#FEFAAE"/>
<path d="M0 1360V771C157.1 775.2 382.7 788.8 566.4 830.8C811.7 887 1176.3 833.5 1360 784.5V1360H0Z" fill="#FECF78"/>
<path d="M1053.4 870.8C1060.7 841.7 1079.7 816.5 1106.4 801.5C1101.4 782.4 1102.1 762.1 1108.5 743.4C1122.6 702.5 1160.5 676.6 1201.4 675.9C1212.8 675.7 1224.4 677.4 1235.8 681.3C1230.1 658.8 1239.2 635.1 1258.6 622.3C1283.7 605.7 1317.5 612.6 1334.1 637.7C1340.2 622.4 1349 608.5 1360 596.7V892.2H1050.2C1050.5 884.9 1051.6 877.8 1053.4 870.8Z" fill="#FECF78"/>
<path d="M1242.9 662.3C1252.3 677.9 1245.5 699.3 1245.5 699.3C1245.5 699.3 1223.3 695.5 1213.8 679.9C1204.4 664.3 1211.2 642.9 1211.2 642.9C1211.2 642.9 1233.5 646.7 1242.9 662.3Z" fill="#FED386"/>
<path d="M1106.4 784.3C1124.1 788.8 1134.2 808.9 1134.2 808.9C1134.2 808.9 1115.7 821.8 1098 817.3C1080.3 812.8 1070.2 792.7 1070.2 792.7C1070.2 792.7 1088.7 779.8 1106.4 784.3Z" fill="#FECF78"/>
<path d="M1206 656.7C1221.4 666.4 1224.9 688.6 1224.9 688.6C1224.9 688.6 1203.3 695.3 1187.9 685.6C1172.5 675.9 1169 653.7 1169 653.7C1169 653.7 1190.5 647.1 1206 656.7Z" fill="#FECF78"/>
<path d="M227.8 984.8H227.7C214.2 984.8 202.1 994.5 196.9 1009.3H258.6C253.4 994.5 241.3 984.9 227.8 984.8Z" fill="#FEBF6F"/>
<path d="M1134.5 1003.6H1134.4C1120.9 1003.6 1108.8 1013.3 1103.6 1028.1H1165.3C1160.1 1013.3 1148 1003.7 1134.5 1003.6Z" fill="#FEBF6F"/>
<path d="M1165.4 900.5C1157.6 900.5 1150.7 906 1147.7 914.5H1183C1180 906.1 1173.1 900.5 1165.4 900.5Z" fill="#FEBF6F"/>
<path d="M1018 938.9C1010.8 938.9 1004.4 944 1001.7 951.8H1034.3C1031.5 944 1025.1 938.9 1018 938.9Z" fill="#FEBF6F"/>
<path d="M1205.5 880.6H1205.4C1192.5 880.6 1181 889.8 1176.1 903.9H1234.9C1229.9 889.9 1218.3 880.7 1205.5 880.6Z" fill="#FEBF6F"/>
<path d="M277.9 965.5C270.3 965.5 263.5 970.9 260.6 979.2H295.1C292.2 970.9 285.4 965.5 277.9 965.5Z" fill="#FEBF6F"/>
<path d="M1173.1 1103.2C1167.6 1063.1 1141.4 1035.3 1141.4 1035.3C1141.4 1035.3 1219.7 1065.2 1233.4 1145.4L1123.2 1110.1C1104.3 1084.4 1079 1073.3 1079 1073.3C1079 1073.3 1131.7 1069.8 1173.1 1103.2Z" fill="#FECA74"/>
<path d="M0 1360V1067.8C81.4 1060.6 160 1054.8 232.1 1051.1V1050.5C304.6 1047.1 369.8 1045.8 423.7 1047.3C421.3 1026.5 409.7 1008.1 408.9 1007C410.6 1007.3 446.5 1015.4 453.6 1042.4C465.9 989 517.4 986.5 517.4 986.5C494 1003.5 488.8 1026.6 487.1 1042.2C503.2 1010.5 534.2 1016.4 534.2 1016.4C534.2 1016.4 511.8 1022.2 502.9 1046.2L502.7 1046.9C597.7 1048.2 673.4 1064.8 877.3 1090.5C1025.5 1109.2 1185.7 1118.1 1360 1105.2V1360H0Z" fill="#FEBF6F"/>
<path opacity="0.44" d="M358.3 288C339.1 284.5 318.3 296.1 322.4 307.4C322.4 307.4 285.3 287.8 264.2 314.6C257.8 322.8 261.9 335.8 261.9 335.8H406C405.9 335.8 394.3 294.5 358.3 288Z" fill="white"/>
<path d="M1332.1 1340.6C1235.5 1326.4 1144.5 1310.8 1013.9 1310.8C896.1 1310.8 811.8 1337.1 760.6 1360H1332V1340.6H1332.1Z" fill="#FEA454"/>
<path d="M210.8 1246.8C210.8 1246.8 245 1193 222.8 1132.4C222.8 1132.4 289.4 1162.6 281.3 1260.5C305.4 1244.1 337.2 1240.3 365.6 1253.2C346.4 1260 328.9 1271.6 315.1 1287.3C315.1 1287.3 413.1 1276.2 459.6 1360H0V1096.9C67.7 1099.7 178.4 1139.5 210.8 1246.8Z" fill="#FEA454"/>
<path d="M61.0002 1241.6C57.0002 1264.2 75.6002 1285.9 75.6002 1285.9C75.6002 1285.9 100 1271 103.7 1248.6C107.4 1226.2 89.1002 1204.3 89.1002 1204.3C89.1002 1204.3 64.2002 1218.7 61.0002 1241.6Z" fill="#FE9054"/>
<path d="M123.8 1278.9C109.8 1284.8 103.7 1302.9 103.7 1302.9C103.7 1302.9 120.7 1311.3 134.7 1306C148.5 1300.3 154.8 1282 154.8 1282C154.8 1282 138 1273.3 123.8 1278.9Z" fill="#FE9054"/>
<path d="M1206.6 1277.6C1206.6 1277.6 1181.7 1238.5 1197.9 1194.3C1197.9 1194.3 1149.4 1216.3 1155.4 1287.5C1137.9 1275.6 1114.7 1272.8 1094 1282.2C1108 1287.1 1120.7 1295.6 1130.8 1307C1130.8 1307 1059.5 1298.9 1025.6 1359.9H1360V1168.4C1310.7 1170.5 1230.1 1199.5 1206.6 1277.6Z" fill="#FEA454"/>
<path d="M1315.6 1273.8C1318.5 1290.3 1305 1306.1 1305 1306.1C1305 1306.1 1287.3 1295.2 1284.6 1278.9C1281.9 1262.6 1295.2 1246.6 1295.2 1246.6C1295.2 1246.6 1313.2 1257.1 1315.6 1273.8Z" fill="#FE9054"/>
<path d="M1269.9 1301C1280.1 1305.3 1284.5 1318.5 1284.5 1318.5C1284.5 1318.5 1272.2 1324.6 1262 1320.7C1252 1316.6 1247.4 1303.2 1247.4 1303.2C1247.4 1303.2 1259.5 1296.9 1269.9 1301Z" fill="#FE9054"/>
<path d="M1164.1 0C1181 87.6 1258 153.7 1350.6 153.7C1353.8 153.7 1356.9 153.6 1360 153.5V0H1164.1Z" fill="#FEDD85"/>
<path d="M1029.5 0C1045.3 47 1089.6 80.9 1142 80.9C1194.3 80.9 1238.7 47 1254.5 0H1029.5Z" fill="#FEDD85"/>
<path d="M1195 63.4L1194.9 63.5C1194.9 63.5 1178.8 62.9 1170.1 72.3C1161.4 81.7 1163.2 97.5 1163.2 97.5C1163.2 97.5 1176.7 98 1185.6 90.8C1188.4 101.9 1199.4 109.9 1199.4 109.9C1199.4 109.9 1210.6 98.3 1209.3 85.5C1208.2 72.6 1195 63.4 1195 63.4Z" fill="#FEDD85"/>
<path d="M1321.1 68.0999C1317.2 53.1999 1299.8 45.2 1299.8 45.2C1299.8 45.2 1289.2 61.1 1293.2 75.8C1297.2 90.5 1314.5 98.6999 1314.5 98.6999C1314.5 98.6999 1325.5 82.9999 1321.1 68.0999Z" fill="#FEEC9D"/>
<path d="M1278 42.8C1278 42.8 1265.3 42.4 1258.3 49.6C1251.5 56.9 1252.8 69.8 1252.8 69.8C1252.8 69.8 1265.4 70.4 1272.5 63C1279.4 55.5 1278 42.8 1278 42.8Z" fill="#FEDD85"/>
<path d="M1184.4 25.7C1194.4 26.1 1202.6 36.1 1202.6 36.1C1202.6 36.1 1194.1 45.4 1183.9 45.2C1173.7 44.8 1165.7 34.8 1165.7 34.8C1165.7 34.8 1174.4 25.6 1184.4 25.7Z" fill="#FEEC9D"/>
</g>
<defs>
<clipPath id="clip0_201_11151">
<rect width="1360" height="1360" fill="white"/>
</clipPath>
</defs>
</svg>
