<svg width="1360" height="1360" viewBox="0 0 1360 1360" fill="none" xmlns="http://www.w3.org/2000/svg">
<g>
<path d="M1361.3 -0.699951H1.2998V1359.3H1361.3V-0.699951Z" fill="#FFFFE9"/>
<path opacity="0.71" d="M256.3 265.9C216.3 258.7 173.2 282.7 181.6 306.3C181.6 306.3 104.5 265.5 60.6002 321.3C47.2002 338.4 55.8002 365.3 55.8002 365.3H355.3C355.2 365.3 331 279.5 256.3 265.9Z" fill="white"/>
<path d="M983.3 941.9C979.9 924.4 972 907.9 960.2 894.2C971.9 878.8 978.4 860.4 978.9 841.3C979.8 816 970.3 791.4 952.5 772.9C937 756.8 916.4 746.5 894.2 743.4C896.4 738.6 898.2 733.5 899.1 728.1C904.8 694.9 881.6 663.6 847.3 658.1C833.9 656 820.9 658.1 809.5 663.5C814.7 601 769.6 544.1 704.6 533.7C651.5 525.2 600.7 550.1 575.1 592.6C567.1 573.9 549.6 559.4 527.3 555.8C505.1 552.2 483.7 560.5 469.8 575.7C466 484 355.9 448 295.1 500.5C276 460.5 123.2 459 144.9 572C91 572 62.9 592.2 45.6 635.8C36.4 625.3 46.6 476.7 31 480.1C15.2 483.5 3.5 495 0 508.6V929.2L979.6 994.5C985.4 977.6 986.7 959.5 983.3 941.9Z" fill="#FFF1C9"/>
<path d="M403.9 854.9C407.3 849.9 420.4 829.5 415.7 803.8C410.7 776.3 385.7 749.1 346 747.5C339.1 759.9 329.7 768.8 329.7 768.8C317.8 724.9 275.1 741.4 275.1 741.4C286.5 751.9 284.2 770.6 272.8 782.5C240.1 741.3 176.2 749.4 151.7 784.3L200.6 950.8L453.2 894C446 865.5 423.8 854.8 403.9 854.9Z" fill="#FFEBBF"/>
<path d="M177 842.9C182.7 845.1 205.5 853 229.5 842.6C255.1 831.4 275.8 800.8 268.2 761.8C254.6 758 243.7 750.8 243.7 750.8C283.6 729 257.7 691.3 257.7 691.3C250.1 704.8 231.4 707 217.1 698.6C249.6 657.2 204.2 582 161 591.8L36.5996 667.3L150.4 899.9C176.4 886.4 181.7 862.2 177 842.9Z" fill="#FFEBBF"/>
<path d="M284 756.5C287.4 751.5 300.5 731.1 295.8 705.4C290.8 677.9 265.8 650.7 226.1 649.1C219.2 661.5 209.8 670.4 209.8 670.4C197.9 626.5 155.2 643 155.2 643C166.6 653.5 164.3 672.2 152.9 684.1C120.1 643 56.2002 651 31.7002 686L80.6002 852.5L333.2 795.7C326.1 767.2 303.8 756.4 284 756.5Z" fill="#FFEBBF"/>
<path d="M259.7 792.7L238.9 751.3L158 518.6C135.7 443.6 159.6 395.2 181.4 346.2C271.1 328.6 325.6 255.8 325.6 168.6L301.7 167.2C305.6 232.4 258.2 292.5 197 307.5C207.1 278.5 212.1 248.6 204.1 209.7L161.6 212.3C177.4 282.9 135.3 317.6 106.7 371.2L43.5 189.4L0.5 230.7V320.6V907.9L314 931.6L407.7 890.3C367.8 881.7 290.5 867.8 259.7 792.7Z" fill="#FFF9D6"/>
<path d="M1295 749.6C1270 745.7 1246 757.1 1234 776.4C1230.2 767.9 1222 761.3 1211.5 759.7C1201 758.1 1190.9 761.8 1184.4 768.8C1180.5 743.7 1156 724.3 1126.4 724.3C1119 724.3 1111.9 725.5 1105.4 727.7C1096.4 709.5 1075.8 696.7 1051.7 696.7C1026.3 696.7 1004.7 710.9 996.6 730.8C992.2 726 985 723.6 977.7 725.2C967.8 727.3 961.3 735.8 962.8 744.6C953.7 743.4 944.2 744.2 934.9 747.3C911 755.2 895.9 776 895.3 798.4C887.6 792.6 877 790.6 867 793.9C852.6 798.7 844.6 812.8 848 826.5C841.5 825.6 834.7 826.1 828 828.3C806.5 835.4 795.2 857.5 802.7 877.6C796.1 882 790.8 887.8 787.4 894.8C783.7 902.2 773.4 986.6 774.6 994.7L1351 955V806.7C1348.7 807.2 1346.5 807.9 1344.4 808.8C1346.9 780.3 1325.6 754.4 1295 749.6Z" fill="#FFF1C9"/>
<path opacity="0.33" d="M157.9 518.6C135.6 443.6 159.5 395.2 181.3 346.2C271 328.6 325.5 255.8 325.5 168.6L301.6 167.2C305.5 232.4 258.1 292.5 196.9 307.5C207 278.5 212 248.6 204 209.7L161.5 212.3C177.3 282.9 135.2 317.6 106.6 371.2L43.5 189.4L0.5 230.7V320.6V409.2C73.3 483.3 149.7 551.3 157.9 518.6Z" fill="#FFF1C9"/>
<path d="M16.7002 371.2C85.9002 457.6 58.5002 552.9 103.8 629.8C80.0002 546.9 127.5 432.9 16.7002 371.2Z" fill="#FFF2C5"/>
<path d="M0.5 4.40002V281.7C19 284.7 38 286.4 57.4 286.4C227.1 286.4 368.4 165 399.4 4.40002H0.5Z" fill="#FFF2C5"/>
<path d="M151.1 4.40002C167.4 119.6 266.4 208.2 386 208.2C505.7 208.2 604.6 119.6 620.9 4.40002H151.1Z" fill="#FFF2C5"/>
<path d="M577.6 81.2L577.4 80.9C577.4 80.9 553.1 97.9 551.1 121.4C548.6 144.9 569.2 166.2 569.2 166.2C569.2 166.2 589.5 151.7 594.6 131.3C611 144.5 635.8 143.6 635.8 143.6C635.8 143.6 639.2 114.6 623.2 97.3C607.2 80.1 577.6 81.2 577.6 81.2Z" fill="#FFF2C5"/>
<path d="M195.2 95.3001C170.8 81.1001 137.9 93.2001 137.9 93.2001C137.9 93.2001 144.7 127.6 169 141.4C193.2 155.2 226.3 143.5 226.3 143.5C226.3 143.5 220.2 108.8 195.2 95.3001Z" fill="#FFFFDA"/>
<path d="M106.4 118.3C106.4 118.3 89.4002 134.3 89.7002 152.7C90.3002 171 108.8 186.1 108.8 186.1C108.8 186.1 125.9 170.5 125.5 151.7C124.7 133 106.4 118.3 106.4 118.3Z" fill="#FFFFDA"/>
<path d="M518.2 4.40002C533 61.4 584.8 103.4 646.4 103.4C708 103.4 759.8 61.4 774.6 4.40002H518.2Z" fill="#FFF2C5"/>
<path d="M416.2 86.4C403.7 99.8 406.1 123.5 406.1 123.5C406.1 123.5 429.2 124.6 442.2 111C454.8 97.2 452.3 73.9 452.3 73.9C452.3 73.9 429 73.2 416.2 86.4Z" fill="#FFFFDA"/>
<path d="M0 975.2V734.3C50.8 755.4 80.1 793.1 92.2 813.6C126.1 761.6 185.9 771.4 201.5 778.4C164 789.4 150.3 815.2 145.5 828.9C326.1 819.9 377.1 975.2 377.1 975.2H308.2H0Z" fill="#FFEBBF"/>
<path opacity="0.71" d="M1261.4 486.6C1255.7 486.6 1250.2 487.6 1245 489.5C1244.4 452.3 1214.1 422.4 1176.8 422.4C1151.4 422.4 1129.2 436.3 1117.5 456.9C1111.9 454.6 1105.8 453.3 1099.4 453.3C1077 453.3 1058.1 468.8 1052 490.2C1046.4 487.9 1040.3 486.6 1033.9 486.6C1009.3 486.6 988.9 505.4 985.1 530H1310.1C1306.4 505.4 1286 486.6 1261.4 486.6Z" fill="white"/>
<path opacity="0.71" d="M1015.9 140.9C1011.4 140.9 1007.1 141.7 1003 143.2C1002.5 113.9 978.7 90.4 949.3 90.4C929.3 90.4 911.9 101.3 902.6 117.6C898.2 115.8 893.4 114.8 888.3 114.8C870.7 114.8 855.8 127 851 143.8C846.6 142 841.8 141 836.7 141C817.3 141 801.2 155.8 798.3 175.1H1054.2C1051.4 155.7 1035.3 140.9 1015.9 140.9Z" fill="white"/>
<path d="M1333.4 603C1290.1 627.9 1268.8 676.3 1276.3 722.8C1259.2 713.6 1237.8 713.1 1219.7 723.6C1193.6 738.6 1183.5 770.7 1195.4 797.7C1182.4 798.1 1169.4 801.6 1157.4 808.5C1136.3 820.7 1122.7 840.8 1118.2 862.9C1114.3 881.6 1117 901.7 1127.1 919.5C1124.1 922.5 1121.4 925.7 1118.9 929.1C1115.4 933.9 1112.3 939 1109.7 944.3C1107.3 949.4 1105.3 954.9 1103.9 960.5C1103.9 960.7 1103.8 960.9 1103.8 961C1099.7 977.5 1100.4 994.9 1105.8 1011L1360.1 982.1V591.9C1350.9 594.4 1342 598.1 1333.4 603Z" fill="#FFFFEB"/>
<path d="M0 1360V857C157.1 861.2 382.7 874.8 566.4 916.8C811.7 973 1176.3 919.5 1360 870.5V1360H0Z" fill="#FFEBBF"/>
<path d="M1053.4 956.8C1060.7 927.7 1079.7 902.5 1106.4 887.5C1101.4 868.4 1102.1 848.1 1108.5 829.4C1122.6 788.5 1160.5 762.6 1201.4 761.9C1212.8 761.7 1224.4 763.4 1235.8 767.3C1230.1 744.8 1239.2 721.1 1258.6 708.3C1283.7 691.7 1317.5 698.6 1334.1 723.7C1340.2 708.4 1349 694.5 1360 682.7V978.2H1050.2C1050.5 970.9 1051.6 963.8 1053.4 956.8Z" fill="#FFEBBF"/>
<path d="M1242.9 748.3C1252.3 763.9 1245.5 785.3 1245.5 785.3C1245.5 785.3 1223.3 781.5 1213.8 765.9C1204.4 750.3 1211.2 728.9 1211.2 728.9C1211.2 728.9 1233.5 732.7 1242.9 748.3Z" fill="#FFEBBF"/>
<path d="M1106.4 870.3C1124.1 874.8 1134.2 894.9 1134.2 894.9C1134.2 894.9 1115.7 907.8 1098 903.3C1080.3 898.8 1070.2 878.7 1070.2 878.7C1070.2 878.7 1088.7 865.8 1106.4 870.3Z" fill="#FFEBBF"/>
<path d="M1206 742.7C1221.4 752.4 1224.9 774.6 1224.9 774.6C1224.9 774.6 1203.3 781.3 1187.9 771.6C1172.5 761.9 1169 739.7 1169 739.7C1169 739.7 1190.5 733.1 1206 742.7Z" fill="#FFEBBF"/>
<path d="M227.8 984.8H227.7C214.2 984.8 202.1 994.5 196.9 1009.3H258.6C253.4 994.5 241.3 984.9 227.8 984.8Z" fill="#FFE0AC"/>
<path d="M1134.5 1003.6H1134.4C1120.9 1003.6 1108.8 1013.3 1103.6 1028.1H1165.3C1160.1 1013.3 1148 1003.7 1134.5 1003.6Z" fill="#FFE0AC"/>
<path d="M1222 953.8C1214.2 953.8 1207.3 959.3 1204.3 967.8H1239.6C1236.7 959.4 1229.7 953.8 1222 953.8Z" fill="#FFE0AC"/>
<path d="M1001.7 968.7C994.5 968.7 988.1 973.8 985.4 981.6H1018C1015.2 973.8 1008.8 968.7 1001.7 968.7Z" fill="#FFE0AC"/>
<path d="M1262.1 933.9H1262C1249.1 933.9 1237.6 943.1 1232.7 957.2H1291.5C1286.5 943.2 1275 934 1262.1 933.9Z" fill="#FFE0AC"/>
<path d="M277.9 965.5C270.3 965.5 263.5 970.9 260.6 979.2H295.1C292.2 970.9 285.4 965.5 277.9 965.5Z" fill="#FFE0AC"/>
<path d="M1173.1 1133.4C1167.6 1093.3 1141.4 1065.5 1141.4 1065.5C1141.4 1065.5 1219.7 1095.4 1233.4 1175.6L1123.2 1140.3C1104.3 1114.6 1079 1103.5 1079 1103.5C1079 1103.5 1131.7 1100 1173.1 1133.4Z" fill="#FFE0AC"/>
<path d="M0 1360V1096.8C81.4 1089.6 160 1083.8 232.1 1080.1V1079.5C304.6 1076.1 369.8 1074.8 423.7 1076.3C421.3 1055.5 409.7 1037.1 408.9 1036C410.6 1036.3 446.5 1044.4 453.6 1071.4C465.9 1018 517.4 1015.5 517.4 1015.5C494 1032.5 488.8 1055.6 487.1 1071.2C503.2 1039.5 534.2 1045.4 534.2 1045.4C534.2 1045.4 511.8 1051.2 502.9 1075.2L502.7 1075.9C597.7 1077.2 673.4 1093.8 877.3 1119.5C1025.5 1138.2 1185.7 1147.1 1360 1134.2V1360H0Z" fill="#FFE0AC"/>
<path d="M1332.1 1340.6C1235.5 1326.4 1144.5 1310.8 1013.9 1310.8C896.1 1310.8 811.8 1337.1 760.6 1360H1332V1340.6H1332.1Z" fill="#FFC591"/>
<path d="M210.8 1246.8C210.8 1246.8 245 1193 222.8 1132.4C222.8 1132.4 289.4 1162.6 281.3 1260.5C305.4 1244.1 337.2 1240.3 365.6 1253.2C346.4 1260 328.9 1271.6 315.1 1287.3C315.1 1287.3 413.1 1276.2 459.6 1360H0V1096.9C67.7 1099.7 178.4 1139.5 210.8 1246.8Z" fill="#FFC591"/>
<path d="M61.0002 1241.6C57.0002 1264.2 75.6002 1285.9 75.6002 1285.9C75.6002 1285.9 100 1271 103.7 1248.6C107.4 1226.2 89.1002 1204.3 89.1002 1204.3C89.1002 1204.3 64.2002 1218.7 61.0002 1241.6Z" fill="#FFB191"/>
<path d="M123.8 1278.9C109.8 1284.8 103.7 1302.9 103.7 1302.9C103.7 1302.9 120.7 1311.3 134.7 1306C148.5 1300.3 154.8 1282 154.8 1282C154.8 1282 138 1273.3 123.8 1278.9Z" fill="#FFB191"/>
<path d="M1206.6 1277.6C1206.6 1277.6 1181.7 1238.5 1197.9 1194.3C1197.9 1194.3 1149.4 1216.3 1155.4 1287.5C1137.9 1275.6 1114.7 1272.8 1094 1282.2C1108 1287.1 1120.7 1295.6 1130.8 1307C1130.8 1307 1059.5 1298.9 1025.6 1359.9H1360V1168.4C1310.7 1170.5 1230.1 1199.5 1206.6 1277.6Z" fill="#FFC591"/>
<path d="M1315.6 1273.8C1318.5 1290.3 1305 1306.1 1305 1306.1C1305 1306.1 1287.3 1295.2 1284.6 1278.9C1281.9 1262.6 1295.2 1246.6 1295.2 1246.6C1295.2 1246.6 1313.2 1257.1 1315.6 1273.8Z" fill="#FFB191"/>
<path d="M1269.9 1301C1280.1 1305.3 1284.5 1318.5 1284.5 1318.5C1284.5 1318.5 1272.2 1324.6 1262 1320.7C1252 1316.6 1247.4 1303.2 1247.4 1303.2C1247.4 1303.2 1259.5 1296.9 1269.9 1301Z" fill="#FFB191"/>
<path d="M1164.1 0C1181 87.6 1258 153.7 1350.6 153.7C1353.8 153.7 1356.9 153.6 1360 153.5V0H1164.1Z" fill="#FFF2C5"/>
<path d="M1029.5 0C1045.3 47 1089.6 80.9 1142 80.9C1194.3 80.9 1238.7 47 1254.5 0H1029.5Z" fill="#FFF2C5"/>
<path d="M1195 63.4L1194.9 63.5C1194.9 63.5 1178.8 62.9 1170.1 72.3C1161.4 81.7 1163.2 97.5 1163.2 97.5C1163.2 97.5 1176.7 98 1185.6 90.8C1188.4 101.9 1199.4 109.9 1199.4 109.9C1199.4 109.9 1210.6 98.3 1209.3 85.5C1208.2 72.6 1195 63.4 1195 63.4Z" fill="#FFF2C5"/>
<path d="M1321.1 68.0999C1317.2 53.1999 1299.8 45.2 1299.8 45.2C1299.8 45.2 1289.2 61.1 1293.2 75.8C1297.2 90.5 1314.5 98.6999 1314.5 98.6999C1314.5 98.6999 1325.5 82.9999 1321.1 68.0999Z" fill="#FFF2C5"/>
<path d="M1278 42.8C1278 42.8 1265.3 42.4 1258.3 49.6C1251.5 56.9 1252.8 69.8 1252.8 69.8C1252.8 69.8 1265.4 70.4 1272.5 63C1279.4 55.5 1278 42.8 1278 42.8Z" fill="#FFF2C5"/>
<path d="M1184.4 25.7C1194.4 26.1 1202.6 36.1 1202.6 36.1C1202.6 36.1 1194.1 45.4 1183.9 45.2C1173.7 44.8 1165.7 34.8 1165.7 34.8C1165.7 34.8 1174.4 25.6 1184.4 25.7Z" fill="#FFF2C5"/>
</g>
</svg>
