<svg width="64" height="64" viewBox="0 0 64 64" fill="none" xmlns="http://www.w3.org/2000/svg">
<path d="M3 32C3 33.3 3.1 34.7 3.3 36C3.6 38.5 6.8 41.8 6.8 41.8C6.8 41.8 7.3 47.4 8.7 49.3C13.1 55.4 19.8 59.5 27.2 60.8C28.8 61.1 34.7 59.1 34.7 59.1C34.7 59.1 39.3 60.5 42.5 59.2C48.8 56.7 54.1 52 57.4 46C59.7 41.9 58.7 36.6 58.7 36.6C58.7 36.6 60.8 29.7 60.7 28.5C60.1 23 57.9 17.9 54.4 13.6C52.4 11.1 45.7 8.6 45.7 8.6C45.7 8.6 41.9 4.4 39 3.7C32.8 2.1 26.3 2.7 20.4 5.2C18.1 6.2 15.2 10.7 15.2 10.7C15.2 10.7 10.3 12.4 8.8 14.4C5.1 19.4 3 25.6 3 32Z" fill="#DCF3FF"/>
<path d="M22.3998 18.1C21.3998 16.7 20.4998 15.1 19.7998 13.5C19.7998 13.5 21.5998 15.8 22.9998 17.6C24.3998 19.4 26.9998 22.1 26.9998 22.1C25.2998 21 23.6998 19.7 22.3998 18.1Z" fill="#BCD9E8"/>
<path d="M39.2002 21.1C39.2002 21.1 41.2002 18.2 42.0002 16.6C42.8002 15 44.5002 11.9 44.5002 11.9C44.2002 13.7 43.6002 15.4 42.8002 16.9C41.9002 18.4 40.6002 19.9 39.2002 21.1Z" fill="#BCD9E8"/>
<path d="M13.7002 39.2C14.9002 37.8 16.4002 36.7 18.0002 35.8C20.0002 34.7 22.2002 33.9 24.5002 33.3C24.5002 33.3 20.8002 35.1 18.7002 36.3L13.7002 39.2Z" fill="#BCD9E8"/>
<path d="M35.1 52.3C35.1 52.3 35.3 49.1 35.3 46.2C35.3 43.3 35 40.1 35 40.1C35.7 42.1 36.1 44.1 36.1 46.2C36.1 48.2 35.7 50.3 35.1 52.3Z" fill="#BCD9E8"/>
<path d="M49.5001 33.9C47.7001 33.3 45.9001 32.9 44.1001 32.5C46.0001 32.3 47.9001 32.5 49.7001 33.1C51.5001 33.7 53.3001 34.6 54.8001 35.8C54.8001 35.8 52.3001 34.8 49.5001 33.9Z" fill="#BCD9E8"/>
<path d="M7.00023 31.1C6.70023 28.8 6.90023 26.5 7.60023 24.3C8.80023 20 10.5002 18.4 10.5002 18.4C10.5002 18.4 9.30023 21.4 8.30023 24.9C7.60023 26.9 7.20023 29 7.00023 31.1Z" fill="#BCD9E8"/>
<path d="M24.8999 6C26.7999 5 28.8999 4.4 31.0999 4.3C33.2999 4 35.3999 4.2 37.5999 4.7C37.5999 4.7 33.3999 4.9 31.2999 5.1C29.1999 5.3 24.8999 6 24.8999 6Z" fill="#BCD9E8"/>
<path d="M56.9 20.2C56 18 54 14.6 54 14.6C55.4 16.2 56.6 17.9 57.5 19.8C58.4 22 59 24.3 59.3 26.6C59.4 26.6 57.9 22.3 56.9 20.2Z" fill="#BCD9E8"/>
<path d="M43.8999 54.9C45.9999 53.8 47.9999 52.6 49.8999 51.2C51.7999 49.7 53.3999 48.1 54.8999 46.3C53.7999 48.5 52.1999 50.4 50.2999 51.9C48.2999 53.3 46.1999 54.3 43.8999 54.9Z" fill="#BCD9E8"/>
<path d="M18.5002 54C15.2002 51.5 14.2002 49.5 14.2002 49.5C15.7002 50.9 17.3002 52.2 19.0002 53.5C21.0002 54.8 23.1002 56 25.3002 57C22.8002 56.5 20.5002 55.5 18.5002 54Z" fill="#BCD9E8"/>
<path d="M26.7 21.8C25.1 25.5 24.2 29.4 24 33.4C27 36.7 30.8 39.1 35 40.4C38.5 38.2 41.7 35.6 44.5 32.5C43.4 28.4 41.6 24.4 39.4 20.8C35.2 20.4 30.9 20.8 26.7 21.8Z" fill="#222752"/>
<path d="M35.1 51.8C32.2 54.3 28.7 56.1 25 56.7C25.4 58.2 26.1 59.6 27.2 60.7C32.3 61.6 37.6 61.1 42.4 59.2C43.4 57.9 44 56.4 44.3 54.7C41 54.6 37.8 53.6 35.1 51.8Z" fill="#222752"/>
<path d="M44.4 12.2C47.9 12.2 51.3 13.1 54.3 14.9C54.4 14.5 54.5 14 54.4 13.6C50.5 8.7 45.1 5.2 39 3.7C38.4 3.9 37.9 4.3 37.5 4.7C40.9 6.5 43.3 8.9 44.4 12.2Z" fill="#222752"/>
<path d="M14.4998 49.8C13.4998 46.3 13.3998 42.6 13.9998 39C10.8998 37.1 8.3998 34.2 6.9998 30.8C5.2998 32.1 4.0998 34 3.2998 36C3.9998 40.8 5.7998 45.4 8.6998 49.3C10.4998 50 12.4998 50.2 14.4998 49.8Z" fill="#222752"/>
<path d="M54.3999 35.6C55.4999 39.1 55.4999 42.9 54.5999 46.5L57.3999 45.9C59.6999 41.6 60.9999 36.8 60.9999 31.9C60.9999 30.7 60.8999 29.5 60.7999 28.4C60.3999 27.6 59.8999 26.8 59.2999 26.2C58.6999 30.3 57.1999 33.6 54.3999 35.6Z" fill="#222752"/>
<path d="M20 13.9C20.8 10.8 22.5 8 24.9 6C23.5 5.4 22 5.1 20.5 5.3C15.9 7.3 12 10.5 9 14.4C9.1 15.9 9.5 17.4 10.3 18.7C13 16.3 16.3 14.6 20 13.9Z" fill="#222752"/>
</svg>
