<svg width="64" height="64" viewBox="0 0 64 64" fill="none" xmlns="http://www.w3.org/2000/svg">
<path d="M37.2003 15.1L37.3003 14.9L37.2003 14.7C36.6003 13.2 35.9003 11.8 35.0003 10.4C36.0003 9.5 36.7003 8.4 37.1003 7.3C37.6003 6 37.8003 4.6 37.6003 3.3C37.6003 3.1 37.3003 2.9 37.1003 2.9C36.8003 2.9 36.6003 3.2 36.7003 3.4C37.1003 5.8 36.0003 8.4 34.1003 10.1L33.8003 10.4L34.0003 10.7C35.0003 12 35.6003 13.4 36.2003 14.9C35.1003 16.7 34.9003 18.9 35.7003 20.9C35.7003 20.9 35.7003 20.9 35.7003 21C35.9003 21.4 36.4003 21.5 36.8003 21.3C37.2003 21.1 37.4003 20.7 37.2003 20.3C36.4003 18.7 36.4003 16.7 37.2003 15.1Z" fill="#2F2947"/>
<path d="M37.1999 4.1C37.0999 4.1 36.8999 4 36.8999 3.9C36.5999 3.5 36.5999 2.9 36.9999 2.4C37.3999 2 37.9999 1.8 38.5999 2C38.7999 2.1 38.8999 2.3 38.7999 2.4C38.6999 2.6 38.4999 2.7 38.2999 2.6C38.0999 2.5 37.7999 2.6 37.5999 2.8C37.3999 3 37.3999 3.3 37.4999 3.5C37.5999 3.7 37.5999 3.9 37.3999 4C37.3999 4.1 37.2999 4.1 37.1999 4.1Z" fill="#2F2947"/>
<path d="M37.4 4.8C37.2 4.8 37 4.7 37 4.5C37 4 37.4 3.6 37.9 3.5C38.4 3.4 39 3.7 39.1 4.1C39.2 4.3 39.1 4.5 38.9 4.5C38.7 4.6 38.5 4.5 38.4 4.3C38.4 4.2 38.2 4.1 38.1 4.1C38 4.1 37.8 4.3 37.9 4.4C37.8 4.6 37.7 4.8 37.4 4.8C37.5 4.8 37.5 4.8 37.4 4.8Z" fill="#2F2947"/>
<path d="M43.1999 27.3C43.7999 27.9 44.3999 28.4 45.1999 28.9C45.8999 29.3 46.6999 29.7 47.3999 30.1C48.1999 30.4 48.9999 30.7 49.7999 30.9C50.5999 31.1 51.3999 31.3 52.1999 31.4C52.6999 31.5 52.9999 31.9 52.9999 32.4C52.8999 32.9 52.4999 33.2 51.9999 33.2H51.8999C50.9999 33 50.0999 32.7 49.2999 32.4C48.4999 32.1 47.5999 31.7 46.8999 31.2C46.0999 30.8 45.3999 30.3 44.5999 29.7C43.8999 29.1 43.1999 28.5 42.5999 27.8C42.4999 27.6 42.4999 27.4 42.6999 27.3C42.8999 27.2 43.0999 27.2 43.1999 27.3Z" fill="#2F2947"/>
<path d="M62.1 34C62 34 61.9 34 61.8 33.9C59.3 31.6 55.4 31.1 52.4 32.6C52.2 32.7 51.9 32.6 51.8 32.4C51.7 32.2 51.8 31.9 52 31.8C55.3 30.1 59.6 30.7 62.4 33.2C62.6 33.4 62.6 33.7 62.4 33.8C62.4 34 62.3 34 62.1 34Z" fill="#2F2947"/>
<path d="M61.8002 35.5C61.7002 35.5 61.5002 35.4 61.5002 35.3C61.4002 35.1 61.5002 34.9 61.7002 34.8C61.9002 34.7 62.0002 34.6 62.0002 34.4C62.0002 34.2 61.9002 34 61.7002 33.9C61.5002 33.8 61.4002 33.6 61.5002 33.4C61.6002 33.2 61.8002 33.1 62.0002 33.2C62.4002 33.4 62.7002 33.9 62.7002 34.4C62.7002 34.9 62.3002 35.3 61.9002 35.5C61.9002 35.5 61.9002 35.5 61.8002 35.5Z" fill="#2F2947"/>
<path d="M60.8003 34.9C60.7003 34.9 60.6003 34.9 60.5003 34.8C60.4003 34.6 60.4003 34.4 60.6003 34.3C60.9003 34.1 61.0003 33.6 60.8003 33.2C60.7003 33 60.8003 32.8 60.9003 32.7C61.1003 32.6 61.3003 32.7 61.4003 32.8C61.7003 33.5 61.6003 34.3 61.0003 34.8C60.9003 34.9 60.8003 34.9 60.8003 34.9Z" fill="#2F2947"/>
<path d="M49.9999 40.2C49.5999 40.2 49.2999 40 49.1999 39.6C48.1999 36.6 46.3999 33.9 43.9999 31.8C43.5999 31.5 43.5999 30.9 43.8999 30.6C44.1999 30.2 44.7999 30.2 45.0999 30.5C47.6999 32.8 49.6999 35.8 50.7999 39.1C50.9999 39.6 50.6999 40.1 50.2999 40.2C50.1999 40.2 50.0999 40.2 49.9999 40.2Z" fill="#2F2947"/>
<path d="M58.4003 44.9C58.1003 44.9 57.9003 44.7 57.9003 44.4C57.9003 43.8 57.6003 43.2 56.9003 42.5C55.2003 40.8 52.7003 39.9 50.3003 40C50.0003 40 49.8003 39.8 49.8003 39.5C49.8003 39.2 50.0003 39 50.3003 39C53.0003 38.9 55.7003 39.9 57.6003 41.8C58.5003 42.7 59.0003 43.6 58.9003 44.4C58.9003 44.7 58.6003 44.9 58.4003 44.9Z" fill="#2F2947"/>
<path d="M57.0003 44.7C56.9003 44.7 56.9003 44.7 56.8003 44.6C56.6003 44.5 56.5003 44.2 56.6003 43.9C56.9003 43.3 56.9003 42.7 56.7003 42.1C56.6003 41.8 56.7003 41.6 57.0003 41.5C57.3003 41.4 57.5003 41.5 57.6003 41.8C57.9003 42.6 57.9003 43.6 57.5003 44.4C57.3003 44.6 57.2003 44.7 57.0003 44.7Z" fill="#2F2947"/>
<path d="M27.4999 53.1C27.0999 53.1 26.7999 52.9 26.6999 52.5C26.4999 52 26.7999 51.5 27.1999 51.4C28.6999 50.9 29.9999 49.7 30.9999 48.1C31.7999 46.8 32.3999 45.1 32.6999 43C32.7999 42.5 33.1999 42.2 33.6999 42.3C34.1999 42.4 34.4999 42.8 34.3999 43.3C33.9999 45.7 33.3999 47.5 32.3999 49C31.1999 51 29.4999 52.4 27.6999 53.1C27.6999 53.1 27.5999 53.1 27.4999 53.1Z" fill="#2F2947"/>
<path d="M20.4001 59.5C18.6001 59.5 16.8001 58.9 15.4001 57.8C15.2001 57.6 15.2001 57.3 15.3001 57.1C15.5001 56.9 15.8001 56.9 16.0001 57C17.9001 58.5 20.6001 58.9 22.8001 58.1C25.1001 57.2 26.8001 55.1 27.2001 52.8C27.2001 52.5 27.5001 52.4 27.8001 52.4C28.1001 52.4 28.2001 52.7 28.2001 53C27.7001 55.7 25.8001 58.1 23.2001 59.1C22.2001 59.4 21.3001 59.5 20.4001 59.5Z" fill="#2F2947"/>
<path d="M15.8001 57.9C15.7001 57.9 15.7001 57.9 15.6001 57.8C15.1001 57.5 14.9001 56.9 15.0001 56.3C15.1001 55.7 15.6001 55.3 16.1001 55.2C16.3001 55.2 16.5001 55.3 16.6001 55.5C16.6001 55.7 16.5001 55.9 16.3001 56C16.0001 56 15.8001 56.3 15.8001 56.5C15.8001 56.7 15.9001 57 16.1001 57.2C16.3001 57.3 16.3001 57.6 16.2001 57.7C16.0001 57.9 15.9001 57.9 15.8001 57.9Z" fill="#2F2947"/>
<path d="M16.5002 58.4C16.4002 58.4 16.3002 58.3 16.2002 58.2C16.0002 58 15.9002 57.6 16.0002 57.2C16.1002 56.8 16.3002 56.5 16.7002 56.3C16.9002 56.2 17.1002 56.3 17.2002 56.5C17.3002 56.7 17.2002 56.9 17.0002 57C16.9002 57.1 16.8002 57.2 16.7002 57.4C16.7002 57.6 16.7002 57.7 16.8002 57.9C16.9002 58.1 16.9002 58.3 16.7002 58.4C16.7002 58.4 16.6002 58.4 16.5002 58.4Z" fill="#2F2947"/>
<path d="M13.9 37.4C13.7 37.4 13.6 37.4 13.4 37.3C13 37 12.9 36.5 13.1 36.1C15.9 31.6 21 28.6 26.4 28.3C26.9 28.3 27.3 28.7 27.3 29.1C27.3 29.6 26.9 30 26.5 30C21.7 30.2 17.2 32.9 14.6 36.9C14.5 37.3 14.2 37.4 13.9 37.4Z" fill="#2F2947"/>
<path d="M6.3999 46.2C5.7999 46.2 5.2999 46.1 4.7999 45.9C4.4999 45.8 4.3999 45.5 4.4999 45.3C4.5999 45 4.8999 44.9 5.0999 45C6.3999 45.5 7.9999 45.2 9.2999 44.2C10.2999 43.4 11.1999 42.2 12.0999 40.4C12.3999 39.8 12.5999 39.3 12.7999 38.7C13.1999 37.8 13.5999 36.8 14.0999 35.8C14.1999 35.6 14.4999 35.5 14.7999 35.6C14.9999 35.7 15.0999 36 14.9999 36.3C14.4999 37.2 14.0999 38.1 13.6999 39.1C13.4999 39.7 13.1999 40.3 12.8999 40.9C12.2999 42.1 11.3999 43.9 9.8999 45.1C8.7999 45.7 7.5999 46.2 6.3999 46.2Z" fill="#2F2947"/>
<path d="M5.20013 45.9C4.60013 45.8 4.10013 45.5 3.90013 45C3.70013 44.5 3.70013 43.9 4.00013 43.4C4.20013 43.2 4.50013 43.1 4.70013 43.3C5.00013 43.4 5.00013 43.7 4.90013 44C4.80013 44.2 4.80013 44.4 4.80013 44.6C4.90013 44.8 5.10013 44.9 5.30013 45C5.60013 45 5.80013 45.3 5.70013 45.5C5.70013 45.7 5.50013 45.9 5.20013 45.9Z" fill="#2F2947"/>
<path d="M5.8 46C5.7 46 5.7 46 5.6 46C5.3 45.8 5 45.5 5 45.1C5 44.7 5.2 44.3 5.5 44.1C5.7 44 6 44 6.2 44.3C6.3 44.5 6.3 44.8 6 45C6 45 6 45 6 45.1C6 45.2 6 45.2 6 45.2C6.2 45.3 6.4 45.6 6.2 45.8C6.2 45.9 6 46 5.8 46Z" fill="#2F2947"/>
<path d="M41.2002 17.1C41.2002 18 41.9002 18.7 42.8002 18.7C43.7002 18.7 44.4002 18 44.4002 17.1C44.4002 16.2 43.7002 15.5 42.8002 15.5C41.9002 15.6 41.2002 16.3 41.2002 17.1Z" fill="#DBD94D"/>
<path d="M43.6999 17.1C43.6999 16.6 43.2999 16.2 42.7999 16.2C42.2999 16.2 41.8999 16.6 41.8999 17.1C41.8999 17.6 42.2999 18 42.7999 18C43.2999 18 43.6999 17.6 43.6999 17.1Z" fill="black"/>
<path d="M43 16.4C43 16.1 42.8 15.9 42.5 15.9C42.2 15.9 42 16.1 42 16.4C42 16.7 42.2 16.9 42.5 16.9C42.8 16.8 43 16.6 43 16.4Z" fill="white"/>
<path d="M45.5003 18.7C45.3003 18.7 45.1003 18.5 45.1003 18.3C45.2003 15.2 43.6003 12.1 41.0003 10.2L40.8003 10L40.9003 9.7C42.2003 7.1 42.7003 4.1 42.3003 1.2C42.3003 1 42.4003 0.800003 42.6003 0.800003C42.8003 0.900003 43.0003 1 43.0003 1.2C43.4003 4.1 42.9003 7.1 41.7003 9.8C44.3003 11.8 45.9003 15.1 45.8003 18.3C45.9003 18.5 45.7003 18.7 45.5003 18.7Z" fill="#1A1A2B"/>
<path d="M42.4002 11.2C42.3002 11.2 42.3002 11.2 42.2002 11.2C42.0002 11.1 41.9002 10.9 42.1002 10.7C43.3002 8.7 43.9002 6.6 43.9002 4.4C43.8002 4.1 44.0002 4 44.2002 4C44.4002 4 44.6002 4.2 44.6002 4.4C44.6002 6.7 43.9002 9 42.7002 11.1C42.6002 11.2 42.5002 11.2 42.4002 11.2Z" fill="#1A1A2B"/>
<path d="M43.3999 12.4C43.2999 12.4 43.1999 12.4 43.1999 12.3C42.9999 12.2 42.9999 11.9 43.0999 11.8C44.3999 10.2 45.2999 8.3 45.5999 6.3C45.5999 6.1 45.7999 6 45.9999 6C46.1999 6 46.3999 6.2 46.2999 6.4C45.9999 8.5 45.0999 10.6 43.6999 12.3C43.5999 12.3 43.4999 12.4 43.3999 12.4Z" fill="#1A1A2B"/>
<path d="M44.1001 13.5C44.0001 13.5 43.9001 13.5 43.8001 13.4C43.7001 13.2 43.7001 13 43.8001 12.9C44.9001 12 45.7001 10.7 46.0001 9.40001C46.0001 9.20001 46.3001 9.10001 46.5001 9.10001C46.7001 9.10001 46.8001 9.30001 46.8001 9.50001C46.4001 11 45.5001 12.4 44.3001 13.4C44.3001 13.4 44.2001 13.5 44.1001 13.5Z" fill="#1A1A2B"/>
<path d="M62.9001 30.4C59.9001 29.7 57.0001 29.4 54.0001 29.6H53.7001L53.6001 29.3C52.7001 26.9 50.9001 24.7 48.6001 23.5C48.4001 23.4 48.3001 23.2 48.4001 23C48.5001 22.8 48.7001 22.7 48.9001 22.8C51.2001 24.1 53.1001 26.3 54.1001 28.7C57.0001 28.5 60.0001 28.8 62.8001 29.5C63.0001 29.6 63.1001 29.8 63.1001 30C63.3001 30.2 63.1001 30.4 62.9001 30.4Z" fill="#1A1A2B"/>
<path d="M53.5003 28.4C53.3003 28.4 53.2003 28.3 53.1003 28.2C53.0003 28 53.1003 27.8 53.3003 27.7C55.6003 26.8 58.1003 26.6 60.8003 27.2C61.0003 27.2 61.1003 27.5 61.1003 27.7C61.1003 27.9 60.8003 28 60.6003 28C58.1003 27.4 55.7003 27.6 53.6003 28.4C53.6003 28.4 53.6003 28.4 53.5003 28.4Z" fill="#1A1A2B"/>
<path d="M52.8999 27.2C52.7999 27.2 52.6999 27.1 52.5999 27C52.4999 26.8 52.4999 26.6 52.6999 26.5C54.6999 25.1 57.2999 24.6 59.5999 25.1C59.7999 25.1 59.8999 25.4 59.8999 25.6C59.8999 25.8 59.5999 25.9 59.3999 25.9C57.2999 25.4 54.8999 25.9 53.0999 27.2C53.0999 27.2 52.9999 27.2 52.8999 27.2Z" fill="#1A1A2B"/>
<path d="M52.3003 26.2C52.2003 26.2 52.1003 26.2 52.0003 26.1C51.9003 25.9 51.9003 25.7 52.0003 25.5C53.5003 24.2 55.5003 23.5 57.3003 23.6C57.5003 23.6 57.7003 23.8 57.7003 24C57.7003 24.2 57.5003 24.4 57.3003 24.4C55.8003 24.3 53.9003 25 52.6003 26.1C52.5003 26.1 52.4003 26.2 52.3003 26.2Z" fill="#1A1A2B"/>
<path d="M44.7001 16.9C41.9001 16.9 39.6001 18.8 39.6001 21.2C39.6001 23.6 41.9001 25.5 44.7001 25.5C47.5001 25.5 48.9001 23.6 48.9001 21.2C49.0001 18.8 47.5001 16.9 44.7001 16.9Z" fill="#2F2947"/>
<path d="M46.5 23C46.5 23.9 47.2 24.6 48.1 24.6C49 24.6 49.7 23.9 49.7 23C49.7 22.1 49 21.4 48.1 21.4C47.2 21.4 46.5 22.1 46.5 23Z" fill="#DBD94D"/>
<path d="M49.0002 23C49.0002 22.5 48.6002 22.1 48.1002 22.1C47.6002 22.1 47.2002 22.5 47.2002 23C47.2002 23.5 47.6002 23.9 48.1002 23.9C48.6002 23.9 49.0002 23.5 49.0002 23Z" fill="black"/>
<path d="M48.3003 22.2C48.3003 21.9 48.1003 21.7 47.8003 21.7C47.5003 21.7 47.3003 21.9 47.3003 22.2C47.3003 22.5 47.5003 22.7 47.8003 22.7C48.1003 22.7 48.3003 22.5 48.3003 22.2Z" fill="white"/>
<path d="M45.8999 25.4C45.8999 21.5 42.7999 18.4 38.8999 18.4C34.9999 18.4 31.8999 21.5 31.8999 25.4C31.8999 29.3 34.9999 32.4 38.8999 32.4C42.6999 32.4 45.8999 29.2 45.8999 25.4Z" fill="#1A1A2B"/>
<path d="M35.3 23.8C35.3 23.8 13.6 21.5 16.1 47.8C16.1 47.8 47.5 56.9 41.9 26.8L35.3 23.8Z" fill="#265A90"/>
<path d="M35.9002 32.9C35.8002 32.8 35.6002 32.7 35.5002 32.5C35.5002 32.6 35.6002 32.7 35.6002 32.7C31.8002 32.1 28.6002 29.5 27.2002 25.9C27.6002 30.1 31.8002 33.5 35.9002 32.9Z" fill="#4375A3"/>
<path d="M25.4002 34.2C26.4002 37.2 29.6002 39.2 32.7002 38.7C29.5002 38.5 26.8002 36.4 25.9002 33.3C23.4002 33.8 21.0002 31.7 21.0002 29.2C20.4002 31.8 22.8002 34.3 25.4002 34.2Z" fill="#4375A3"/>
<path d="M23.5002 38.8C20.6002 39.7 18.7002 36.7 18.3002 34.2C18.0002 36.9 20.0002 40.1 23.0002 39.7C24.4002 44 28.7002 46.4 33.2002 46.2C28.7002 45.8 24.8002 43.2 23.5002 38.8Z" fill="#4375A3"/>
<path d="M20.7999 44.6C18.7999 44.3 17.1999 42.9 16.3999 41C16.4999 43.1 18.1999 44.8 20.1999 45.3C20.7999 47 22.6999 48.2 24.4999 47.8C22.7999 47.5 21.1999 46.2 20.7999 44.6Z" fill="#4375A3"/>
<path d="M6.50008 15.1C5.60008 15.2 4.80008 15.4 3.90008 15.5C3.20008 15.7 2.50008 15.8 1.80008 16.2C1.20008 16.6 0.700082 17.2 0.600082 17.9C0.500082 18.8 1.00008 19.6 1.80008 20.1C3.90008 21.6 6.90008 21.3 8.20008 24C8.60008 24.8 8.80008 25.9 9.60008 26.4C10.8001 27.1 12.3001 26.2 13.7001 26.1C15.5001 25.9 17.0001 27.1 18.6001 27.9C24.5001 31 29.5001 27.5 34.6001 24.4V22.5C34.6001 22 31.9001 20.6 31.4001 20.3C30.2001 19.6 29.0001 18.9 27.8001 18.4C25.4001 17.3 22.9001 16.4 20.3001 15.8C15.8001 14.8 11.1001 14.5 6.50008 15.1Z" fill="#BCE3E7"/>
<path d="M38.3002 26L35.9002 25C35.9002 25 33.0002 30.7 31.7002 33.6C30.4002 36.5 29.7002 39.9 30.9002 42.9C31.4002 44.3 32.4002 45.6 32.1002 47.1C31.9002 48.4 30.8002 49.5 31.0002 50.8C31.2002 52.4 33.1002 53.2 34.0002 54.6C35.5002 56.8 34.0002 60.1 36.1002 62.1C36.9002 62.9 38.2002 63.1 39.3002 62.9C42.3002 62.3 43.6002 59.3 44.4002 56.6C47.3002 46.2 45.7002 34 38.3002 26Z" fill="#BCE3E7"/>
<path d="M35.6999 23.7C35.6999 23.7 26.0999 45 45.4999 54.4C54.3999 44.2 48.8999 25 35.6999 23.7Z" fill="#6D2D38"/>
<path d="M36.7002 26.1C36.6002 28.6 36.6002 31.2 37.0002 33.7C37.3002 36.2 37.9002 38.6 38.6002 41C39.4002 43.4 40.4002 45.6 41.5002 47.8C42.7002 50 44.1002 52 45.7002 53.9C43.8002 52.3 42.2002 50.3 40.9002 48.2C39.5002 46.1 38.5002 43.7 37.7002 41.3C36.9002 38.9 36.4002 36.3 36.2002 33.8C36.0002 31.1 36.2002 28.5 36.7002 26.1Z" fill="#873E4F"/>
<path d="M37.8003 25.3C38.7003 27.4 39.4003 29.6 40.2003 31.7C40.9003 33.9 41.6003 36 42.3003 38.2C43.0003 40.4 43.6003 42.6 44.2003 44.8C44.8003 47 45.4003 49.2 45.8003 51.5C44.9003 49.4 44.1003 47.2 43.4003 45.1C42.7003 42.9 42.0003 40.8 41.3003 38.6C40.6003 36.4 40.0003 34.2 39.4003 32C38.8003 29.8 38.3003 27.6 37.8003 25.3Z" fill="#873E4F"/>
<path d="M39.2002 26.1C40.9002 27.3 42.3002 28.9 43.5002 30.7C44.7002 32.5 45.6002 34.4 46.3002 36.5C47.0002 38.5 47.5002 40.7 47.7002 42.8C48.0002 44.9 48.0002 47.1 47.9002 49.2C47.8002 48.7 47.8002 48.1 47.7002 47.6C47.6002 47.1 47.6002 46.5 47.5002 46C47.3002 44.9 47.2002 43.9 47.0002 42.9C46.6002 40.8 46.1002 38.8 45.4002 36.8C44.7002 34.8 43.9002 32.9 42.9002 31.1C41.8002 29.3 40.6002 27.6 39.2002 26.1Z" fill="#873E4F"/>
<path d="M35.8 25.2C35.8 25.2 18.2 27.7 10 10.1C19.7 6.1 40.3 9.4 35.8 25.2Z" fill="#6D2D38"/>
<path d="M11.3003 10.6C12.7003 12.3 14.3003 13.8 15.9003 15.2C17.6003 16.6 19.3003 17.8 21.2003 18.9C23.1003 20 25.1003 20.9 27.1003 21.6C29.2003 22.3 31.3003 22.9 33.5003 23.3C31.3003 23.3 29.0003 23 26.8003 22.4C24.6003 21.8 22.5003 20.9 20.6003 19.8C18.7003 18.7 16.8003 17.4 15.3003 15.8C13.8003 14.2 12.4003 12.5 11.3003 10.6Z" fill="#873E4F"/>
<path d="M13.8003 9.8C15.6003 10.5 17.4003 11.4 19.1003 12.2C20.8003 13.1 22.6003 14 24.2003 15C25.9003 16 27.5003 17 29.1003 18.1C30.7003 19.2 32.3003 20.3 33.8003 21.6C32.0003 20.7 30.3003 19.8 28.6003 18.8C27.0003 18 25.4003 17 23.7003 16C22.0003 15 20.4003 14 18.7003 13C17.0003 12 15.4003 11 13.8003 9.8Z" fill="#873E4F"/>
<path d="M18.5 9.2C20.2 9.1 21.9 9.4 23.6 9.8C25.2 10.3 26.8 10.9 28.3 11.8C29.8 12.7 31.1 13.7 32.3 15C33.4 16.2 34.4 17.6 35.1 19.1C34 17.8 32.9 16.7 31.7 15.6C30.5 14.5 29.2 13.6 27.8 12.8C26.4 12 24.9 11.3 23.4 10.7C21.8 10 20.2 9.5 18.5 9.2Z" fill="#873E4F"/>
</svg>
