<svg width="64" height="64" viewBox="0 0 64 64" fill="none" xmlns="http://www.w3.org/2000/svg">
<g clip-path="url(#clip0_181_10643)">
<path d="M58.7003 43.5H4.30029V61.6H58.7003V43.5Z" fill="#B3DFDC"/>
<path d="M58.7003 57H4.30029V61.7H58.7003V57Z" fill="#86CFCD"/>
<path d="M58.7001 43.5H4.30012C1.50012 43.5 1.70012 49.8 5.40012 49.8C10.0001 49.8 10.1001 47.3 13.4001 47.9C16.4001 48.5 15.4001 52.2 18.1001 52.5C20.4001 52.8 21.0001 49.7 24.1001 49.9C27.3001 50.1 27.3001 53 30.9001 53.8C37.7001 55.4 39.7001 49.1 44.8001 48.6C49.5001 48.2 50.7001 50.8 55.0001 50.8C62.6001 51.1 61.4001 43.5 58.7001 43.5Z" fill="#EB9CC3"/>
<path d="M31.7002 17.8C31.7002 17.8 32.6002 20.2 31.2002 21.2C30.0002 22.1 28.7002 21.5 27.6002 22.6C26.4002 23.7 26.9002 25.2 26.9002 25.2H37.2002C38.3002 19.9 31.7002 17.8 31.7002 17.8Z" fill="#FAD6E5"/>
<path d="M23.9003 47.5C24.5078 47.5 25.0003 47.0075 25.0003 46.4C25.0003 45.7925 24.5078 45.3 23.9003 45.3C23.2928 45.3 22.8003 45.7925 22.8003 46.4C22.8003 47.0075 23.2928 47.5 23.9003 47.5Z" fill="#FCDB51"/>
<path d="M14.9999 46.3C15.3313 46.3 15.5999 46.0314 15.5999 45.7C15.5999 45.3686 15.3313 45.1 14.9999 45.1C14.6685 45.1 14.3999 45.3686 14.3999 45.7C14.3999 46.0314 14.6685 46.3 14.9999 46.3Z" fill="#EE5B69"/>
<path d="M31.9999 51.3C32.6074 51.3 33.0999 50.8075 33.0999 50.2C33.0999 49.5925 32.6074 49.1 31.9999 49.1C31.3924 49.1 30.8999 49.5925 30.8999 50.2C30.8999 50.8075 31.3924 51.3 31.9999 51.3Z" fill="#B3DFDC"/>
<path d="M39.4999 47.7C39.8313 47.7 40.0999 47.4314 40.0999 47.1C40.0999 46.7686 39.8313 46.5 39.4999 46.5C39.1685 46.5 38.8999 46.7686 38.8999 47.1C38.8999 47.4314 39.1685 47.7 39.4999 47.7Z" fill="#EE5B69"/>
<path d="M57.4003 46.3C57.7317 46.3 58.0003 46.0314 58.0003 45.7C58.0003 45.3686 57.7317 45.1 57.4003 45.1C57.0689 45.1 56.8003 45.3686 56.8003 45.7C56.8003 46.0314 57.0689 46.3 57.4003 46.3Z" fill="#EE5B69"/>
<path d="M53.7001 48.8C54.3076 48.8 54.8001 48.3075 54.8001 47.7C54.8001 47.0925 54.3076 46.6 53.7001 46.6C53.0926 46.6 52.6001 47.0925 52.6001 47.7C52.6001 48.3075 53.0926 48.8 53.7001 48.8Z" fill="#B3DFDC"/>
<path d="M29.1 46.9C29.4314 46.9 29.7 46.6314 29.7 46.3C29.7 45.9686 29.4314 45.7 29.1 45.7C28.7686 45.7 28.5 45.9686 28.5 46.3C28.5 46.6314 28.7686 46.9 29.1 46.9Z" fill="#EE5B69"/>
<path d="M47.4003 46.3C47.7317 46.3 48.0003 46.0314 48.0003 45.7C48.0003 45.3686 47.7317 45.1 47.4003 45.1C47.0689 45.1 46.8003 45.3686 46.8003 45.7C46.8003 46.0314 47.0689 46.3 47.4003 46.3Z" fill="white"/>
<path d="M34.6 46.7C34.9314 46.7 35.2 46.4314 35.2 46.1C35.2 45.7686 34.9314 45.5 34.6 45.5C34.2686 45.5 34 45.7686 34 46.1C34 46.4314 34.2686 46.7 34.6 46.7Z" fill="#FCDB51"/>
<path d="M6.2001 47.2C6.53147 47.2 6.8001 46.9314 6.8001 46.6C6.8001 46.2686 6.53147 46 6.2001 46C5.86873 46 5.6001 46.2686 5.6001 46.6C5.6001 46.9314 5.86873 47.2 6.2001 47.2Z" fill="#FCDB51"/>
<path d="M18.7001 49.7C19.0315 49.7 19.3001 49.4314 19.3001 49.1C19.3001 48.7686 19.0315 48.5 18.7001 48.5C18.3687 48.5 18.1001 48.7686 18.1001 49.1C18.1001 49.4314 18.3687 49.7 18.7001 49.7Z" fill="white"/>
<path d="M54.0999 25.2H9.8999V43.5H54.0999V25.2Z" fill="#B3DFDC"/>
<path d="M54.0999 38.8H9.8999V43.5H54.0999V38.8Z" fill="#86CFCD"/>
<path d="M9.90025 25.2H54.1003C56.4003 25.2 56.6003 31.1 52.8003 31.5C49.6003 31.9 48.7003 29.3 46.5003 29.6C43.9003 30 45.2003 33.9 42.9003 34.2C41.0003 34.5 40.5003 31.4 37.9003 31.6C35.2003 31.8 35.3003 34.7 32.2003 35.5C26.5003 37.1 24.9003 30.8 20.6003 30.3C16.7003 29.9 15.7003 32.5 12.1003 32.5C5.90026 32.8 7.30025 25.2 9.90025 25.2Z" fill="#EB9CC3"/>
<path d="M52.2001 29.3C52.8076 29.3 53.3001 28.8075 53.3001 28.2C53.3001 27.5925 52.8076 27.1 52.2001 27.1C51.5926 27.1 51.1001 27.5925 51.1001 28.2C51.1001 28.8075 51.5926 29.3 52.2001 29.3Z" fill="#FCDB51"/>
<path d="M10.9999 30.3C11.3313 30.3 11.5999 30.0314 11.5999 29.7C11.5999 29.3686 11.3313 29.1 10.9999 29.1C10.6685 29.1 10.3999 29.3686 10.3999 29.7C10.3999 30.0314 10.6685 30.3 10.9999 30.3Z" fill="#EE5B69"/>
<path d="M29.9003 32.8C30.5078 32.8 31.0003 32.3075 31.0003 31.7C31.0003 31.0925 30.5078 30.6 29.9003 30.6C29.2928 30.6 28.8003 31.0925 28.8003 31.7C28.8003 32.3075 29.2928 32.8 29.9003 32.8Z" fill="#B3DFDC"/>
<path d="M41.3002 29.8C41.6316 29.8 41.9002 29.5314 41.9002 29.2C41.9002 28.8686 41.6316 28.6 41.3002 28.6C40.9688 28.6 40.7002 28.8686 40.7002 29.2C40.7002 29.5314 40.9688 29.8 41.3002 29.8Z" fill="#EE5B69"/>
<path d="M14.4003 29.4C15.0078 29.4 15.5003 28.9075 15.5003 28.3C15.5003 27.6925 15.0078 27.2 14.4003 27.2C13.7928 27.2 13.3003 27.6925 13.3003 28.3C13.3003 28.9075 13.7928 29.4 14.4003 29.4Z" fill="#B3DFDC"/>
<path d="M26.4999 29C26.8313 29 27.0999 28.7314 27.0999 28.4C27.0999 28.0686 26.8313 27.8 26.4999 27.8C26.1685 27.8 25.8999 28.0686 25.8999 28.4C25.8999 28.7314 26.1685 29 26.4999 29Z" fill="#EE5B69"/>
<path d="M48.9999 28.1C49.3313 28.1 49.5999 27.8314 49.5999 27.5C49.5999 27.1686 49.3313 26.9 48.9999 26.9C48.6685 26.9 48.3999 27.1686 48.3999 27.5C48.3999 27.8314 48.6685 28.1 48.9999 28.1Z" fill="white"/>
<path d="M32.9999 30.3C33.3313 30.3 33.5999 30.0314 33.5999 29.7C33.5999 29.3686 33.3313 29.1 32.9999 29.1C32.6685 29.1 32.3999 29.3686 32.3999 29.7C32.3999 30.0314 32.6685 30.3 32.9999 30.3Z" fill="#FCDB51"/>
<path d="M20.2001 28.9C20.5315 28.9 20.8001 28.6314 20.8001 28.3C20.8001 27.9686 20.5315 27.7 20.2001 27.7C19.8687 27.7 19.6001 27.9686 19.6001 28.3C19.6001 28.6314 19.8687 28.9 20.2001 28.9Z" fill="white"/>
<path d="M45.7002 17.8C45.7002 17.8 46.6002 20.2 45.2002 21.2C44.0002 22.1 42.7002 21.5 41.6002 22.6C40.4002 23.7 40.9002 25.2 40.9002 25.2H51.2002C52.3002 19.9 45.7002 17.8 45.7002 17.8Z" fill="#FAD6E5"/>
<path d="M17.6001 17.8C17.6001 17.8 18.5001 20.2 17.1001 21.2C15.9001 22.1 14.6001 21.5 13.5001 22.6C12.3001 23.7 12.8001 25.2 12.8001 25.2H23.1001C24.2001 19.9 17.6001 17.8 17.6001 17.8Z" fill="#FAD6E5"/>
<path d="M40.9999 23.5L39.6999 22.2L38.3999 20.9C39.9999 19.2 41.9999 19.9 41.9999 19.9C41.9999 19.9 42.5999 21.8 40.9999 23.5Z" fill="#359348"/>
<path d="M39.7002 22.1L38.2002 20.6L38.6002 18C38.6002 18 41.2002 19.8 39.7002 22.1Z" fill="#41AB5A"/>
<path d="M43.8002 23.1L41.2002 23.5L39.7002 22C42.0002 20.6 43.8002 23.1 43.8002 23.1Z" fill="#41AB5A"/>
<path d="M40.2 21.5C40.2 21.5 42.8 23.8 41.8 25.6C40.6 27.7 36 28.6 34.7 27.2C33.3 25.9 34 21.3 36.1 20C37.9 19 40.2 21.5 40.2 21.5Z" fill="#DF2C41"/>
<path d="M36.3999 25.4C35.9999 25 36.1999 24.5 36.1999 24.5L37.2999 25.6C37.2999 25.6 36.7999 25.8 36.3999 25.4Z" fill="#F16B63"/>
<path d="M38.3999 25.4C37.9999 25 38.1999 24.5 38.1999 24.5L39.2999 25.6C39.2999 25.6 38.6999 25.8 38.3999 25.4Z" fill="#F16B63"/>
<path d="M36.3999 23.4C35.9999 23 36.1999 22.5 36.1999 22.5L37.2999 23.6C37.2999 23.7 36.7999 23.8 36.3999 23.4Z" fill="#F16B63"/>
<path d="M38.3999 23.4C37.9999 23 38.1999 22.5 38.1999 22.5L39.2999 23.6C39.2999 23.6 38.6999 23.8 38.3999 23.4Z" fill="#F16B63"/>
<path fill-rule="evenodd" clip-rule="evenodd" d="M60.9 64.2L64 61.6H0L3.1 64.2H60.9Z" fill="#6287C4"/>
</g>
<defs>
<clipPath id="clip0_181_10643">
<rect width="64" height="64" fill="white"/>
</clipPath>
</defs>
</svg>
