<svg width="110" height="68" viewBox="0 0 110 68" fill="none" xmlns="http://www.w3.org/2000/svg">
<path d="M67.3099 19.2021C65.5149 24.2671 76.9199 36.4841 80.4809 37.7531C84.0509 39.0281 83.5499 27.7131 84.0599 21.4641C84.5769 15.0201 85.4499 8.5411 81.8749 7.2591C78.3149 5.9981 69.1179 14.1361 67.3099 19.2021Z" fill="#58767D"/>
<path d="M67.4981 23.3361C65.9341 27.7221 75.8521 38.3311 78.9401 39.4461C82.0231 40.5431 81.5981 30.7281 82.0431 25.2871C82.4911 19.6971 83.2311 14.0721 80.1471 12.9671C77.0411 11.8631 69.0671 18.9231 67.4981 23.3361Z" fill="#EEA85A"/>
<path d="M43.4583 19.2021C45.2583 24.2671 33.8523 36.4841 30.2843 37.7531C26.7213 39.0281 27.2173 27.7131 26.7213 21.4641C26.1853 15.0201 25.3273 8.5411 28.8913 7.2591C32.4543 5.9981 41.6593 14.1361 43.4583 19.2021Z" fill="#58767D"/>
<path d="M43.264 23.3361C44.837 27.7221 34.933 38.3311 31.846 39.4461C28.744 40.5421 29.172 30.7271 28.728 25.2871C28.279 19.6971 27.54 14.0721 30.639 12.9671C33.721 11.8631 41.719 18.9231 43.264 23.3361Z" fill="#EEA85A"/>
<path d="M85.7473 43.3632C85.7473 61.1252 73.3843 69.4232 55.6173 69.4232C37.8483 69.4232 25.4873 61.1242 25.4873 43.3632C25.4873 25.5962 37.8513 13.2332 55.6173 13.2332C73.3813 13.2332 85.7473 25.5982 85.7473 43.3632Z" fill="#7094A6"/>
<path d="M38.6343 17.8721C30.4683 23.0191 25.4873 32.1001 25.4873 43.3631C25.4873 60.2271 36.6433 68.5431 52.9773 69.3451C46.3333 62.3551 34.9373 47.3491 38.6343 17.8751" fill="#5E7D89"/>
<path d="M71.53 37.4211C71.53 42.9061 68.558 47.3491 64.903 47.3491C61.241 47.3491 58.269 42.9061 58.269 37.4211C58.269 31.9351 61.241 27.4951 64.903 27.4951C68.559 27.4951 71.53 31.9341 71.53 37.4211Z" fill="white"/>
<path d="M69.1902 37.4252C69.1902 40.2992 67.2762 42.6192 64.9122 42.6192C62.5362 42.6192 60.6172 40.2992 60.6172 37.4252C60.6172 34.5472 62.5362 32.2222 64.9122 32.2222C67.2762 32.2222 69.1902 34.5472 69.1902 37.4252Z" fill="#25333A"/>
<path d="M66.15 35.0142C66.15 36.5562 65.59 37.8112 64.903 37.8112C64.199 37.8112 63.637 36.5562 63.637 35.0142C63.637 33.4712 64.199 32.2232 64.903 32.2232C65.591 32.2232 66.15 33.4702 66.15 35.0142ZM52.968 36.9922C52.968 42.4762 49.996 46.9202 46.342 46.9202C42.679 46.9202 39.707 42.4762 39.707 36.9922C39.707 31.5052 42.679 27.0662 46.342 27.0662C49.996 27.0662 52.968 31.5052 52.968 36.9922Z" fill="white"/>
<path d="M50.6238 36.9962C50.6238 39.8712 48.7088 42.1912 46.3448 42.1912C43.9698 42.1912 42.0508 39.8712 42.0508 36.9962C42.0508 34.1182 43.9698 31.7942 46.3448 31.7942C48.7078 31.7942 50.6238 34.1182 50.6238 36.9962Z" fill="#25333A"/>
<path d="M47.5921 34.5862C47.5921 36.1282 47.0321 37.3832 46.3441 37.3832C45.6411 37.3832 45.0791 36.1282 45.0791 34.5862C45.0791 33.0432 45.6411 31.7952 46.3441 31.7952C47.0321 31.7952 47.5921 33.0432 47.5921 34.5862Z" fill="white"/>
<path d="M40.229 54.0392C40.229 48.3382 46.704 48.4472 55.516 48.4472C64.349 48.4472 72.19 48.3382 72.19 54.0392C72.19 59.7362 65.043 64.3492 56.204 64.3492C47.388 64.3492 40.229 59.7372 40.229 54.0392Z" fill="#E7E6E6"/>
<path d="M48.4571 62.8061C48.4571 59.1281 51.5951 59.1991 55.8741 59.1991C60.1371 59.1991 63.9541 59.1291 63.9541 62.8061C63.9541 66.5061 60.4731 69.4991 56.2061 69.4991C51.9311 69.4991 48.4551 66.5061 48.4551 62.8061" fill="#D1D2D3"/>
<path d="M50.3911 50.676C50.3911 48.297 52.4111 48.345 55.1621 48.345C57.9271 48.345 60.3821 48.297 60.3821 50.676C60.3821 53.062 58.1421 54.992 55.3841 54.992C52.6281 54.992 50.3911 53.062 50.3911 50.676Z" fill="#ED2E7C"/>
<path d="M44.5707 53.1462C37.9227 53.1062 31.5407 54.8882 25.6167 57.8302C24.4727 58.3972 25.8947 59.6572 26.8007 59.2092C32.4487 56.4052 38.4617 54.7022 44.7967 54.7392C46.1287 54.7472 45.7407 53.1532 44.5707 53.1462ZM45.2777 55.6262C39.3937 57.6982 33.1227 58.8882 28.1377 62.8692C27.2107 63.6092 28.9287 64.6142 29.6977 64.0012C34.5307 60.1402 40.7477 59.0132 46.4617 57.0042C47.6487 56.5862 46.2077 55.2992 45.2777 55.6262ZM66.1797 53.1462C72.8277 53.1062 79.1997 54.8882 85.1347 57.8302C86.2807 58.3972 84.8557 59.6572 83.9507 59.2092C78.3017 56.4052 72.2867 54.7022 65.9537 54.7392C64.6187 54.7472 65.0097 53.1532 66.1797 53.1462ZM65.4707 55.6262C71.3547 57.6982 77.6257 58.8882 82.6107 62.8692C83.5377 63.6092 81.8177 64.6142 81.0497 64.0012C76.2157 60.1402 69.9997 59.0132 64.2877 57.0042C63.0977 56.5862 64.5407 55.2992 65.4707 55.6262Z" fill="#41555B"/>
</svg>
