<svg width="64" height="64" viewBox="0 0 64 64" fill="none" xmlns="http://www.w3.org/2000/svg">
<g clip-path="url(#clip0_181_10236)">
<path d="M20.7 42.4C20.7 35.4 12.8 30.2 12.8 30.2C5.80003 40.9 14.2 44.8 12.5 56.2L13.8 58.5L17.2 58C19.6 53.6 20.7 46.5 20.7 42.4Z" fill="#1C1D3E"/>
<path d="M12.5002 56.1C12.5002 56.1 12.4002 56.5 12.4002 56.6C11.7002 60.6 9.6002 59.6 9.2002 62H13.8002C13.8002 62 15.6002 60.6 16.9002 58.4C17.0002 58.2 17.1002 58.1 17.2002 57.9C17.2002 57.9 16.0002 56.9 14.5002 56.5C13.4002 56.2 12.5002 56.1 12.5002 56.1Z" fill="#DEDEEE"/>
<path d="M43.0002 37.5C43.0002 37.5 23.8002 31.2 23.8002 22.1L10.6002 21.9C0.300209 30 1.20021 46.3 21.7002 47.7C22.0002 51.6 24.1002 59.2 36.4002 59.2L43.0002 37.5Z" fill="#DEDEEE"/>
<path d="M40.8999 27.2C30.6999 23.2 25.9999 30.8 24.0999 22.1L23.6999 23C23.3999 30.6 19.8999 30.3 19.3999 37.1L28.6999 43.1C34.3999 40.4 39.0999 43.9 39.0999 43.9C32.0999 43.4 27.6999 52.7 33.2999 58.3C29.2999 58.9 27.8999 60.2 27.6999 62H48.9999V55.6C52.9999 46.7 52.4999 31.7 40.8999 27.2Z" fill="#38355E"/>
<path d="M25.2998 23.3C25.1998 23.3 25.0998 23.3 24.9998 23.4C22.4998 24.5 19.4998 25.1 16.3998 25.1C13.2998 25.1 10.2998 24.5 7.79982 23.4C7.69982 23.4 7.59982 23.3 7.49982 23.3C6.79982 23.3 6.09982 23.7 6.29982 24.9C6.59982 26.9 11.3998 28.5 16.3998 28.5C21.4998 28.5 26.1998 26.8 26.4998 24.9C26.6998 23.6 25.8998 23.3 25.2998 23.3Z" fill="#0382C2"/>
<path d="M15.4999 32.1C15.4999 33.9 13.9999 35.4 12.1999 35.4C10.3999 35.4 8.8999 33.9 8.8999 32.1C8.8999 30.3 10.3999 28.8 12.1999 28.8C13.9999 28.8 15.4999 30.3 15.4999 32.1Z" fill="#FBB216"/>
<path d="M12.2002 29.9C12.1002 29.9 12.0002 29.9 11.9002 29.8C11.8002 29.7 11.7002 29.6 11.7002 29.5V27.5C11.7002 27.4 11.7002 27.3 11.8002 27.3C11.9002 27.2 12.0002 27.1 12.1002 27.1C12.2002 27.1 12.3002 27.1 12.3002 27.2C12.4002 27.3 12.5002 27.4 12.5002 27.6V29.6C12.5002 29.7 12.4002 29.9 12.3002 29.9C12.4002 29.9 12.3002 29.9 12.2002 29.9Z" fill="#ED7E23"/>
<path d="M13.7002 33C13.7002 33.7 13.0002 34.2 12.2002 34.2C11.4002 34.2 10.7002 33.7 10.7002 33C10.7002 32.3 11.4002 31.8 12.2002 31.8C13.1002 31.8 13.7002 32.3 13.7002 33Z" fill="#ED7E23"/>
<path d="M12.1001 31C12.1001 31.3 11.9001 31.5 11.6001 31.5C11.3001 31.5 11.1001 31.3 11.1001 31C11.1001 30.7 11.3001 30.5 11.6001 30.5C11.9001 30.5 12.1001 30.7 12.1001 31Z" fill="#ED7E23"/>
<path d="M13.2998 31C13.2998 31.3 13.0998 31.5 12.7998 31.5C12.4998 31.5 12.2998 31.3 12.2998 31C12.2998 30.7 12.4998 30.5 12.7998 30.5C13.0998 30.5 13.2998 30.7 13.2998 31Z" fill="#ED7E23"/>
<path d="M14.3998 31.8C14.2998 32 13.9998 32.1 13.7998 32C13.5998 31.9 13.4998 31.6 13.5998 31.4C13.6998 31.2 13.9998 31.1 14.1998 31.2C14.3998 31.3 14.4998 31.6 14.3998 31.8Z" fill="#ED7E23"/>
<path d="M10.0998 31.8C10.1998 32 10.4998 32.1 10.6998 32C10.8998 31.9 10.9998 31.6 10.8998 31.4C10.7998 31.2 10.4998 31.1 10.2998 31.2C10.0998 31.3 9.99978 31.6 10.0998 31.8Z" fill="#ED7E23"/>
<path d="M3.19977 -1.39999C3.19977 -1.39999 10.3998 0.900005 14.1998 7.70001L3.29977 12.4C0.899767 6.00001 3.19977 -1.39999 3.19977 -1.39999Z" fill="#38355E"/>
<path d="M29.2998 -1.39999C29.2998 -1.39999 22.0998 0.900005 18.2998 7.70001L29.1998 12.3C31.6998 6.00001 29.2998 -1.39999 29.2998 -1.39999Z" fill="#38355E"/>
<path d="M4.29979 0.700012C3.89979 2.80001 3.39979 6.60001 4.29979 10.3L11.8998 7.00001C9.59979 3.60001 6.29979 1.70001 4.29979 0.700012Z" fill="#F16D6E"/>
<path d="M28.2001 0.700012C26.2001 1.60001 23.0001 3.60001 20.6001 7.00001L28.3001 10.3C29.2001 6.70001 28.7001 2.90001 28.2001 0.700012Z" fill="#F16D6E"/>
<path d="M32.1 17.1C32.1 15.9 31.8 14.7 31.3 13.5C29.2 8.60001 23.7 4.60001 16.3 4.60001C8.8 4.60001 3.3 8.50001 1.3 13.5C0.8 14.7 0.5 15.9 0.5 17.1L16.3 25.2L32.1 17.1Z" fill="#38355E"/>
<path d="M18.0001 13C16.6001 11.2 16.4001 9.20001 16.4001 9.20001C16.4001 9.20001 16.2001 11.2 14.8001 13C10.7001 18.3 0.600098 17.1 0.600098 17.1C0.600098 22.2 7.7001 26.3 16.4001 26.3C25.1001 26.3 32.2001 22.2 32.2001 17.1C32.1001 17.1 22.1001 18.2 18.0001 13Z" fill="#DEDEEE"/>
<path d="M12.3999 16.9C11.6999 16.6 10.9999 16.4 10.3999 16.3C9.6999 16.1 8.9999 16 8.2999 15.8H7.9999H7.6999C7.4999 15.8 7.2999 15.7 7.1999 15.7C6.7999 15.7 6.4999 15.6 6.0999 15.6C5.3999 15.5 4.6999 15.5 3.8999 15.5C4.5999 15.5 5.2999 15.5 6.0999 15.5C6.4999 15.5 6.7999 15.6 7.1999 15.6C7.3999 15.6 7.5999 15.6 7.6999 15.7H7.9999H8.2999C8.9999 15.8 9.6999 15.9 10.3999 16.1C11.0999 16.3 11.7999 16.4 12.4999 16.7L12.3999 16.9Z" fill="#A8A7C0"/>
<path d="M12.4001 17.6C11.7001 17.5 10.9001 17.5 10.2001 17.5C9.5001 17.5 8.7001 17.6 8.0001 17.6C7.6001 17.6 7.3001 17.7 6.9001 17.7L6.4001 17.8C6.3001 17.8 6.2001 17.8 6.1001 17.8L5.8001 18C5.1001 18.1 4.3001 18.3 3.6001 18.5C4.3001 18.3 5.0001 18 5.7001 17.9L6.0001 17.8C6.1001 17.8 6.2001 17.8 6.3001 17.7L6.8001 17.6C7.2001 17.5 7.5001 17.5 7.9001 17.4C8.6001 17.3 9.4001 17.2 10.1001 17.2C10.8001 17.2 11.6001 17.2 12.3001 17.2L12.4001 17.6Z" fill="#A8A7C0"/>
<path d="M12.8 18.3C12.1 18.4 11.4 18.6 10.8 18.8C10.1 19 9.5 19.2 8.8 19.5C8.1 19.8 7.5 20 6.9 20.3C6.3 20.6 5.6 20.9 5 21.3C5.6 20.9 6.2 20.6 6.8 20.2C7.4 19.9 8.1 19.6 8.7 19.3C9.4 19 10 18.8 10.7 18.5C11.4 18.3 12.1 18.1 12.8 17.9V18.3Z" fill="#A8A7C0"/>
<path d="M20.2001 16.9C20.9001 16.6 21.6001 16.4 22.2001 16.3C22.9001 16.1 23.6001 16 24.3001 15.8H24.6001H24.9001C25.1001 15.8 25.3001 15.7 25.4001 15.7C25.8001 15.7 26.1001 15.6 26.5001 15.6C27.2001 15.5 27.9001 15.5 28.7001 15.5C28.0001 15.5 27.3001 15.5 26.5001 15.5C26.1001 15.5 25.8001 15.6 25.4001 15.6C25.2001 15.6 25.0001 15.6 24.9001 15.7H24.6001H24.3001C23.6001 15.8 22.9001 15.9 22.2001 16.1C21.5001 16.3 20.8001 16.4 20.1001 16.7L20.2001 16.9Z" fill="#A8A7C0"/>
<path d="M20.2002 17.6C20.9002 17.5 21.7002 17.5 22.4002 17.5C23.1002 17.5 23.9002 17.6 24.6002 17.6C25.0002 17.6 25.3002 17.7 25.7002 17.7L26.2002 17.8C26.3002 17.8 26.4002 17.8 26.5002 17.8L26.8002 17.9C27.5002 18 28.3002 18.2 29.0002 18.4C28.3002 18.2 27.6002 18 26.8002 17.8L26.5002 17.7C26.4002 17.7 26.3002 17.7 26.2002 17.6L25.7002 17.5C25.3002 17.4 25.0002 17.4 24.6002 17.3C23.9002 17.2 23.1002 17.1 22.4002 17.1C21.7002 17.1 20.9002 17.1 20.2002 17.1V17.6Z" fill="#A8A7C0"/>
<path d="M19.7998 18.3C20.4998 18.4 21.1998 18.6 21.7998 18.8C22.4998 19 23.0998 19.2 23.7998 19.5C24.4998 19.8 25.0998 20 25.6998 20.3C26.2998 20.6 26.9998 20.9 27.5998 21.3C26.9998 20.9 26.3998 20.6 25.7998 20.2C25.1998 19.9 24.4998 19.6 23.8998 19.3C23.1998 19 22.5998 18.8 21.8998 18.5C21.1998 18.3 20.4998 18.1 19.7998 17.9V18.3Z" fill="#A8A7C0"/>
<path d="M17.5001 15.6C16.8001 15.4 16.3001 15.8 16.3001 15.8C16.3001 15.8 15.8001 15.5 15.1001 15.6L16.3001 16.9L17.5001 15.6Z" fill="#F16D6E"/>
<path d="M6.6001 9.8C6.6001 9.8 11.7001 7 13.1001 12.9C13.1001 12.8 7.4001 15.8 6.6001 9.8Z" fill="#FDBF21"/>
<path d="M11.5 11.5C11.5 12.4 11 13.1 10.3 13.1C9.6 13.1 9 12.4 9 11.5C9 10.6 9.5 9.90001 10.2 9.90001C10.9 9.90001 11.5 10.6 11.5 11.5Z" fill="#08080C"/>
<path d="M9.8001 11.3C9.8001 11.7 9.5001 11.9 9.2001 11.9C8.8001 11.9 8.6001 11.6 8.6001 11.3C8.6001 10.9 8.9001 10.7 9.2001 10.7C9.5001 10.7 9.8001 10.9 9.8001 11.3Z" fill="white"/>
<path d="M26 9.8C26 9.8 20.9 7 19.5 12.9C19.5 12.8 25.3 15.8 26 9.8Z" fill="#FDBF21"/>
<path d="M21.2002 11.5C21.2002 12.4 21.7002 13.1 22.4002 13.1C23.1002 13.1 23.6002 12.4 23.6002 11.5C23.6002 10.6 23.1002 9.90001 22.4002 9.90001C21.7002 9.90001 21.2002 10.6 21.2002 11.5Z" fill="#08080C"/>
<path d="M21.8999 11.3C21.8999 11.6 21.6999 11.8 21.3999 11.8C21.0999 11.8 20.8999 11.6 20.8999 11.3C20.8999 11 21.0999 10.8 21.3999 10.8C21.5999 10.8 21.8999 11 21.8999 11.3Z" fill="white"/>
<path d="M20.0001 16C20.6001 17.4 19.4001 19 18.0001 18.6C17.1001 18.3 16.3001 17 16.3001 17C16.3001 17 15.5001 18.3 14.6001 18.6C13.2001 19 12.0001 17.5 12.6001 16C11.4001 18 13.0001 19.5 14.5001 19.3C15.4001 19.2 16.2001 18.1 16.2001 18.1C16.2001 18.1 17.0001 19.2 17.9001 19.3C19.6001 19.5 21.2001 17.9 20.0001 16Z" fill="#08080C"/>
<path d="M57.7001 25.7C57.8001 25.3 58.0001 25 58.1001 24.7V19.9L54.0001 21.5C53.7001 21.9 53.5001 22.3 53.2001 22.7C48.6001 31 59.3001 46.4 55.0001 53.4C53.3001 56.2 48.9001 55.7 48.9001 55.7L45.1001 56.6L48.6001 62C48.6001 62 59.9001 62.8 61.9001 51.8C63.4001 44.4 55.3001 33.4 57.7001 25.7Z" fill="#38355E"/>
<path d="M63.4001 19.5C62.9001 16.6 57.3001 17.2 54.1001 21.4C54.1001 21.4 55.2001 21.3 56.6001 22.4C58.1001 23.7 58.2001 24.6 58.2001 24.6C60.0001 21.4 64.0001 22.4 63.4001 19.5Z" fill="#DEDEEE"/>
<path d="M29.7 42.4C29.7 35.4 21.8 30.2 21.8 30.2C14.8 40.9 23.2 44.8 21.5 56.2L22.8 58.5L26.2 58C28.6 53.6 29.7 46.5 29.7 42.4Z" fill="#38355E"/>
<path d="M21.5002 56.1C21.5002 56.1 21.4002 56.5 21.4002 56.6C20.7002 60.6 18.6002 59.6 18.2002 62H22.8002C22.8002 62 24.6002 60.6 25.9002 58.4C26.0002 58.2 26.1002 58.1 26.2002 57.9C26.2002 57.9 25.0002 56.9 23.5002 56.5C22.5002 56.2 21.5002 56.1 21.5002 56.1Z" fill="#DEDEEE"/>
</g>
<defs>
<clipPath id="clip0_181_10236">
<rect width="64" height="64" fill="white"/>
</clipPath>
</defs>
</svg>
