<svg width="64" height="64" viewBox="0 0 64 64" fill="none" xmlns="http://www.w3.org/2000/svg">
<g clip-path="url(#clip0_181_10217)">
<path d="M54.7999 58.7C53.5999 55.1 49.7999 41.1 49.7999 41.1C51.8999 38.9 53.0999 33.7 49.7999 30.6C47.3999 28.4 44.1999 28.2 42.9999 29.5C40.7999 32.1 45.1999 35.3 43.0999 40.4C43.0999 40.4 48.6999 51.8 53.0999 62H57.5999C57.2999 59.3 55.3999 60.4 54.7999 58.7Z" fill="#BE7642"/>
<path d="M33.1002 58.7H36.1002C39.7002 58.7 41.1002 60.4 41.3002 62H26.2002C26.2002 62 23.2002 57.9 23.2002 51.5C23.6002 34.5 47.7002 41.9 33.1002 58.7Z" fill="#BE7642"/>
<path d="M49.1003 10.8C49.1003 10.8 42.3003 10.8 42.9003 8.8C44.9003 3 54.0003 1.3 54.0003 1.3C54.0003 1.3 52.4003 7.3 49.1003 10.8Z" fill="#2C141A"/>
<path d="M47.1003 8.2C47.1003 8.2 40.9003 11.4 40.7003 9.3C40.1003 3.2 47.8003 -2 47.8003 -2C47.8003 -2 48.7003 3.6 47.1003 8.2Z" fill="#643739"/>
<path d="M47.0999 0.600006C47.0999 0.600006 43.4999 4.20001 43.3999 7.90001C44.1999 7.80001 45.3999 8.00001 46.3999 7.50001C47.3999 4.00001 47.0999 0.600006 47.0999 0.600006Z" fill="#E76776"/>
<path d="M10.5001 40.3C10.5001 40.3 4.80008 41.1 3.80008 47.3C2.60008 45 3.50008 42.5 3.50008 42.5C-0.599921 45 -1.19992 51.8 2.00008 56.2C5.90008 61.4 12.9001 62 19.6001 62L18.0001 58.7C7.90008 56.9 5.80008 46.9 10.5001 40.3Z" fill="#643739"/>
<path d="M38.9999 10.9L33.3999 23.1L44.3999 29.4L48.5999 18.1L52.6999 11.4C52.9999 6 43.4999 4.2 38.9999 10.9Z" fill="#D9975B"/>
<path d="M48.6001 18.2C48.6001 18.2 43.4001 20.8 44.4001 29.5L31.2001 28.2L24.6001 61H29.5001C32.3001 43.8 46.2001 45 50.5001 37.4C53.9001 31.4 46.9001 23.6 48.6001 18.2Z" fill="#FCC383"/>
<path d="M39.9999 20.8C37.3999 15.4 38.9999 10.9 38.9999 10.9C35.4999 15.7 33.3999 23.1 33.3999 23.1C28.6999 21.6 25.9999 24.7 25.9999 24.7C28.1999 24.3 29.5999 25.1 29.6999 25.2C23.9999 25 22.1999 29 22.1999 29C22.1999 29 23.6999 28.2 25.6999 28.2H25.9999C17.1999 36.6 13.4999 49.6 18.8999 60.8L25.9999 46.3C25.9999 46.3 34.5999 46.8 37.3999 40.3L45.9999 36.4C47.9999 28.9 42.1999 25.4 39.9999 20.8Z" fill="#643739"/>
<path d="M26.6001 58.7H29.6001C33.2001 58.7 34.6001 60.4 34.8001 62H19.6001C19.6001 62 16.6001 57.9 16.6001 51.5C17.1001 34.5 41.1001 41.9 26.6001 58.7Z" fill="#D9975B"/>
<path d="M47.6003 58.7C46.4003 55.1 44.2003 41.1 44.2003 41.1C46.3003 38.9 47.5003 33.7 44.2003 30.6C41.8003 28.4 38.6003 28.2 37.4003 29.5C35.2003 32.1 39.6003 35.3 37.5003 40.4C37.5003 40.4 41.6003 51.8 46.0003 62H50.5003C50.1003 59.3 48.2003 60.4 47.6003 58.7Z" fill="#D9975B"/>
<path d="M52.7001 11.4C52.8001 8.9 51.0001 7.3 48.9001 7.3C47.1001 7.3 45.5001 8.5 45.2001 10.2C44.7001 12.8 47.1001 13.9 48.0001 15.2C48.9001 16.5 48.5001 18.1 48.5001 18.1C48.5001 18.1 55.9001 19.4 57.4001 18.8C59.3001 18 60.6001 14.8 60.6001 14.8L52.7001 11.4Z" fill="#643739"/>
<path d="M49.8001 12.6C49.0001 13.1 48.0001 12.9 47.5001 12.1C47.0001 11.3 47.2001 10.3 48.0001 9.8C48.8001 9.3 49.8001 9.5 50.3001 10.3C50.8001 11 50.6001 12.1 49.8001 12.6Z" fill="white"/>
<path d="M50.1001 11C49.9001 10.7 49.5001 10.5 49.2001 10.6C49.3001 10.8 49.2001 11 49.1001 11.1C48.9001 11.4 48.6001 11.4 48.3001 11.3C48.2001 11.6 48.2001 11.9 48.4001 12.2C48.7001 12.7 49.3001 12.8 49.8001 12.5C50.3001 12.2 50.4001 11.5 50.1001 11Z" fill="#08080C"/>
<path d="M58.3999 18.3C57.9999 17.9 57.4999 17.5 56.5999 17.3C54.6999 16.8 53.6999 17.1 52.2999 16.8C51.1999 16.6 50.5999 15.9 50.3999 15.4C50.3999 15.4 50.2999 16.6 52.0999 17.2C53.6999 17.7 56.2999 17.3 57.7999 18.7C57.9999 18.6 58.1999 18.5 58.3999 18.3Z" fill="#08080C"/>
<path d="M46.5 16.9C46.5 17.2 46.3 17.4 46 17.4C45.7 17.4 45.5 17.2 45.5 16.9C45.5 16.6 45.7 16.4 46 16.4C46.3 16.4 46.5 16.6 46.5 16.9Z" fill="#643739"/>
</g>
<defs>
<clipPath id="clip0_181_10217">
<rect width="64" height="64" fill="white"/>
</clipPath>
</defs>
</svg>
