<svg width="64" height="64" viewBox="0 0 64 64" fill="none" xmlns="http://www.w3.org/2000/svg">
<path d="M9.8 13.1L8.9 21.3C8.9 21.7 9.1 22 9.4 22.2L28.5 30.6C28.7 30.7 28.9 30.7 29.1 30.6C29.3 30.5 29.5 30.4 29.6 30.2C29.8 29.8 29.6 29.3 29.2 29.1L10.7 21L11.6 12.9C11.6 12.6 11.5 12.2 11.2 12.1L5.2 8.7C4.8 8.5 4.3 8.6 4.1 9C3.9 9.4 4 10 4.4 10.2L9.8 13.1Z" fill="#084347"/>
<path d="M19.2002 9.7L15.5002 17.1C15.3002 17.4 15.4002 17.8 15.7002 18.1L30.8002 32.5C31.0002 32.7 31.2002 32.7 31.4002 32.7C31.6002 32.7 31.8002 32.6 32.0002 32.4C32.3002 32.1 32.3002 31.5 32.0002 31.2L17.3002 17.3L21.0002 10C21.2002 9.7 21.1002 9.3 20.9002 9.1L14.0002 1.2C13.7002 0.9 13.2002 0.8 12.8002 1.1C12.5002 1.4 12.4002 1.9 12.7002 2.3L19.2002 9.7Z" fill="#084347"/>
<path d="M19.2998 54.3L15.5998 46.9C15.3998 46.6 15.4998 46.2 15.7998 45.9L30.8998 31.5C31.0998 31.3 31.2998 31.3 31.4998 31.3C31.6998 31.3 31.8998 31.4 32.0998 31.6C32.3998 31.9 32.3998 32.5 32.0998 32.8L17.3998 46.7L20.9998 54C21.1998 54.3 21.0998 54.7 20.8998 54.9L14.0998 62.7C13.7998 63 13.2998 63.1 12.8998 62.8C12.5998 62.5 12.4998 62 12.7998 61.6L19.2998 54.3Z" fill="#084347"/>
<path d="M44.7999 54.3L48.4999 46.9C48.6999 46.6 48.5999 46.2 48.2999 45.9L33.1999 31.6C32.9999 31.4 32.7999 31.4 32.5999 31.4C32.3999 31.4 32.1999 31.5 31.9999 31.7C31.6999 32 31.6999 32.6 31.9999 32.9L46.5999 46.8L43.0999 54C42.8999 54.3 42.9999 54.7 43.1999 54.9L49.9999 62.7C50.2999 63 50.7999 63.1 51.1999 62.8C51.4999 62.5 51.5999 62 51.2999 61.6L44.7999 54.3Z" fill="#084347"/>
<path d="M54.2002 13.1L55.1002 21.3C55.1002 21.7 54.9002 22 54.6002 22.2L35.5002 30.6C35.3002 30.7 35.1002 30.7 34.9002 30.6C34.7002 30.5 34.5002 30.4 34.4002 30.2C34.2002 29.8 34.4002 29.3 34.8002 29.1L53.3002 21L52.4002 12.9C52.4002 12.6 52.5002 12.2 52.8002 12.1L58.6002 8.9C59.0002 8.7 59.5002 8.8 59.7002 9.2C59.9002 9.6 59.8002 10.1 59.4002 10.3L54.2002 13.1Z" fill="#084347"/>
<path d="M43.1001 41.7C43.1001 51.5 38.2001 57.4 32.1001 57.4C26.0001 57.4 21.1001 51.5 21.1001 41.7C21.0001 31.9 25.9001 22 32.0001 22C38.1001 22 43.1001 31.9 43.1001 41.7Z" fill="#487200"/>
<path d="M37.5 12.3C37.5 15.3 35 17.8 32 17.8C29 17.8 26.5 15.3 26.5 12.3C26.5 9.3 29 6.8 32 6.8C35.1 6.8 37.5 9.2 37.5 12.3Z" fill="#084347"/>
<path d="M44.7999 9.7L48.4999 17.1C48.6999 17.4 48.5999 17.8 48.2999 18.1L33.1999 32.4C32.9999 32.6 32.7999 32.6 32.5999 32.6C32.3999 32.6 32.1999 32.5 31.9999 32.3C31.6999 32 31.6999 31.4 31.9999 31.1L46.5999 17.2L42.9999 10C42.7999 9.7 42.8999 9.3 43.0999 9.1L49.9999 1.2C50.2999 0.9 50.7999 0.8 51.1999 1.1C51.4999 1.4 51.5999 1.9 51.2999 2.3L44.7999 9.7Z" fill="#084347"/>
<g opacity="0.5">
<mask id="mask0_181_10560" style="mask-type:luminance" maskUnits="userSpaceOnUse" x="33" y="17" width="27" height="36">
<path d="M59.2002 17.2H33.2002V52.2H59.2002V17.2Z" fill="white"/>
</mask>
<g mask="url(#mask0_181_10560)">
<path d="M33.9 17.2C30.5 29.3 41.3 58.7 55 50.9C68.7 43.1 46 20.4 33.9 17.2Z" fill="#4DC1BB"/>
</g>
</g>
<g opacity="0.5">
<mask id="mask1_181_10560" style="mask-type:luminance" maskUnits="userSpaceOnUse" x="4" y="17" width="27" height="36">
<path d="M30.2998 17.2H4.2998V52.2H30.2998V17.2Z" fill="white"/>
</mask>
<g mask="url(#mask1_181_10560)">
<path d="M29.7 17.2C33.1 29.3 22.3 58.7 8.6 51C-5.1 43.2 17.6 20.5 29.7 17.2Z" fill="#4DC1BB"/>
</g>
</g>
<path d="M39.5999 23.1C39.5999 28.4 36.1999 32.7 31.9999 32.7C27.7999 32.7 24.3999 28.4 24.3999 23.1C24.3999 17.8 27.7999 14.1 31.9999 14.1C36.1999 14.1 39.5999 17.8 39.5999 23.1Z" fill="#084347"/>
<path d="M31.0002 10.4C31.0002 12 29.7002 13.3 28.1002 13.3C26.5002 13.3 25.2002 12 25.2002 10.4C25.2002 8.8 26.5002 7.5 28.1002 7.5C29.7002 7.4 31.0002 8.7 31.0002 10.4Z" fill="#E24500"/>
<path d="M38.9001 10.4C38.9001 12 37.6001 13.3 36.0001 13.3C34.4001 13.3 33.1001 12 33.1001 10.4C33.1001 8.8 34.4001 7.5 36.0001 7.5C37.6001 7.5 38.9001 8.7 38.9001 10.4Z" fill="#E24500"/>
<path d="M33.5001 3.7H30.6001C30.3001 3.7 30.1001 3.9 30.1001 4.2C30.1001 4.5 30.3001 4.7 30.6001 4.7H31.5001V9.9C31.5001 10.2 31.7001 10.4 32.0001 10.4C32.3001 10.4 32.5001 10.2 32.5001 9.9V4.7H33.4001C33.7001 4.7 33.9001 4.5 33.9001 4.2C34.0001 4 33.7001 3.7 33.5001 3.7Z" fill="#084347"/>
</svg>
