<svg width="65" height="64" viewBox="0 0 65 64" fill="none" xmlns="http://www.w3.org/2000/svg">
<path d="M10.6535 13.1L9.75352 21.3C9.75352 21.7 9.95352 22 10.2535 22.2L29.3535 30.6C29.5535 30.7 29.7535 30.7 29.9535 30.6C30.1535 30.5 30.3535 30.4 30.4535 30.2C30.6535 29.8 30.4535 29.3 30.0535 29.1L11.5535 21L12.4535 12.9C12.4535 12.6 12.3535 12.2 12.0535 12.1L6.05352 8.69999C5.65352 8.49999 5.15352 8.59999 4.95352 8.99999C4.75352 9.39999 4.85352 9.99999 5.25352 10.2L10.6535 13.1Z" fill="#2D4B89"/>
<path d="M20.0532 9.69999L16.3532 17.1C16.1532 17.4 16.2532 17.8 16.5532 18.1L31.6532 32.5C31.8532 32.7 32.0532 32.7 32.2532 32.7C32.4532 32.7 32.6532 32.6 32.8532 32.4C33.1532 32.1 33.1532 31.5 32.8532 31.2L18.1532 17.3L21.8532 9.99999C22.0532 9.69999 21.9532 9.29999 21.7532 9.09999L14.8532 1.19999C14.5532 0.899993 14.0532 0.799993 13.6532 1.09999C13.3532 1.39999 13.2532 1.89999 13.5532 2.29999L20.0532 9.69999Z" fill="#2D4B89"/>
<path d="M20.1538 54.3L16.4538 46.9C16.2538 46.6 16.3538 46.2 16.6538 45.9L31.7538 31.5C31.9538 31.3 32.1538 31.3 32.3538 31.3C32.5538 31.3 32.7538 31.4 32.9538 31.6C33.2538 31.9 33.2538 32.5 32.9538 32.8L18.2538 46.7L21.8538 54C22.0538 54.3 21.9538 54.7 21.7538 54.9L14.9538 62.7C14.6538 63 14.1538 63.1 13.7538 62.8C13.4538 62.5 13.3538 62 13.6538 61.6L20.1538 54.3Z" fill="#2D4B89"/>
<path d="M45.6539 54.3L49.3539 46.9C49.5539 46.6 49.4539 46.2 49.1539 45.9L34.0539 31.6C33.8539 31.4 33.6539 31.4 33.4539 31.4C33.2539 31.4 33.0539 31.5 32.8539 31.7C32.5539 32 32.5539 32.6 32.8539 32.9L47.4539 46.8L43.9539 54C43.7539 54.3 43.8539 54.7 44.0539 54.9L50.8539 62.7C51.1539 63 51.6539 63.1 52.0539 62.8C52.3539 62.5 52.4539 62 52.1539 61.6L45.6539 54.3Z" fill="#2D4B89"/>
<path d="M55.0533 13.1L55.9533 21.3C55.9533 21.7 55.7533 22 55.4533 22.2L36.3533 30.6C36.1533 30.7 35.9533 30.7 35.7533 30.6C35.5533 30.5 35.3533 30.4 35.2533 30.2C35.0533 29.8 35.2533 29.3 35.6533 29.1L54.1533 21L53.2533 12.9C53.2533 12.6 53.3533 12.2 53.6533 12.1L59.4533 8.89999C59.8533 8.69999 60.3533 8.79999 60.5533 9.19999C60.7533 9.59999 60.6533 10.1 60.2533 10.3L55.0533 13.1Z" fill="#2D4B89"/>
<path d="M43.9536 41.7C43.9536 51.5 39.0536 57.4 32.9537 57.4C26.8537 57.4 21.9537 51.5 21.9537 41.7C21.8537 31.9 26.7537 22 32.8537 22C38.9537 22 43.9536 31.9 43.9536 41.7Z" fill="#486189"/>
<path d="M38.3535 12.3C38.3535 15.3 35.8535 17.8 32.8535 17.8C29.8535 17.8 27.3535 15.3 27.3535 12.3C27.3535 9.29999 29.8535 6.79999 32.8535 6.79999C35.9535 6.79999 38.3535 9.19999 38.3535 12.3Z" fill="#233B89"/>
<path d="M45.6539 9.69999L49.3539 17.1C49.5539 17.4 49.4539 17.8 49.1539 18.1L34.0539 32.4C33.8539 32.6 33.6539 32.6 33.4539 32.6C33.2539 32.6 33.0539 32.5 32.8539 32.3C32.5539 32 32.5539 31.4 32.8539 31.1L47.4539 17.2L43.8539 9.99999C43.6539 9.69999 43.7539 9.29999 43.9539 9.09999L50.8539 1.19999C51.1539 0.899993 51.6539 0.799993 52.0539 1.09999C52.3539 1.39999 52.4539 1.89999 52.1539 2.29999L45.6539 9.69999Z" fill="#2D4B89"/>
<g opacity="0.7">
<mask id="mask0_245_13012" style="mask-type:luminance" maskUnits="userSpaceOnUse" x="34" y="17" width="27" height="36">
<path d="M60.0537 17.2H34.0537V52.2H60.0537V17.2Z" fill="white"/>
</mask>
<g mask="url(#mask0_245_13012)">
<path d="M34.7536 17.2C31.3536 29.3 42.1536 58.7 55.8536 50.9C69.5536 43.1 46.8536 20.4 34.7536 17.2Z" fill="white"/>
</g>
</g>
<g opacity="0.7">
<mask id="mask1_245_13012" style="mask-type:luminance" maskUnits="userSpaceOnUse" x="5" y="17" width="27" height="36">
<path d="M31.1533 17.2H5.15332V52.2H31.1533V17.2Z" fill="white"/>
</mask>
<g mask="url(#mask1_245_13012)">
<path d="M30.5535 17.2C33.9535 29.3 23.1535 58.7 9.45351 51C-4.24649 43.2 18.4535 20.5 30.5535 17.2Z" fill="white"/>
</g>
</g>
<path d="M40.4539 23.1C40.4539 28.4 37.0539 32.7 32.8539 32.7C28.6539 32.7 25.2539 28.4 25.2539 23.1C25.2539 17.8 28.6539 14.1 32.8539 14.1C37.0539 14.1 40.4539 17.8 40.4539 23.1Z" fill="#2D4B89"/>
<path d="M31.8537 10.4C31.8537 12 30.5537 13.3 28.9537 13.3C27.3537 13.3 26.0537 12 26.0537 10.4C26.0537 8.79999 27.3537 7.49999 28.9537 7.49999C30.5537 7.39999 31.8537 8.69999 31.8537 10.4Z" fill="#AB4189"/>
<path d="M39.7531 10.4C39.7531 12 38.4531 13.3 36.8531 13.3C35.2531 13.3 33.9531 12 33.9531 10.4C33.9531 8.8 35.2531 7.5 36.8531 7.5C38.4531 7.5 39.7531 8.7 39.7531 10.4Z" fill="#AB4189"/>
<path d="M34.3531 3.7H31.4531C31.1531 3.7 30.9531 3.9 30.9531 4.2C30.9531 4.5 31.1531 4.7 31.4531 4.7H32.3531V9.9C32.3531 10.2 32.5531 10.4 32.8531 10.4C33.1531 10.4 33.3531 10.2 33.3531 9.9V4.7H34.2531C34.5531 4.7 34.7531 4.5 34.7531 4.2C34.8531 4 34.5531 3.7 34.3531 3.7Z" fill="#233B89"/>
</svg>
