<svg width="64" height="65" viewBox="0 0 64 65" fill="none" xmlns="http://www.w3.org/2000/svg">
<path d="M59.7999 28.9647C58.5998 25.9647 53.9999 27.5647 50.1999 30.4647C47.1999 32.8647 45.2999 36.4647 44.7999 36.6647C45.0998 23.5647 57.8998 13.8647 52.7999 10.8647C49.6999 9.06473 41.7999 17.3647 37.3999 31.8647C38.8999 13.4647 47.3999 6.36473 41.6999 4.06473C37.9999 2.56473 31.3999 13.3647 29.4999 30.5647C24.6999 15.6647 31.3999 8.56473 28.4999 6.66473C24.6999 4.26473 18.5999 12.2647 19.6999 20.6647C20.5999 27.7647 21.2999 32.2647 20.6999 34.7647C20.2999 35.8647 19.7999 36.5647 18.9999 36.6647C14.1999 37.1647 19.3999 28.6647 12.2999 24.4647C6.59985 21.0647 2.39985 26.4647 4.49985 27.7647C11.6999 32.3647 7.49985 38.4647 9.59985 45.9647C11.3999 52.2647 16.3999 57.0647 26.4999 60.3647C35.8999 63.4647 42.2999 59.2647 45.1999 55.2647C47.4999 52.0647 48.2999 48.3647 49.4999 44.4647C52.4999 34.4647 61.1999 32.2647 59.7999 28.9647ZM29.7999 31.3647V31.1647L37.3999 32.0647C37.2999 32.3647 37.1998 32.6647 37.0998 32.9647C34.5998 32.4647 32.0998 31.8647 29.7999 31.3647Z" fill="#EFB9A3"/>
<path d="M21.5 38.6647C23.8 39.8647 26.8 41.6647 27.7 45.5647C28.6 49.3647 25.7 52.9647 25.7 52.9647C28.4 51.3647 30.2 48.6647 29.5 45.2647C28.8 41.3647 24.7 38.6647 21.5 38.6647Z" fill="#D69A85"/>
<path d="M46.5996 38.8647C40.7996 34.1647 32.8996 31.5647 25.0996 31.2647C33.4996 29.4647 41.1996 31.3647 46.5996 38.8647Z" fill="#D69A85"/>
</svg>
