<svg width="64" height="64" viewBox="0 0 64 64" fill="none" xmlns="http://www.w3.org/2000/svg">
<path d="M59.7999 28.2C58.5998 25.2 53.9999 26.8 50.1999 29.7C47.1999 32.1 45.2999 35.7 44.7999 35.9C45.0998 22.8 57.8998 13.1 52.7999 10.1C49.6999 8.3 41.7999 16.6 37.3999 31.1C38.8999 12.7 47.3999 5.6 41.6999 3.3C37.9999 1.8 31.3999 12.6 29.4999 29.8C24.6999 14.9 31.3999 7.8 28.4999 5.9C24.6999 3.5 18.5999 11.5 19.6999 19.9C20.5999 27 21.2999 31.5 20.6999 34C20.2999 35.1 19.7999 35.8 18.9999 35.9C14.1999 36.4 19.3999 27.9 12.2999 23.7C6.59985 20.3 2.39985 25.7 4.49985 27C11.6999 31.6 7.49985 37.7 9.59985 45.2C11.3999 51.5 16.3999 56.3 26.4999 59.6C35.8999 62.7 42.2999 58.5 45.1999 54.5C47.4999 51.3 48.2999 47.6 49.4999 43.7C52.4999 33.7 61.1999 31.5 59.7999 28.2ZM29.7999 30.6V30.4L37.3999 31.3C37.2999 31.6 37.1998 31.9 37.0998 32.2C34.5998 31.7 32.0998 31.1 29.7999 30.6Z" fill="#FFD3C0"/>
<path d="M21.5 37.9C23.8 39.1 26.8 40.9 27.7 44.8C28.6 48.6 25.7 52.2 25.7 52.2C28.4 50.6 30.2 47.9 29.5 44.5C28.8 40.6 24.7 37.9 21.5 37.9Z" fill="#EFB9A3"/>
<path d="M46.5996 38.1C40.7996 33.4 32.8996 30.8 25.0996 30.5C33.4996 28.7 41.1996 30.6 46.5996 38.1Z" fill="#EFB9A3"/>
</svg>
