<svg width="64" height="65" viewBox="0 0 64 65" fill="none" xmlns="http://www.w3.org/2000/svg">
<path d="M11.8996 41.4446C0.0996075 30.1446 5.19961 15.7446 10.6996 11.2446C16.5996 6.44462 17.6996 3.14462 17.6996 3.14462C19.9996 7.64462 18.2996 10.9446 18.2996 10.9446C25.7996 0.344625 39.7996 2.44462 39.7996 2.44462C35.7996 4.24462 34.4996 6.24463 34.4996 6.24463C42.0996 4.34462 45.1996 4.54463 49.9996 9.04463C55.4996 14.0446 59.1996 14.4446 59.1996 14.4446C56.0996 16.9446 53.7996 15.4446 53.7996 15.4446C61.8996 27.1446 51.7996 40.1446 51.7996 40.1446L11.8996 41.4446Z" fill="#6D3D30"/>
<path d="M46.7998 39.8446C46.7998 39.8446 50.4998 35.4446 53.7998 37.1446C56.9998 38.8446 57.8998 45.2446 52.7998 48.8446C48.8998 51.6446 45.7998 50.6446 45.7998 50.6446L46.7998 39.8446Z" fill="#E0A692"/>
<path d="M15.0999 39.8446C15.0999 39.8446 11.3999 35.4446 8.09992 37.1446C4.89992 38.9446 3.99992 45.3446 9.09992 48.9446C12.9999 51.7446 16.0999 50.7446 16.0999 50.7446L15.0999 39.8446Z" fill="#E0A692"/>
<path d="M30.9994 63.7446C35.0994 63.7446 38.3994 61.6446 40.8994 60.4446C52.6994 54.7446 49.3994 40.0446 49.3994 40.0446C50.0994 20.6446 46.4994 14.8446 31.0994 14.7446C15.6994 14.7446 11.8994 20.5446 12.6994 39.9446C12.6994 39.9446 9.49938 54.9446 21.5994 60.4446C23.8994 61.7446 27.0994 63.7446 30.9994 63.7446Z" fill="#EFB9A3"/>
<path d="M17.6992 34.7446C18.0992 34.3446 19.7992 31.8446 23.3992 33.0446C24.7992 33.5446 24.6992 34.9446 24.6992 34.9446C21.5992 33.7446 17.6992 34.7446 17.6992 34.7446Z" fill="#6D3D30"/>
<path d="M44.2994 34.5446C44.2994 34.5446 41.8994 31.7446 38.5994 32.8446C37.1994 33.3446 37.2994 34.7446 37.2994 34.7446C40.3994 33.5446 44.2994 34.5446 44.2994 34.5446Z" fill="#6D3D30"/>
<path d="M25.8992 41.5446C25.8992 41.5446 24.1992 43.3446 21.1992 43.1446C18.6992 43.0446 17.7992 41.7446 17.7992 41.7446C15.7992 39.1446 17.4992 36.4446 20.3992 36.0446C22.5992 35.7446 25.3992 36.9446 25.8992 41.5446Z" fill="white"/>
<path d="M24.1994 39.4446C23.8994 38.0446 22.4994 37.2446 21.0994 37.5446C21.2994 37.7446 21.3994 37.9446 21.4994 38.2446C21.6994 38.9446 21.1994 39.7446 20.3994 39.8446C19.8994 39.9446 19.3994 39.7446 19.0994 39.4446C18.9994 39.7446 18.9994 40.1446 19.0994 40.4446C19.3994 41.8446 20.7994 42.6446 22.1994 42.3446C23.5994 42.1446 24.4994 40.7446 24.1994 39.4446Z" fill="#34823B"/>
<path d="M36.0996 41.6446C36.0996 41.6446 37.7996 43.4446 40.7996 43.2446C43.2996 43.1446 44.1996 41.8446 44.1996 41.8446C46.1996 39.2446 44.4996 36.5446 41.5996 36.1446C39.3996 35.8446 36.5996 37.0446 36.0996 41.6446Z" fill="white"/>
<path d="M42.8996 39.4446C42.5996 38.0446 41.1996 37.2446 39.7996 37.5446C39.9996 37.7446 40.0996 37.9446 40.1996 38.2446C40.3996 38.9446 39.8996 39.7446 39.0996 39.8446C38.5996 39.9446 38.0996 39.7446 37.7996 39.4446C37.6996 39.7446 37.6996 40.1446 37.7996 40.4446C38.0996 41.8446 39.4996 42.6446 40.8996 42.3446C42.2996 42.1446 43.1996 40.8446 42.8996 39.4446Z" fill="#34823B"/>
<path d="M31.2994 42.8446C30.7994 44.5446 31.2994 45.3446 31.8994 45.6446C32.7994 46.1446 33.7994 45.7446 34.2994 46.3446C34.6994 46.9446 34.7994 47.5446 32.5994 49.5446C36.6994 48.0446 35.7994 45.6446 34.8994 45.2446C34.1994 44.9446 33.7994 45.0446 32.6994 44.8446C31.9994 44.8446 31.4994 44.1446 31.2994 42.8446Z" fill="#D69A85"/>
<path d="M23.1992 50.7446C24.1992 51.2446 25.2992 51.6446 26.2992 51.9446L31.1992 53.5446L36.2992 52.2446C38.1992 51.8446 39.4992 51.3446 39.4992 51.3446C39.4992 51.3446 38.1992 54.3446 35.2992 55.9446H35.1992C32.5992 57.3446 29.3992 57.3446 26.9992 55.7446C24.0992 53.9446 23.1992 50.7446 23.1992 50.7446Z" fill="#23201E"/>
<path d="M36.1992 52.2446C33.6992 52.7446 30.0992 53.0446 26.1992 51.9446C26.9992 52.8446 28.4992 53.9446 30.8992 54.0446C33.4992 54.1446 35.2992 53.1446 36.1992 52.2446Z" fill="white"/>
<path d="M32.2997 21.1446C30.7997 26.9446 24.3997 29.1446 24.3997 29.1446C36.3997 29.9446 39.5997 22.2446 39.5997 22.2446C39.5997 26.0446 35.9997 28.3446 35.9997 28.3446C42.0997 27.8446 44.9997 23.1446 44.9997 23.1446C45.0997 30.3446 51.8997 31.9446 51.8997 31.9446L50.6997 18.7446L31.8997 12.3446C31.8997 12.3446 15.9997 11.7446 11.0997 26.1446C10.7997 26.9446 11.4997 28.7446 11.3997 30.4446C24.3997 29.5446 32.2997 21.1446 32.2997 21.1446Z" fill="#6D3D30"/>
</svg>
