<svg width="64" height="64" viewBox="0 0 64 64" fill="none" xmlns="http://www.w3.org/2000/svg">
<path d="M11.9001 40.5C0.100096 29.2 5.2001 14.8 10.7001 10.3C16.6001 5.5 17.7001 2.2 17.7001 2.2C20.0001 6.7 18.3001 10 18.3001 10C25.8001 -0.600001 39.8001 1.5 39.8001 1.5C35.8001 3.3 34.5001 5.3 34.5001 5.3C42.1001 3.4 45.2001 3.6 50.0001 8.1C55.5001 13.1 59.2001 13.5 59.2001 13.5C56.1001 16 53.8001 14.5 53.8001 14.5C61.9001 26.2 51.8001 39.2 51.8001 39.2L11.9001 40.5Z" fill="#6D3D30"/>
<path d="M46.8003 38.9C46.8003 38.9 50.5003 34.5 53.8003 36.2C57.0003 37.9 57.9003 44.3 52.8003 47.9C48.9003 50.7 45.8003 49.7 45.8003 49.7L46.8003 38.9Z" fill="#EFB9A3"/>
<path d="M15.0999 38.9C15.0999 38.9 11.3999 34.5 8.09992 36.2C4.89992 38 3.99992 44.4 9.09992 48C12.9999 50.8 16.0999 49.8 16.0999 49.8L15.0999 38.9Z" fill="#EFB9A3"/>
<path d="M30.9999 62.8C35.0999 62.8 38.3999 60.7 40.8999 59.5C52.6999 53.8 49.3999 39.1 49.3999 39.1C50.0999 19.7 46.4999 13.9 31.0999 13.8C15.6999 13.8 11.8999 19.6 12.6999 39C12.6999 39 9.49987 54 21.5999 59.5C23.8999 60.8 27.0999 62.8 30.9999 62.8Z" fill="#FFD3C0"/>
<path d="M17.7002 33.8C18.1002 33.4 19.8002 30.9 23.4002 32.1C24.8002 32.6 24.7002 34 24.7002 34C21.6002 32.8 17.7002 33.8 17.7002 33.8Z" fill="#6D3D30"/>
<path d="M44.2999 33.6C44.2999 33.6 41.8999 30.8 38.5999 31.9C37.1999 32.4 37.2999 33.8 37.2999 33.8C40.3999 32.6 44.2999 33.6 44.2999 33.6Z" fill="#6D3D30"/>
<path d="M25.9001 40.6C25.9001 40.6 24.2001 42.4 21.2001 42.2C18.7001 42.1 17.8001 40.8 17.8001 40.8C15.8001 38.2 17.5001 35.5 20.4001 35.1C22.6001 34.8 25.4001 36 25.9001 40.6Z" fill="white"/>
<path d="M24.1999 38.5C23.8999 37.1 22.4999 36.3 21.0999 36.6C21.2999 36.8 21.3999 37 21.4999 37.3C21.6999 38 21.1999 38.8 20.3999 38.9C19.8999 39 19.3999 38.8 19.0999 38.5C18.9999 38.8 18.9999 39.2 19.0999 39.5C19.3999 40.9 20.7999 41.7 22.1999 41.4C23.5999 41.2 24.4999 39.8 24.1999 38.5Z" fill="#34823B"/>
<path d="M36.1001 40.7C36.1001 40.7 37.8001 42.5 40.8001 42.3C43.3001 42.2 44.2001 40.9 44.2001 40.9C46.2001 38.3 44.5001 35.6 41.6001 35.2C39.4001 34.9 36.6001 36.1 36.1001 40.7Z" fill="white"/>
<path d="M42.9001 38.5C42.6001 37.1 41.2001 36.3 39.8001 36.6C40.0001 36.8 40.1001 37 40.2001 37.3C40.4001 38 39.9001 38.8 39.1001 38.9C38.6001 39 38.1001 38.8 37.8001 38.5C37.7001 38.8 37.7001 39.2 37.8001 39.5C38.1001 40.9 39.5001 41.7 40.9001 41.4C42.3001 41.2 43.2001 39.9 42.9001 38.5Z" fill="#34823B"/>
<path d="M31.2999 41.9C30.7999 43.6 31.2999 44.4 31.8999 44.7C32.7999 45.2 33.7999 44.8 34.2999 45.4C34.6999 46 34.7999 46.6 32.5999 48.6C36.6999 47.1 35.7999 44.7 34.8999 44.3C34.1999 44 33.7999 44.1 32.6999 43.9C31.9999 43.9 31.4999 43.2 31.2999 41.9Z" fill="#D69A85"/>
<path d="M23.2002 49.8C24.2002 50.3 25.3002 50.7 26.3002 51L31.2002 52.6L36.3002 51.3C38.2002 50.9 39.5002 50.4 39.5002 50.4C39.5002 50.4 38.2002 53.4 35.3002 55C34.0002 55.7 31.0002 54.7 31.0002 54.7C31.0002 54.7 27.9002 55.5 26.8002 54.8C24.1002 53 23.2002 49.8 23.2002 49.8Z" fill="#23201E"/>
<path d="M36.2002 51.3C33.7002 51.8 30.1002 52.1 26.2002 51C27.0002 51.9 28.5002 53 30.9002 53.1C33.5002 53.2 35.3002 52.2 36.2002 51.3Z" fill="white"/>
<path d="M32.3002 20.2C30.8002 26 24.4002 28.2 24.4002 28.2C36.4002 29 39.6002 21.3 39.6002 21.3C39.6002 25.1 36.0002 27.4 36.0002 27.4C42.1002 26.9 45.0002 22.2 45.0002 22.2C45.1002 29.4 51.9002 31 51.9002 31L50.7002 17.8L31.9002 11.4C31.9002 11.4 16.0002 10.8 11.1002 25.2C10.8002 26 11.5002 27.8 11.4002 29.5C24.4002 28.6 32.3002 20.2 32.3002 20.2Z" fill="#6D3D30"/>
</svg>
