<svg width="64" height="64" viewBox="0 0 64 64" fill="none" xmlns="http://www.w3.org/2000/svg">
<path d="M60.2001 51.9C58.0001 49.9 45.0001 43.2 35.6001 35.8C29.8001 31.2 26.4001 30.2 25.2001 22.4L27.1001 3H4.10007C4.10007 3 6.70007 16.3 6.80007 22.2C6.60007 36.7 -1.09993 46.3 4.70007 51.7C8.40007 55.1 14.2001 54.3 18.7001 54.3C31.8001 54.3 32.6001 57.9 41.6001 60.4C44.9001 61.3 51.0001 61.3 52.9001 58.4H55.2001C58.7001 58.4 59.0001 56.3 59.0001 56.3C62.5001 56.1 61.7001 53.2 60.2001 51.9Z" fill="#F7DCC4"/>
<path d="M45.6001 53.3C45.6001 53.3 50.8001 55.2 51.9001 56.8C53.0001 58.4 52.8001 52.1 45.6001 53.3Z" fill="#EFB9A3"/>
<path d="M9.79995 27.9C9.79995 27.9 9.49995 33.5 11.8 35C14.1 36.5 16.8 33.8 16.8 33.8C16.8 33.8 14.2 33 12.6 32C11 31 9.79995 27.9 9.79995 27.9Z" fill="#EFB9A3"/>
<path d="M57.7999 55.1C57.7999 55.1 53.9999 51.3 50.4999 50.6C46.9999 49.9 55.2999 51.2 56.7999 52.1C58.2999 53.1 57.7999 55.1 57.7999 55.1Z" fill="#EFB9A3"/>
</svg>
