<svg width="65" height="65" viewBox="0 0 65 65" fill="none" xmlns="http://www.w3.org/2000/svg">
<path d="M60.2635 52.8446C58.0635 50.8446 45.0635 44.1446 35.6635 36.7446C29.8635 32.1446 26.4635 31.1446 25.2635 23.3446L27.1635 3.94463H4.16355C4.16355 3.94463 6.76355 17.2446 6.86355 23.1446C6.66355 37.6446 -1.03645 47.2446 4.76355 52.6446C8.46355 56.0446 14.2635 55.2446 18.7635 55.2446C31.8635 55.2446 32.6635 58.8446 41.6635 61.3446C44.9635 62.2446 51.0635 62.2446 52.9635 59.3446H55.2635C58.7635 59.3446 59.0635 57.2446 59.0635 57.2446C62.5635 57.0446 61.7635 54.1446 60.2635 52.8446Z" fill="#EFB9A3"/>
<path d="M45.6631 54.2446C45.6631 54.2446 50.8631 56.1446 51.9631 57.7446C53.0631 59.3446 52.8631 53.0446 45.6631 54.2446Z" fill="#D69A85"/>
<path d="M9.86343 28.8446C9.86343 28.8446 9.56343 34.4446 11.8634 35.9446C14.1634 37.4446 16.8634 34.7446 16.8634 34.7446C16.8634 34.7446 14.2634 33.9446 12.6634 32.9446C11.0634 31.9446 9.86343 28.8446 9.86343 28.8446Z" fill="#D69A85"/>
<path d="M57.8633 56.0446C57.8633 56.0446 54.0633 52.2446 50.5633 51.5446C47.0633 50.8446 55.3633 52.1446 56.8633 53.0446C58.3633 54.0446 57.8633 56.0446 57.8633 56.0446Z" fill="#D69A85"/>
</svg>
