<svg width="64" height="64" viewBox="0 0 64 64" fill="none" xmlns="http://www.w3.org/2000/svg">
<path d="M45.8002 7.8C45.7002 7.9 45.7002 7.9 45.6002 8C36.8002 3.4 24.3002 5.9 15.1002 14.9C6.00016 23.9 3.30016 36.4 7.80016 45.3C7.80016 45.3 7.70016 45.4 7.60016 45.4C5.40016 47.6 4.70016 51.8 6.90016 54.1C9.10016 56.3 13.3002 55.7 15.6002 53.5C15.7002 53.4 15.8002 53.3 15.9002 53.2C24.6002 57.4 36.8002 54.7 45.7002 46C54.6002 37.2 57.5002 25 53.4002 16.2C53.5002 16.1 53.6002 16 53.7002 15.9C55.9002 13.7 56.6002 9.5 54.4002 7.2C52.3002 5 48.1002 5.6 45.8002 7.8Z" fill="#FDE85E"/>
<path d="M32.8003 33.4L41.6003 31.9C41.6003 31.9 40.5003 34.5 37.6003 35C34.8003 35.6 32.8003 33.4 32.8003 33.4Z" fill="#FFC830"/>
<path d="M34.8005 38.5L26.0005 40.1C26.0005 40.1 28.0005 42.2 30.8005 41.7C33.7005 41.1 34.8005 38.5 34.8005 38.5Z" fill="#FFC830"/>
<path d="M26.2004 34.6L17.4004 36.2C17.4004 36.2 19.4004 38.3 22.2004 37.8C25.1004 37.3 26.2004 34.6 26.2004 34.6Z" fill="#FFC830"/>
</svg>
