<svg width="51" height="64" viewBox="0 0 51 64" fill="none" xmlns="http://www.w3.org/2000/svg">
<path d="M38.9455 45.8L32.8455 21C32.6455 13.2 33.6455 6.4 34.9455 0H0.145508V64H36.3455C38.0455 58.8 39.2455 53.2 39.0455 47.2L38.9455 45.8Z" fill="#D99B6A"/>
<path d="M48.3456 28.5C45.4456 26.8 42.9456 27.5 38.6456 26.1C35.3456 25.1 33.6456 23 32.8456 17C30.9456 24.9 27.8456 30.1 30.4456 31.5C34.7456 33.9 27.0456 40.3 29.1456 43.1C31.2456 45.9 32.7456 47.2 38.9456 47C53.9456 42.2 52.0456 30.7 48.3456 28.5Z" fill="#D99B6A"/>
<path d="M35.4455 27.4C39.7455 28.7 42.2455 28 45.1455 29.8C48.5455 31.8 50.3455 41.4 39.6455 46.8C53.9455 41.8 52.0455 30.6 48.3455 28.4C45.4455 26.7 42.9455 27.4 38.6455 26C35.3455 25 33.6455 23 32.8455 17.1C32.9455 11 33.8455 5.4 34.9455 0H32.0455C30.8455 5.8 29.7455 11.8 29.6455 18.6C30.4455 24.4 32.1455 26.4 35.4455 27.4Z" fill="#B37955"/>
<path d="M38.9453 47.1C38.3453 47.4 37.8453 53.6 32.4453 64H36.2453C38.0453 58.8 39.1453 53.2 38.9453 47.1Z" fill="#B37955"/>
<path d="M27.9453 41.8C24.0453 43.6 24.5453 47.2 29.5453 47.6C31.3453 47.7 34.5453 47.1 37.0453 45C37.0453 44.9 31.8453 40 27.9453 41.8Z" fill="#B37955"/>
<path d="M24.2455 34C24.2455 34 17.9455 32.8 15.1455 38.3C12.3455 43.8 21.4455 47.2 21.4455 47.2C21.4455 47.2 18.2455 44 18.3455 39.9C18.4455 35.8 24.2455 34 24.2455 34Z" fill="#B37955"/>
</svg>
