<svg width="64" height="64" viewBox="0 0 64 64" fill="none" xmlns="http://www.w3.org/2000/svg">
<g clip-path="url(#clip0_181_10407)">
<path d="M26.5002 55.9C25.5002 55.9 24.7002 55.1 24.7002 54.1V0.499997C24.7002 -0.500003 25.5002 -1.3 26.5002 -1.3C27.5002 -1.3 28.3002 -0.500003 28.3002 0.499997V54.1C28.3002 55.1 27.5002 55.9 26.5002 55.9Z" fill="#39A2BC"/>
<path d="M46.2004 55.9C45.2004 55.9 44.4004 55.1 44.4004 54.1V0.8C44.4004 -0.2 45.2004 -1 46.2004 -1C47.2004 -1 48.0004 -0.2 48.0004 0.8V54.1C48.0004 55.1 47.2004 55.9 46.2004 55.9Z" fill="#39A2BC"/>
<path d="M46.9 1.3H26V7.1H46.9V1.3Z" fill="#4FBFDA"/>
<path d="M46.9 9.5H26V15.3H46.9V9.5Z" fill="#4FBFDA"/>
<path d="M19.4001 61.3C18.4001 61.3 17.6001 60.5 17.6001 59.5V33.1H21.2001V59.5C21.2001 60.5 20.4001 61.3 19.4001 61.3Z" fill="#49B0C9"/>
<path d="M39.1999 61.3C38.1999 61.3 37.3999 60.5 37.3999 59.5V33.1H40.9999V59.5C40.9999 60.5 40.1999 61.3 39.1999 61.3Z" fill="#49B0C9"/>
<path d="M16.7002 33L16.8002 37.9H41.3002L48.7002 32.3L48.9002 29L16.7002 33Z" fill="#39A2BC"/>
<path d="M43.1 34.6H13.5V32.9L50.5 27.2V28.9L43.1 34.6Z" fill="#49B0C9"/>
<path d="M43.1 32.9H13.5L24.8 27.1H50.5L43.1 32.9Z" fill="#4FBFDA"/>
</g>
<defs>
<clipPath id="clip0_181_10407">
<rect width="64" height="64" fill="white"/>
</clipPath>
</defs>
</svg>
