<svg width="64" height="64" viewBox="0 0 64 64" fill="none" xmlns="http://www.w3.org/2000/svg">
<g clip-path="url(#clip0_181_10284)">
<path d="M48.3001 7H15.6001V52.8H48.3001V7Z" fill="#EB587A"/>
<path d="M49.1999 5.3H14.8999L15.5999 7.1H48.2999L49.1999 5.3Z" fill="#B23B60"/>
<path d="M48.3002 52.8H15.6002L14.7002 55H49.1002L48.3002 52.8Z" fill="#B23B60"/>
<path d="M14.7002 58.1H49.2002L49.1002 54.9H14.7002V58.1Z" fill="#CD4B6D"/>
<path d="M32.1999 -2V4.1H14.8999C14.8999 4.1 15.2999 2.1 17.7999 2.2C20.2999 2.3 19.7999 2.7 21.3999 2.5C22.9999 2.3 24.0999 0.899998 24.0999 0.899998C24.0999 0.899998 25.3999 2.5 26.8999 2C28.3999 1.5 28.4999 0.299998 27.6999 -0.500002C27.6999 -0.500002 29.1999 -0.900002 29.7999 -2.38419e-06C29.6999 -2.38419e-06 30.5999 -2.1 32.1999 -2Z" fill="#D24C70"/>
<path d="M32.1001 -2V4.1H49.3001C49.3001 4.1 49.0001 2.1 46.5001 2.2C44.0001 2.3 44.5001 2.7 42.9001 2.5C41.3001 2.3 40.2001 0.899998 40.2001 0.899998C40.2001 0.899998 38.9001 2.5 37.4001 2C35.9001 1.5 35.8001 0.299998 36.6001 -0.500002C36.6001 -0.500002 35.1001 -0.900002 34.5001 -2.38419e-06C34.5001 -2.38419e-06 33.6001 -2.1 32.1001 -2Z" fill="#D24C70"/>
<path d="M44.6003 43.5H19.2003C18.5003 43.5 17.8003 44.1 17.8003 44.9V49.4C17.8003 50.1 18.4003 50.8 19.2003 50.8H44.6003C45.3003 50.8 46.0003 50.2 46.0003 49.4V44.9C45.9003 44.1 45.3003 43.5 44.6003 43.5Z" fill="#D24C70"/>
<path d="M28.8003 41.8H19.4003C18.5003 41.8 17.8003 41.1 17.8003 40.2V10.7C17.8003 9.79999 18.5003 9.09999 19.4003 9.09999H28.8003C29.7003 9.09999 30.4003 9.79999 30.4003 10.7V40.3C30.4003 41.1 29.7003 41.8 28.8003 41.8Z" fill="#D24C70"/>
<path d="M44.3999 41.8H34.9999C34.0999 41.8 33.3999 41.1 33.3999 40.2V10.7C33.3999 9.79999 34.0999 9.09999 34.9999 9.09999H44.3999C45.2999 9.09999 45.9999 9.79999 45.9999 10.7V40.3C45.8999 41.1 45.2999 41.8 44.3999 41.8Z" fill="#D24C70"/>
<path d="M14.9001 58C14.9001 58 13.2001 58.4 13.3001 62H17.8001C17.8001 62 16.7001 59.4 19.4001 58H14.9001Z" fill="#CD4B6D"/>
<path d="M49.1001 58C49.1001 58 50.8001 58.4 50.7001 62H46.2001C46.2001 62 47.3001 59.4 44.6001 58H49.1001Z" fill="#CD4B6D"/>
<path d="M31.8003 7.09999V44.3" stroke="#D24C70" stroke-width="0.8055" stroke-miterlimit="10"/>
<path d="M28.4003 28.9C28.0003 28.9 27.8003 28.6 27.8003 28.3V24.7C27.8003 24.3 28.1003 24.1 28.4003 24.1C28.8003 24.1 29.0003 24.4 29.0003 24.7V28.3C29.1003 28.6 28.8003 28.9 28.4003 28.9Z" fill="#FFC86A"/>
<path d="M34.8002 28.9C34.4002 28.9 34.2002 28.6 34.2002 28.3V24.7C34.2002 24.3 34.5002 24.1 34.8002 24.1C35.2002 24.1 35.4002 24.4 35.4002 24.7V28.3C35.5002 28.6 35.2002 28.9 34.8002 28.9Z" fill="#FFC86A"/>
<path d="M41.7003 46.4C42.1974 46.4 42.6003 45.997 42.6003 45.5C42.6003 45.0029 42.1974 44.6 41.7003 44.6C41.2032 44.6 40.8003 45.0029 40.8003 45.5C40.8003 45.997 41.2032 46.4 41.7003 46.4Z" fill="#FFC86A"/>
<path d="M22.1002 46.4C22.5973 46.4 23.0002 45.997 23.0002 45.5C23.0002 45.0029 22.5973 44.6 22.1002 44.6C21.6031 44.6 21.2002 45.0029 21.2002 45.5C21.2002 45.997 21.6031 46.4 22.1002 46.4Z" fill="#FFC86A"/>
<path d="M20.3999 41.9L20.7999 35.8L21.3999 41.9H20.3999Z" fill="#EB587A"/>
<path d="M26.6001 9.09999L27.2001 13.6L27.6001 8.89999L26.6001 9.09999Z" fill="#EB587A"/>
<path d="M24.7003 16.5C24.7003 16.5 23.6003 19.7 24.7003 23C24.7003 23.1 25.9003 19.8 24.7003 16.5Z" fill="#EB587A"/>
<path d="M42.1002 34.3C42.1002 34.3 41.0002 37.5 42.1002 40.8C42.1002 40.8 43.3002 37.6 42.1002 34.3Z" fill="#EB587A"/>
<path d="M43.0001 7.2C43.0001 7.2 42.3001 10.1 43.0001 13.2C43.0001 13.3 43.9001 10.2 43.0001 7.2Z" fill="#EB587A"/>
<path d="M42 8.5L41.4 16.3L41 8.8L42 8.5Z" fill="#EB587A"/>
<path d="M49.1999 4.09999H14.8999V5.29999H49.1999V4.09999Z" fill="#EB587A"/>
</g>
<defs>
<clipPath id="clip0_181_10284">
<rect width="64" height="64" fill="white"/>
</clipPath>
</defs>
</svg>
