<svg width="64" height="64" viewBox="0 0 64 64" fill="none" xmlns="http://www.w3.org/2000/svg">
<g clip-path="url(#clip0_181_10586)">
<path d="M39 35.2C38 35.2 37.1 35.1 36.1 35.1C35.3 36 34.4 37.2 33.5 38.5C31.5 41.5 30.6 45.5 27.8 48C25 50.3 22.5 51 22.5 51C22.5 51 25.7 51.9 28.8 49.4C31.9 46.8 33.5 41.6 34.4 40.3C35.6 38.6 37.5 36.7 39 35.2Z" fill="#04040A"/>
<path d="M26.6997 23C26.6997 23 50.8997 13.9 57.3997 15.8C62.4997 17.3 63.4997 21.6 63.0997 22.4C61.9997 24.1 27.4997 24.3 27.4997 24.3L26.6997 23Z" fill="#B5E5EA"/>
<path d="M34.6997 32.2C34.6997 32.2 39.6997 29 43.1997 31.8C44.6997 33 53.6997 47.9 47.0997 56.6C42.5997 62.6 39.9997 62 39.9997 62C39.9997 62 41.6997 60.6 39.5997 58C32.6997 49.5 32.6997 36.7 32.6997 35.3C32.6997 33.9 34.6997 32.2 34.6997 32.2Z" fill="#FFCC3E"/>
<path d="M10.2998 39.2C10.2998 39.2 9.89979 34.1 14.0998 32.4C18.8998 30.4 20.2998 27 20.2998 27L22.3998 27.5C22.3998 27.5 19.3998 32.6 14.6998 34.2C12.8998 34.8 11.8998 36.5 10.2998 39.2Z" fill="#FFCC3E"/>
<path d="M20.3996 23.8C20.3996 23.8 24.5996 17.7 33.3996 22.4C40.3996 26.2 36.5996 34.4 32.3996 36.3C28.1996 38.2 18.6996 34 18.9996 29.8C19.2996 25.7 20.3996 23.8 20.3996 23.8Z" fill="#04040A"/>
<path d="M10.9999 30.6C9.39991 29.7 8.69991 20.5 14.5999 18.7C19.3999 17.2 23.3999 19.9 23.2999 23.2C23.1999 27.5 14.0999 32.3 10.9999 30.6Z" fill="#04040A"/>
<path d="M21.2998 22.8C21.5998 24.4 20.5998 26 18.9998 26.3C17.3998 26.6 15.7998 25.6 15.4998 24C15.1998 22.4 16.1998 20.8 17.7998 20.5C19.4998 20.2 20.9998 21.2 21.2998 22.8Z" fill="#FFCC3E"/>
<path d="M20.3999 23C20.5999 24.1 19.8999 25.1 18.7999 25.3C17.6999 25.5 16.6999 24.8 16.4999 23.7C16.2999 22.6 16.9999 21.6 18.0999 21.4C19.0999 21.3 20.0999 22 20.3999 23Z" fill="#04040A"/>
<path d="M20.2 22.3C20.3 22.8 20 23.3 19.5 23.4C19 23.5 18.5 23.2 18.4 22.7C18.3 22.2 18.6 21.7 19.1 21.6C19.7 21.5 20.1 21.8 20.2 22.3Z" fill="white"/>
<path d="M18.5999 19.4C18.5999 19.4 16.7999 8.9 12.2999 6.7C8.29988 4.7 4.99988 5.4 6.29988 6.6C6.79988 7.1 9.09988 7.3 11.4999 9C14.1999 11 16.9999 14.8 17.4999 19.3L18.5999 19.4Z" fill="#04040A"/>
<path d="M17.5998 19C17.5998 19 10.3998 11.2 5.39978 11.8C0.899777 12.3 -1.40022 14.7 0.299777 15C0.999777 15.2 2.99978 14 5.99978 14.2C9.39978 14.4 13.7998 16.1 16.6998 19.5L17.5998 19Z" fill="#04040A"/>
<path d="M14.7997 25.6L20.5997 20.7C20.5997 20.7 17.6997 18.8 15.7997 20.6C13.9997 22.5 14.7997 25.6 14.7997 25.6Z" fill="#04040A"/>
<path d="M28 24.4C28 24.4 53.7 21.5 59.5 25C64.1 27.7 64 32.2 63.4 32.8C61.9 34.2 28.4 25.9 28.4 25.9L28 24.4Z" fill="#E1F7FF"/>
<path d="M38.1997 56.1C38.5997 56.8 39.0997 57.4 39.5997 58C41.6997 60.6 39.9997 62 39.9997 62C39.9997 62 42.4997 62.6 47.0997 56.6C47.3997 56.2 47.6997 55.7 47.9997 55.3C43.0997 59.5 38.1997 56.1 38.1997 56.1Z" fill="#04040A"/>
<path d="M32.0996 35.7C32.0996 35.7 30.4996 36.5 31.0996 37.8C31.5996 39 33.0996 38.3 34.5996 37.8C36.4996 37.1 38.9996 36.7 38.9996 36.7C38.9996 36.7 36.9996 39.7 35.1996 44.1C33.7996 47.4 33.8996 51.6 31.5996 54.6C29.3996 57.6 27.0996 58.8 27.0996 58.8C27.0996 58.8 30.3996 59 32.8996 55.8C35.3996 52.6 35.7996 47.1 36.3996 45.7C37.6996 42.5 41.0996 38.1 41.1996 37C41.2996 35.8 40.6996 34 39.1996 34C37.6996 33.9 32.0996 35.7 32.0996 35.7Z" fill="#04040A"/>
<path d="M31.1996 29C30.2996 27.9 29.1996 28.1 28.5996 30.9C28.0996 33.4 25.5996 39.8 24.2996 41C22.9996 42.2 19.2996 45.2 18.5996 47C18.5996 47 22.7996 44.2 24.6996 43.2C26.6996 42.2 26.7996 40.8 28.2996 37.9C29.3996 35.7 31.8996 29.8 31.1996 29Z" fill="#FFCC3E"/>
<path d="M31.2 29C31.2 29 30 27.3 28.6 28.6C25 31.8 23.2 33.8 23.2 33.8C23.2 33.8 22 35 23.1 35.9C24.2 36.8 24.8 35.7 24.8 35.7L31.2 29Z" fill="#FFCC3E"/>
<path d="M46.6996 37.5C45.5996 38.5 43.9996 39.5 41.7996 40.2C38.4996 41.3 39.1996 43.9 41.2996 43.8C42.8996 43.7 45.8996 42.8 47.9996 40.8C47.5996 39.5 47.0996 38.4 46.6996 37.5Z" fill="#04040A"/>
<path d="M49.3 46.1C49.1 44.9 48.9 43.6 48.5 42.4C47.3 43.6 45.5 45.1 42.7 46C39.4 47.1 40.1 49.7 42.2 49.6C44 49.4 47.2 48.4 49.3 46.1Z" fill="#04040A"/>
<path d="M44.7996 51.2C41.4996 52.3 42.1996 54.9 44.2996 54.8C45.3996 54.7 47.1996 54.2 48.8996 53.3C49.3996 51.8 49.5996 50.3 49.4996 48.7C48.3996 49.5 46.8996 50.5 44.7996 51.2Z" fill="#04040A"/>
<path d="M13.6997 45.8C13.6997 45.8 12.1997 41.1 15.8997 38.3C18.9997 35.9 20.0997 33.5 20.4997 32.3C20.5997 31.9 20.9997 31.6 21.3997 31.6C22.0997 31.6 22.5997 32.3 22.2997 33C21.5997 34.8 19.9997 38.1 17.3997 39.9C15.7997 40.9 14.5997 42.9 13.6997 45.8Z" fill="#FFCC3E"/>
</g>
<defs>
<clipPath id="clip0_181_10586">
<rect width="64" height="64" fill="white"/>
</clipPath>
</defs>
</svg>
