<svg width="63" height="63" viewBox="0 0 63 63" fill="none" xmlns="http://www.w3.org/2000/svg">
<path d="M36.9537 14.8446L37.0537 14.6446L36.9537 14.4446C36.3537 12.9446 35.6537 11.5446 34.7537 10.1446C35.7537 9.24462 36.4537 8.14462 36.8537 7.04462C37.3537 5.74462 37.5537 4.34462 37.3537 3.04462C37.3537 2.84462 37.0537 2.64462 36.8537 2.64462C36.5537 2.64462 36.3537 2.94462 36.4537 3.14462C36.8537 5.54462 35.7537 8.14462 33.8537 9.84462L33.5537 10.1446L33.7537 10.4446C34.7537 11.7446 35.3537 13.1446 35.9537 14.6446C34.8537 16.4446 34.6537 18.6446 35.4537 20.6446C35.4537 20.6446 35.4537 20.6446 35.4537 20.7446C35.6537 21.1446 36.1537 21.2446 36.5537 21.0446C36.9537 20.8446 37.1537 20.4446 36.9537 20.0446C36.1537 18.4446 36.1537 16.4446 36.9537 14.8446Z" fill="#2F2947"/>
<path d="M36.9533 3.84462C36.8533 3.84462 36.6533 3.74462 36.6533 3.64462C36.3533 3.24462 36.3533 2.64462 36.7533 2.14462C37.1533 1.74462 37.7533 1.54462 38.3533 1.74462C38.5533 1.84462 38.6533 2.04462 38.5533 2.14462C38.4533 2.34462 38.2533 2.44462 38.0533 2.34462C37.8533 2.24462 37.5533 2.34462 37.3533 2.54462C37.1533 2.74462 37.1533 3.04462 37.2533 3.24462C37.3533 3.44462 37.3533 3.64462 37.1533 3.74462C37.1533 3.84462 37.0533 3.84462 36.9533 3.84462Z" fill="#2F2947"/>
<path d="M37.1539 4.54462C36.9539 4.54462 36.7539 4.44462 36.7539 4.24462C36.7539 3.74462 37.1539 3.34462 37.6539 3.24462C38.1539 3.14462 38.7539 3.44462 38.8539 3.84462C38.9539 4.04462 38.8539 4.24462 38.6539 4.24462C38.4539 4.34462 38.2539 4.24462 38.1539 4.04462C38.1539 3.94462 37.9539 3.84462 37.8539 3.84462C37.7539 3.84462 37.5539 4.04462 37.6539 4.14462C37.5539 4.34462 37.4539 4.54462 37.1539 4.54462C37.2539 4.54462 37.2539 4.54462 37.1539 4.54462Z" fill="#2F2947"/>
<path d="M42.9538 27.0446C43.5538 27.6446 44.1538 28.1446 44.9538 28.6446C45.6538 29.0446 46.4538 29.4446 47.1538 29.8446C47.9538 30.1446 48.7538 30.4446 49.5538 30.6446C50.3538 30.8446 51.1538 31.0446 51.9538 31.1446C52.4538 31.2446 52.7538 31.6446 52.7538 32.1446C52.6538 32.6446 52.2538 32.9446 51.7538 32.9446H51.6538C50.7538 32.7446 49.8538 32.4446 49.0538 32.1446C48.2538 31.8446 47.3538 31.4446 46.6538 30.9446C45.8538 30.5446 45.1538 30.0446 44.3538 29.4446C43.6538 28.8446 42.9538 28.2446 42.3538 27.5446C42.2538 27.3446 42.2538 27.1446 42.4538 27.0446C42.6538 26.9446 42.8538 26.9446 42.9538 27.0446Z" fill="#2F2947"/>
<path d="M61.8539 33.7446C61.7539 33.7446 61.6539 33.7446 61.5539 33.6446C59.0539 31.3446 55.1539 30.8446 52.1539 32.3446C51.9539 32.4446 51.6539 32.3446 51.5539 32.1446C51.4539 31.9446 51.5539 31.6446 51.7539 31.5446C55.0539 29.8446 59.3539 30.4446 62.1539 32.9446C62.3539 33.1446 62.3539 33.4446 62.1539 33.5446C62.1539 33.7446 62.0539 33.7446 61.8539 33.7446Z" fill="#2F2947"/>
<path d="M61.5531 35.2446C61.4531 35.2446 61.2531 35.1446 61.2531 35.0446C61.1531 34.8446 61.2531 34.6446 61.4531 34.5446C61.6531 34.4446 61.7531 34.3446 61.7531 34.1446C61.7531 33.9446 61.6531 33.7446 61.4531 33.6446C61.2531 33.5446 61.1531 33.3446 61.2531 33.1446C61.3531 32.9446 61.5531 32.8446 61.7531 32.9446C62.1531 33.1446 62.4531 33.6446 62.4531 34.1446C62.4531 34.6446 62.0531 35.0446 61.6531 35.2446C61.6531 35.2446 61.6531 35.2446 61.5531 35.2446Z" fill="#2F2947"/>
<path d="M60.5532 34.6446C60.4532 34.6446 60.3532 34.6446 60.2532 34.5446C60.1532 34.3446 60.1532 34.1446 60.3532 34.0446C60.6532 33.8446 60.7532 33.3446 60.5532 32.9446C60.4532 32.7446 60.5532 32.5446 60.6532 32.4446C60.8532 32.3446 61.0532 32.4446 61.1532 32.5446C61.4532 33.2446 61.3532 34.0446 60.7532 34.5446C60.6532 34.6446 60.5532 34.6446 60.5532 34.6446Z" fill="#2F2947"/>
<path d="M49.7533 39.9446C49.3533 39.9446 49.0533 39.7446 48.9533 39.3446C47.9533 36.3446 46.1533 33.6446 43.7533 31.5446C43.3533 31.2446 43.3533 30.6446 43.6533 30.3446C43.9533 29.9446 44.5533 29.9446 44.8533 30.2446C47.4533 32.5446 49.4533 35.5446 50.5533 38.8446C50.7533 39.3446 50.4533 39.8446 50.0533 39.9446C49.9533 39.9446 49.8533 39.9446 49.7533 39.9446Z" fill="#2F2947"/>
<path d="M58.1537 44.6446C57.8537 44.6446 57.6537 44.4446 57.6537 44.1446C57.6537 43.5446 57.3537 42.9446 56.6537 42.2446C54.9537 40.5446 52.4537 39.6446 50.0537 39.7446C49.7537 39.7446 49.5537 39.5446 49.5537 39.2446C49.5537 38.9446 49.7537 38.7446 50.0537 38.7446C52.7537 38.6446 55.4537 39.6446 57.3537 41.5446C58.2537 42.4446 58.7537 43.3446 58.6537 44.1446C58.6537 44.4446 58.3537 44.6446 58.1537 44.6446Z" fill="#2F2947"/>
<path d="M56.7537 44.4446C56.6537 44.4446 56.6537 44.4446 56.5537 44.3446C56.3537 44.2446 56.2537 43.9446 56.3537 43.6446C56.6537 43.0446 56.6537 42.4446 56.4537 41.8446C56.3537 41.5446 56.4537 41.3446 56.7537 41.2446C57.0537 41.1446 57.2537 41.2446 57.3537 41.5446C57.6537 42.3446 57.6537 43.3446 57.2537 44.1446C57.0537 44.3446 56.9537 44.4446 56.7537 44.4446Z" fill="#2F2947"/>
<path d="M27.2533 52.8446C26.8533 52.8446 26.5533 52.6446 26.4533 52.2446C26.2533 51.7446 26.5533 51.2446 26.9533 51.1446C28.4533 50.6446 29.7533 49.4446 30.7533 47.8446C31.5533 46.5446 32.1533 44.8446 32.4533 42.7446C32.5533 42.2446 32.9533 41.9446 33.4533 42.0446C33.9533 42.1446 34.2533 42.5446 34.1533 43.0446C33.7533 45.4446 33.1533 47.2446 32.1533 48.7446C30.9533 50.7446 29.2533 52.1446 27.4533 52.8446C27.4533 52.8446 27.3533 52.8446 27.2533 52.8446Z" fill="#2F2947"/>
<path d="M20.154 59.2446C18.354 59.2446 16.554 58.6446 15.154 57.5446C14.954 57.3446 14.954 57.0446 15.054 56.8446C15.254 56.6446 15.554 56.6446 15.754 56.7446C17.654 58.2446 20.354 58.6446 22.554 57.8446C24.854 56.9446 26.554 54.8446 26.954 52.5446C26.954 52.2446 27.254 52.1446 27.554 52.1446C27.854 52.1446 27.954 52.4446 27.954 52.7446C27.454 55.4446 25.554 57.8446 22.954 58.8446C21.954 59.1446 21.054 59.2446 20.154 59.2446Z" fill="#2F2947"/>
<path d="M15.5535 57.6446C15.4535 57.6446 15.4535 57.6446 15.3535 57.5446C14.8535 57.2446 14.6535 56.6446 14.7535 56.0446C14.8535 55.4446 15.3535 55.0446 15.8535 54.9446C16.0535 54.9446 16.2535 55.0446 16.3535 55.2446C16.3535 55.4446 16.2535 55.6446 16.0535 55.7446C15.7535 55.7446 15.5535 56.0446 15.5535 56.2446C15.5535 56.4446 15.6535 56.7446 15.8535 56.9446C16.0535 57.0446 16.0535 57.3446 15.9535 57.4446C15.7535 57.6446 15.6535 57.6446 15.5535 57.6446Z" fill="#2F2947"/>
<path d="M16.2531 58.1446C16.1531 58.1446 16.0531 58.0446 15.9531 57.9446C15.7531 57.7446 15.6531 57.3446 15.7531 56.9446C15.8531 56.5446 16.0531 56.2446 16.4531 56.0446C16.6531 55.9446 16.8531 56.0446 16.9531 56.2446C17.0531 56.4446 16.9531 56.6446 16.7531 56.7446C16.6531 56.8446 16.5531 56.9446 16.4531 57.1446C16.4531 57.3446 16.4531 57.4446 16.5531 57.6446C16.6531 57.8446 16.6531 58.0446 16.4531 58.1446C16.4531 58.1446 16.3531 58.1446 16.2531 58.1446Z" fill="#2F2947"/>
<path d="M13.6539 37.1446C13.4539 37.1446 13.3539 37.1446 13.1539 37.0446C12.7539 36.7446 12.6539 36.2446 12.8539 35.8446C15.6539 31.3446 20.7539 28.3446 26.1539 28.0446C26.6539 28.0446 27.0539 28.4446 27.0539 28.8446C27.0539 29.3446 26.6539 29.7446 26.2539 29.7446C21.4539 29.9446 16.9539 32.6446 14.3539 36.6446C14.2539 37.0446 13.9539 37.1446 13.6539 37.1446Z" fill="#2F2947"/>
<path d="M6.15332 45.9446C5.55332 45.9446 5.05332 45.8446 4.55332 45.6446C4.25332 45.5446 4.15332 45.2446 4.25332 45.0446C4.35332 44.7446 4.65332 44.6446 4.85332 44.7446C6.15332 45.2446 7.75332 44.9446 9.05332 43.9446C10.0533 43.1446 10.9533 41.9446 11.8533 40.1446C12.1533 39.5446 12.3533 39.0446 12.5533 38.4446C12.9533 37.5446 13.3533 36.5446 13.8533 35.5446C13.9533 35.3446 14.2533 35.2446 14.5533 35.3446C14.7533 35.4446 14.8533 35.7446 14.7533 36.0446C14.2533 36.9446 13.8533 37.8446 13.4533 38.8446C13.2533 39.4446 12.9533 40.0446 12.6533 40.6446C12.0533 41.8446 11.1533 43.6446 9.65332 44.8446C8.55332 45.4446 7.35332 45.9446 6.15332 45.9446Z" fill="#2F2947"/>
<path d="M4.95306 45.6446C4.35306 45.5446 3.85306 45.2446 3.65306 44.7446C3.45306 44.2446 3.45306 43.6446 3.75306 43.1446C3.95306 42.9446 4.25306 42.8446 4.45306 43.0446C4.75306 43.1446 4.75306 43.4446 4.65306 43.7446C4.55306 43.9446 4.55306 44.1446 4.55306 44.3446C4.65306 44.5446 4.85306 44.6446 5.05306 44.7446C5.35306 44.7446 5.55306 45.0446 5.45306 45.2446C5.45306 45.4446 5.25306 45.6446 4.95306 45.6446Z" fill="#2F2947"/>
<path d="M5.55391 45.7446C5.45391 45.7446 5.45391 45.7446 5.35391 45.7446C5.05391 45.5446 4.75391 45.2446 4.75391 44.8446C4.75391 44.4446 4.95391 44.0446 5.25391 43.8446C5.45391 43.7446 5.75391 43.7446 5.95391 44.0446C6.05391 44.2446 6.05391 44.5446 5.75391 44.7446C5.75391 44.7446 5.75391 44.7446 5.75391 44.8446C5.75391 44.9446 5.75391 44.9446 5.75391 44.9446C5.95391 45.0446 6.15391 45.3446 5.95391 45.5446C5.95391 45.6446 5.75391 45.7446 5.55391 45.7446Z" fill="#2F2947"/>
<path d="M40.9531 16.8446C40.9531 17.7446 41.6531 18.4446 42.5531 18.4446C43.4531 18.4446 44.1531 17.7446 44.1531 16.8446C44.1531 15.9446 43.4531 15.2446 42.5531 15.2446C41.6531 15.3446 40.9531 16.0446 40.9531 16.8446Z" fill="#DBD94D"/>
<path d="M43.4533 16.8446C43.4533 16.3446 43.0533 15.9446 42.5533 15.9446C42.0533 15.9446 41.6533 16.3446 41.6533 16.8446C41.6533 17.3446 42.0533 17.7446 42.5533 17.7446C43.0533 17.7446 43.4533 17.3446 43.4533 16.8446Z" fill="black"/>
<path d="M42.7539 16.1446C42.7539 15.8446 42.5539 15.6446 42.2539 15.6446C41.9539 15.6446 41.7539 15.8446 41.7539 16.1446C41.7539 16.4446 41.9539 16.6446 42.2539 16.6446C42.5539 16.5446 42.7539 16.3446 42.7539 16.1446Z" fill="white"/>
<path d="M45.2537 18.4446C45.0537 18.4446 44.8537 18.2446 44.8537 18.0446C44.9537 14.9446 43.3537 11.8446 40.7537 9.94462L40.5537 9.74462L40.6537 9.44462C41.9537 6.84462 42.4537 3.84462 42.0537 0.944624C42.0537 0.744624 42.1537 0.544624 42.3537 0.544624C42.5537 0.644624 42.7537 0.744624 42.7537 0.944624C43.1537 3.84462 42.6537 6.84462 41.4537 9.54462C44.0537 11.5446 45.6537 14.8446 45.5537 18.0446C45.6537 18.2446 45.4537 18.4446 45.2537 18.4446Z" fill="#1A1A2B"/>
<path d="M42.1532 10.9446C42.0532 10.9446 42.0532 10.9446 41.9532 10.9446C41.7532 10.8446 41.6532 10.6446 41.8532 10.4446C43.0532 8.44462 43.6532 6.34462 43.6532 4.14462C43.5532 3.84462 43.7532 3.74462 43.9532 3.74462C44.1532 3.74462 44.3532 3.94462 44.3532 4.14462C44.3532 6.44462 43.6532 8.74462 42.4532 10.8446C42.3532 10.9446 42.2532 10.9446 42.1532 10.9446Z" fill="#1A1A2B"/>
<path d="M43.1538 12.1446C43.0538 12.1446 42.9538 12.1446 42.9538 12.0446C42.7538 11.9446 42.7538 11.6446 42.8538 11.5446C44.1538 9.94462 45.0538 8.04462 45.3538 6.04462C45.3538 5.84462 45.5538 5.74462 45.7538 5.74462C45.9538 5.74462 46.1538 5.94462 46.0538 6.14462C45.7538 8.24462 44.8538 10.3446 43.4538 12.0446C43.3538 12.0446 43.2538 12.1446 43.1538 12.1446Z" fill="#1A1A2B"/>
<path d="M43.8535 13.2446C43.7535 13.2446 43.6535 13.2446 43.5535 13.1446C43.4535 12.9446 43.4535 12.7446 43.5535 12.6446C44.6535 11.7446 45.4535 10.4446 45.7535 9.14463C45.7535 8.94463 46.0535 8.84463 46.2535 8.84463C46.4535 8.84463 46.5535 9.04463 46.5535 9.24463C46.1535 10.7446 45.2535 12.1446 44.0535 13.1446C44.0535 13.1446 43.9535 13.2446 43.8535 13.2446Z" fill="#1A1A2B"/>
<path d="M62.6535 30.1446C59.6535 29.4446 56.7535 29.1446 53.7535 29.3446H53.4535L53.3535 29.0446C52.4535 26.6446 50.6535 24.4446 48.3535 23.2446C48.1535 23.1446 48.0535 22.9446 48.1535 22.7446C48.2535 22.5446 48.4535 22.4446 48.6535 22.5446C50.9535 23.8446 52.8535 26.0446 53.8535 28.4446C56.7535 28.2446 59.7535 28.5446 62.5535 29.2446C62.7535 29.3446 62.8535 29.5446 62.8535 29.7446C63.0535 29.9446 62.8535 30.1446 62.6535 30.1446Z" fill="#1A1A2B"/>
<path d="M53.2537 28.1446C53.0537 28.1446 52.9537 28.0446 52.8537 27.9446C52.7537 27.7446 52.8537 27.5446 53.0537 27.4446C55.3537 26.5446 57.8537 26.3446 60.5537 26.9446C60.7537 26.9446 60.8537 27.2446 60.8537 27.4446C60.8537 27.6446 60.5537 27.7446 60.3537 27.7446C57.8537 27.1446 55.4537 27.3446 53.3537 28.1446C53.3537 28.1446 53.3537 28.1446 53.2537 28.1446Z" fill="#1A1A2B"/>
<path d="M52.6538 26.9446C52.5538 26.9446 52.4538 26.8446 52.3538 26.7446C52.2538 26.5446 52.2538 26.3446 52.4538 26.2446C54.4538 24.8446 57.0538 24.3446 59.3538 24.8446C59.5538 24.8446 59.6538 25.1446 59.6538 25.3446C59.6538 25.5446 59.3538 25.6446 59.1538 25.6446C57.0538 25.1446 54.6538 25.6446 52.8538 26.9446C52.8538 26.9446 52.7538 26.9446 52.6538 26.9446Z" fill="#1A1A2B"/>
<path d="M52.0537 25.9446C51.9537 25.9446 51.8537 25.9446 51.7537 25.8446C51.6537 25.6446 51.6537 25.4446 51.7537 25.2446C53.2537 23.9446 55.2537 23.2446 57.0537 23.3446C57.2537 23.3446 57.4537 23.5446 57.4537 23.7446C57.4537 23.9446 57.2537 24.1446 57.0537 24.1446C55.5537 24.0446 53.6537 24.7446 52.3537 25.8446C52.2537 25.8446 52.1537 25.9446 52.0537 25.9446Z" fill="#1A1A2B"/>
<path d="M44.4535 16.6446C41.6535 16.6446 39.3535 18.5446 39.3535 20.9446C39.3535 23.3446 41.6535 25.2446 44.4535 25.2446C47.2535 25.2446 48.6535 23.3446 48.6535 20.9446C48.7535 18.5446 47.2535 16.6446 44.4535 16.6446Z" fill="#2F2947"/>
<path d="M46.2539 22.7446C46.2539 23.6446 46.9539 24.3446 47.8539 24.3446C48.7539 24.3446 49.4539 23.6446 49.4539 22.7446C49.4539 21.8446 48.7539 21.1446 47.8539 21.1446C46.9539 21.1446 46.2539 21.8446 46.2539 22.7446Z" fill="#DBD94D"/>
<path d="M48.7531 22.7446C48.7531 22.2446 48.3531 21.8446 47.8531 21.8446C47.3531 21.8446 46.9531 22.2446 46.9531 22.7446C46.9531 23.2446 47.3531 23.6446 47.8531 23.6446C48.3531 23.6446 48.7531 23.2446 48.7531 22.7446Z" fill="black"/>
<path d="M48.0537 21.9446C48.0537 21.6446 47.8537 21.4446 47.5537 21.4446C47.2537 21.4446 47.0537 21.6446 47.0537 21.9446C47.0537 22.2446 47.2537 22.4446 47.5537 22.4446C47.8537 22.4446 48.0537 22.2446 48.0537 21.9446Z" fill="white"/>
<path d="M45.6533 25.1446C45.6533 21.2446 42.5533 18.1446 38.6533 18.1446C34.7533 18.1446 31.6533 21.2446 31.6533 25.1446C31.6533 29.0446 34.7533 32.1446 38.6533 32.1446C42.4533 32.1446 45.6533 28.9446 45.6533 25.1446Z" fill="#1A1A2B"/>
<path d="M35.0539 23.5446C35.0539 23.5446 13.3539 21.2446 15.8539 47.5446C15.8539 47.5446 47.2539 56.6446 41.6539 26.5446L35.0539 23.5446Z" fill="#265A90"/>
<path d="M35.6531 32.6446C35.5531 32.5446 35.3531 32.4446 35.2531 32.2446C35.2531 32.3446 35.3531 32.4446 35.3531 32.4446C31.5531 31.8446 28.3531 29.2446 26.9531 25.6446C27.3531 29.8446 31.5531 33.2446 35.6531 32.6446Z" fill="#4375A3"/>
<path d="M25.1532 33.9446C26.1532 36.9446 29.3532 38.9446 32.4532 38.4446C29.2532 38.2446 26.5532 36.1446 25.6532 33.0446C23.1532 33.5446 20.7532 31.4446 20.7532 28.9446C20.1532 31.5446 22.5532 34.0446 25.1532 33.9446Z" fill="#4375A3"/>
<path d="M23.2532 38.5446C20.3532 39.4446 18.4532 36.4446 18.0532 33.9446C17.7532 36.6446 19.7532 39.8446 22.7532 39.4446C24.1532 43.7446 28.4532 46.1446 32.9532 45.9446C28.4532 45.5446 24.5532 42.9446 23.2532 38.5446Z" fill="#4375A3"/>
<path d="M20.5533 44.3446C18.5533 44.0446 16.9533 42.6446 16.1533 40.7446C16.2533 42.8446 17.9533 44.5446 19.9533 45.0446C20.5533 46.7446 22.4533 47.9446 24.2533 47.5446C22.5533 47.2446 20.9533 45.9446 20.5533 44.3446Z" fill="#4375A3"/>
<path d="M6.2535 14.8446C5.3535 14.9446 4.5535 15.1446 3.6535 15.2446C2.9535 15.4446 2.2535 15.5446 1.5535 15.9446C0.953499 16.3446 0.4535 16.9446 0.3535 17.6446C0.2535 18.5446 0.753499 19.3446 1.5535 19.8446C3.6535 21.3446 6.6535 21.0446 7.9535 23.7446C8.3535 24.5446 8.5535 25.6446 9.3535 26.1446C10.5535 26.8446 12.0535 25.9446 13.4535 25.8446C15.2535 25.6446 16.7535 26.8446 18.3535 27.6446C24.2535 30.7446 29.2535 27.2446 34.3535 24.1446V22.2446C34.3535 21.7446 31.6535 20.3446 31.1535 20.0446C29.9535 19.3446 28.7535 18.6446 27.5535 18.1446C25.1535 17.0446 22.6535 16.1446 20.0535 15.5446C15.5535 14.5446 10.8535 14.2446 6.2535 14.8446Z" fill="white"/>
<path d="M38.0531 25.7446L35.6531 24.7446C35.6531 24.7446 32.7531 30.4446 31.4531 33.3446C30.1531 36.2446 29.4531 39.6446 30.6531 42.6446C31.1531 44.0446 32.1531 45.3446 31.8531 46.8446C31.6531 48.1446 30.5531 49.2446 30.7531 50.5446C30.9531 52.1446 32.8531 52.9446 33.7531 54.3446C35.2531 56.5446 33.7531 59.8446 35.8531 61.8446C36.6531 62.6446 37.9531 62.8446 39.0531 62.6446C42.0531 62.0446 43.3531 59.0446 44.1531 56.3446C47.0531 45.9446 45.4531 33.7446 38.0531 25.7446Z" fill="white"/>
<path d="M35.4533 23.4446C35.4533 23.4446 25.8533 44.7446 45.2533 54.1446C54.1533 43.9446 48.6533 24.7446 35.4533 23.4446Z" fill="#6D2D38"/>
<path d="M36.4536 25.8446C36.3536 28.3446 36.3536 30.9446 36.7536 33.4446C37.0536 35.9446 37.6536 38.3446 38.3536 40.7446C39.1536 43.1446 40.1536 45.3446 41.2536 47.5446C42.4536 49.7446 43.8536 51.7446 45.4536 53.6446C43.5536 52.0446 41.9536 50.0446 40.6536 47.9446C39.2536 45.8446 38.2536 43.4446 37.4536 41.0446C36.6536 38.6446 36.1536 36.0446 35.9536 33.5446C35.7536 30.8446 35.9536 28.2446 36.4536 25.8446Z" fill="#873E4F"/>
<path d="M37.5537 25.0446C38.4537 27.1446 39.1537 29.3446 39.9537 31.4446C40.6537 33.6446 41.3537 35.7446 42.0537 37.9446C42.7537 40.1446 43.3537 42.3446 43.9537 44.5446C44.5537 46.7446 45.1537 48.9446 45.5537 51.2446C44.6537 49.1446 43.8537 46.9446 43.1537 44.8446C42.4537 42.6446 41.7537 40.5446 41.0537 38.3446C40.3537 36.1446 39.7537 33.9446 39.1537 31.7446C38.5537 29.5446 38.0537 27.3446 37.5537 25.0446Z" fill="#873E4F"/>
<path d="M38.9531 25.8446C40.6531 27.0446 42.0531 28.6446 43.2531 30.4446C44.4531 32.2446 45.3531 34.1446 46.0531 36.2446C46.7531 38.2446 47.2531 40.4446 47.4531 42.5446C47.7531 44.6446 47.7531 46.8446 47.6531 48.9446C47.5531 48.4446 47.5531 47.8446 47.4531 47.3446C47.3531 46.8446 47.3531 46.2446 47.2531 45.7446C47.0531 44.6446 46.9531 43.6446 46.7531 42.6446C46.3531 40.5446 45.8531 38.5446 45.1531 36.5446C44.4531 34.5446 43.6531 32.6446 42.6531 30.8446C41.5531 29.0446 40.3531 27.3446 38.9531 25.8446Z" fill="#873E4F"/>
<path d="M35.5539 24.9446C35.5539 24.9446 17.9539 27.4446 9.75391 9.84463C19.4539 5.84463 40.0539 9.14463 35.5539 24.9446Z" fill="#6D2D38"/>
<path d="M11.0537 10.3446C12.4537 12.0446 14.0537 13.5446 15.6537 14.9446C17.3537 16.3446 19.0537 17.5446 20.9537 18.6446C22.8537 19.7446 24.8537 20.6446 26.8537 21.3446C28.9537 22.0446 31.0537 22.6446 33.2537 23.0446C31.0537 23.0446 28.7537 22.7446 26.5537 22.1446C24.3537 21.5446 22.2537 20.6446 20.3537 19.5446C18.4537 18.4446 16.5537 17.1446 15.0537 15.5446C13.5537 13.9446 12.1537 12.2446 11.0537 10.3446Z" fill="#873E4F"/>
<path d="M13.5537 9.54462C15.3537 10.2446 17.1537 11.1446 18.8537 11.9446C20.5537 12.8446 22.3537 13.7446 23.9537 14.7446C25.6537 15.7446 27.2537 16.7446 28.8537 17.8446C30.4537 18.9446 32.0537 20.0446 33.5537 21.3446C31.7537 20.4446 30.0537 19.5446 28.3537 18.5446C26.7537 17.7446 25.1537 16.7446 23.4537 15.7446C21.7537 14.7446 20.1537 13.7446 18.4537 12.7446C16.7537 11.7446 15.1537 10.7446 13.5537 9.54462Z" fill="#873E4F"/>
<path d="M18.2539 8.94462C19.9539 8.84462 21.6539 9.14462 23.3539 9.54462C24.9539 10.0446 26.5539 10.6446 28.0539 11.5446C29.5539 12.4446 30.8539 13.4446 32.0539 14.7446C33.1539 15.9446 34.1539 17.3446 34.8539 18.8446C33.7539 17.5446 32.6539 16.4446 31.4539 15.3446C30.2539 14.2446 28.9539 13.3446 27.5539 12.5446C26.1539 11.7446 24.6539 11.0446 23.1539 10.4446C21.5539 9.74462 19.9539 9.24462 18.2539 8.94462Z" fill="#873E4F"/>
</svg>
