<svg width="64" height="64" viewBox="0 0 64 64" fill="none" xmlns="http://www.w3.org/2000/svg">
<g>
<path d="M20.6995 42.4C20.6995 35.4 12.7995 30.2 12.7995 30.2C5.79954 40.9 14.1995 44.8 12.4995 56.2L13.7995 58.5L17.1995 58C19.5995 53.6 20.6995 46.5 20.6995 42.4Z" fill="#1C1D3E"/>
<path d="M12.5002 56.1C12.5002 56.1 12.4002 56.5 12.4002 56.6C11.7002 60.6 9.6002 59.6 9.2002 62H13.8002C13.8002 62 15.6002 60.6 16.9002 58.4C17.0002 58.2 17.1002 58.1 17.2002 57.9C17.2002 57.9 16.0002 56.9 14.5002 56.5C13.4002 56.2 12.5002 56.1 12.5002 56.1Z" fill="#DEDEEE"/>
<path d="M42.9997 37.5C42.9997 37.5 23.7997 31.2 23.7997 22.1L10.5997 21.9C0.299721 30 1.19972 46.3 21.6997 47.7C21.9997 51.6 24.0997 59.2 36.3997 59.2L42.9997 37.5Z" fill="white"/>
<path d="M40.9004 27.2C30.7004 23.2 26.0004 30.8 24.1004 22.1L23.7004 23C23.4004 30.6 19.9004 30.3 19.4004 37.1L28.7004 43.1C34.4004 40.4 39.1004 43.9 39.1004 43.9C32.1004 43.4 27.7004 52.7 33.3004 58.3C29.3004 58.9 27.9004 60.2 27.7004 62H49.0004V55.6C53.0004 46.7 52.5004 31.7 40.9004 27.2Z" fill="#38355E"/>
<path d="M25.3003 23.3C25.2003 23.3 25.1003 23.3 25.0003 23.4C22.5003 24.5 19.5003 25.1 16.4003 25.1C13.3003 25.1 10.3003 24.5 7.80031 23.4C7.70031 23.4 7.60031 23.3 7.50031 23.3C6.80031 23.3 6.10031 23.7 6.30031 24.9C6.60031 26.9 11.4003 28.5 16.4003 28.5C21.5003 28.5 26.2003 26.8 26.5003 24.9C26.7003 23.6 25.9003 23.3 25.3003 23.3Z" fill="#0382C2"/>
<path d="M15.5004 32.1C15.5004 33.9 14.0004 35.4 12.2004 35.4C10.4004 35.4 8.90039 33.9 8.90039 32.1C8.90039 30.3 10.4004 28.8 12.2004 28.8C14.0004 28.8 15.5004 30.3 15.5004 32.1Z" fill="#FBB216"/>
<path d="M12.2002 29.9C12.1002 29.9 12.0002 29.9 11.9002 29.8C11.8002 29.7 11.7002 29.6 11.7002 29.5V27.5C11.7002 27.4 11.7002 27.3 11.8002 27.3C11.9002 27.2 12.0002 27.1 12.1002 27.1C12.2002 27.1 12.3002 27.1 12.3002 27.2C12.4002 27.3 12.5002 27.4 12.5002 27.6V29.6C12.5002 29.7 12.4002 29.9 12.3002 29.9C12.4002 29.9 12.3002 29.9 12.2002 29.9Z" fill="#ED7E23"/>
<path d="M13.7002 33C13.7002 33.7 13.0002 34.2 12.2002 34.2C11.4002 34.2 10.7002 33.7 10.7002 33C10.7002 32.3 11.4002 31.8 12.2002 31.8C13.1002 31.8 13.7002 32.3 13.7002 33Z" fill="#ED7E23"/>
<path d="M12.0996 31C12.0996 31.3 11.8996 31.5 11.5996 31.5C11.2996 31.5 11.0996 31.3 11.0996 31C11.0996 30.7 11.2996 30.5 11.5996 30.5C11.8996 30.5 12.0996 30.7 12.0996 31Z" fill="#ED7E23"/>
<path d="M13.2998 31C13.2998 31.3 13.0998 31.5 12.7998 31.5C12.4998 31.5 12.2998 31.3 12.2998 31C12.2998 30.7 12.4998 30.5 12.7998 30.5C13.0998 30.5 13.2998 30.7 13.2998 31Z" fill="#ED7E23"/>
<path d="M14.3998 31.8C14.2998 32 13.9998 32.1 13.7998 32C13.5998 31.9 13.4998 31.6 13.5998 31.4C13.6998 31.2 13.9998 31.1 14.1998 31.2C14.3998 31.3 14.4998 31.6 14.3998 31.8Z" fill="#ED7E23"/>
<path d="M10.0998 31.8C10.1998 32 10.4998 32.1 10.6998 32C10.8998 31.9 10.9998 31.6 10.8998 31.4C10.7998 31.2 10.4998 31.1 10.2998 31.2C10.0998 31.3 9.99978 31.6 10.0998 31.8Z" fill="#ED7E23"/>
<path d="M3.20026 -1.39999C3.20026 -1.39999 10.4003 0.900005 14.2003 7.70001L3.30026 12.4C0.900256 6.00001 3.20026 -1.39999 3.20026 -1.39999Z" fill="#38355E"/>
<path d="M29.2998 -1.39999C29.2998 -1.39999 22.0998 0.900005 18.2998 7.70001L29.1998 12.3C31.6998 6.00001 29.2998 -1.39999 29.2998 -1.39999Z" fill="#38355E"/>
<path d="M4.30028 0.700012C3.90028 2.80001 3.40028 6.60001 4.30028 10.3L11.9003 7.00001C9.60028 3.60001 6.30028 1.70001 4.30028 0.700012Z" fill="#F16D6E"/>
<path d="M28.1996 0.700012C26.1996 1.60001 22.9996 3.60001 20.5996 7.00001L28.2996 10.3C29.1996 6.70001 28.6996 2.90001 28.1996 0.700012Z" fill="#F16D6E"/>
<path d="M32.1 17.1C32.1 15.9 31.8 14.7 31.3 13.5C29.2 8.60001 23.7 4.60001 16.3 4.60001C8.8 4.60001 3.3 8.50001 1.3 13.5C0.8 14.7 0.5 15.9 0.5 17.1L16.3 25.2L32.1 17.1Z" fill="#38355E"/>
<path d="M17.9996 13C16.5996 11.2 16.3996 9.20001 16.3996 9.20001C16.3996 9.20001 16.1996 11.2 14.7996 13C10.6996 18.3 0.599609 17.1 0.599609 17.1C0.599609 22.2 7.69961 26.3 16.3996 26.3C25.0996 26.3 32.1996 22.2 32.1996 17.1C32.0996 17.1 22.0996 18.2 17.9996 13Z" fill="white"/>
<path d="M12.4004 16.9C11.7004 16.6 11.0004 16.4 10.4004 16.3C9.70039 16.1 9.00039 16 8.30039 15.8H8.00039H7.70039C7.50039 15.8 7.30039 15.7 7.20039 15.7C6.80039 15.7 6.50039 15.6 6.10039 15.6C5.40039 15.5 4.70039 15.5 3.90039 15.5C4.60039 15.5 5.30039 15.5 6.10039 15.5C6.50039 15.5 6.80039 15.6 7.20039 15.6C7.40039 15.6 7.60039 15.6 7.70039 15.7H8.00039H8.30039C9.00039 15.8 9.70039 15.9 10.4004 16.1C11.1004 16.3 11.8004 16.4 12.5004 16.7L12.4004 16.9Z" fill="#A8A7C0"/>
<path d="M12.3996 17.6C11.6996 17.5 10.8996 17.5 10.1996 17.5C9.49961 17.5 8.69961 17.6 7.99961 17.6C7.59961 17.6 7.29961 17.7 6.89961 17.7L6.39961 17.8C6.29961 17.8 6.19961 17.8 6.09961 17.8L5.79961 18C5.09961 18.1 4.29961 18.3 3.59961 18.5C4.29961 18.3 4.99961 18 5.69961 17.9L5.99961 17.8C6.09961 17.8 6.19961 17.8 6.29961 17.7L6.79961 17.6C7.19961 17.5 7.49961 17.5 7.89961 17.4C8.59961 17.3 9.39961 17.2 10.0996 17.2C10.7996 17.2 11.5996 17.2 12.2996 17.2L12.3996 17.6Z" fill="#A8A7C0"/>
<path d="M12.8 18.3C12.1 18.4 11.4 18.6 10.8 18.8C10.1 19 9.5 19.2 8.8 19.5C8.1 19.8 7.5 20 6.9 20.3C6.3 20.6 5.6 20.9 5 21.3C5.6 20.9 6.2 20.6 6.8 20.2C7.4 19.9 8.1 19.6 8.7 19.3C9.4 19 10 18.8 10.7 18.5C11.4 18.3 12.1 18.1 12.8 17.9V18.3Z" fill="#A8A7C0"/>
<path d="M20.1996 16.9C20.8996 16.6 21.5996 16.4 22.1996 16.3C22.8996 16.1 23.5996 16 24.2996 15.8H24.5996H24.8996C25.0996 15.8 25.2996 15.7 25.3996 15.7C25.7996 15.7 26.0996 15.6 26.4996 15.6C27.1996 15.5 27.8996 15.5 28.6996 15.5C27.9996 15.5 27.2996 15.5 26.4996 15.5C26.0996 15.5 25.7996 15.6 25.3996 15.6C25.1996 15.6 24.9996 15.6 24.8996 15.7H24.5996H24.2996C23.5996 15.8 22.8996 15.9 22.1996 16.1C21.4996 16.3 20.7996 16.4 20.0996 16.7L20.1996 16.9Z" fill="#A8A7C0"/>
<path d="M20.2002 17.6C20.9002 17.5 21.7002 17.5 22.4002 17.5C23.1002 17.5 23.9002 17.6 24.6002 17.6C25.0002 17.6 25.3002 17.7 25.7002 17.7L26.2002 17.8C26.3002 17.8 26.4002 17.8 26.5002 17.8L26.8002 17.9C27.5002 18 28.3002 18.2 29.0002 18.4C28.3002 18.2 27.6002 18 26.8002 17.8L26.5002 17.7C26.4002 17.7 26.3002 17.7 26.2002 17.6L25.7002 17.5C25.3002 17.4 25.0002 17.4 24.6002 17.3C23.9002 17.2 23.1002 17.1 22.4002 17.1C21.7002 17.1 20.9002 17.1 20.2002 17.1V17.6Z" fill="#A8A7C0"/>
<path d="M19.7998 18.3C20.4998 18.4 21.1998 18.6 21.7998 18.8C22.4998 19 23.0998 19.2 23.7998 19.5C24.4998 19.8 25.0998 20 25.6998 20.3C26.2998 20.6 26.9998 20.9 27.5998 21.3C26.9998 20.9 26.3998 20.6 25.7998 20.2C25.1998 19.9 24.4998 19.6 23.8998 19.3C23.1998 19 22.5998 18.8 21.8998 18.5C21.1998 18.3 20.4998 18.1 19.7998 17.9V18.3Z" fill="#A8A7C0"/>
<path d="M17.4996 15.6C16.7996 15.4 16.2996 15.8 16.2996 15.8C16.2996 15.8 15.7996 15.5 15.0996 15.6L16.2996 16.9L17.4996 15.6Z" fill="#F16D6E"/>
<path d="M6.59961 9.8C6.59961 9.8 11.6996 7 13.0996 12.9C13.0996 12.8 7.39961 15.8 6.59961 9.8Z" fill="#FDBF21"/>
<path d="M11.5 11.5C11.5 12.4 11 13.1 10.3 13.1C9.6 13.1 9 12.4 9 11.5C9 10.6 9.5 9.90001 10.2 9.90001C10.9 9.90001 11.5 10.6 11.5 11.5Z" fill="#08080C"/>
<path d="M9.79961 11.3C9.79961 11.7 9.49961 11.9 9.19961 11.9C8.79961 11.9 8.59961 11.6 8.59961 11.3C8.59961 10.9 8.89961 10.7 9.19961 10.7C9.49961 10.7 9.79961 10.9 9.79961 11.3Z" fill="white"/>
<path d="M26 9.8C26 9.8 20.9 7 19.5 12.9C19.5 12.8 25.3 15.8 26 9.8Z" fill="#FDBF21"/>
<path d="M21.2002 11.5C21.2002 12.4 21.7002 13.1 22.4002 13.1C23.1002 13.1 23.6002 12.4 23.6002 11.5C23.6002 10.6 23.1002 9.90001 22.4002 9.90001C21.7002 9.90001 21.2002 10.6 21.2002 11.5Z" fill="#08080C"/>
<path d="M21.9004 11.3C21.9004 11.6 21.7004 11.8 21.4004 11.8C21.1004 11.8 20.9004 11.6 20.9004 11.3C20.9004 11 21.1004 10.8 21.4004 10.8C21.6004 10.8 21.9004 11 21.9004 11.3Z" fill="white"/>
<path d="M20.0001 16C20.6001 17.4 19.4001 19 18.0001 18.6C17.1001 18.3 16.3001 17 16.3001 17C16.3001 17 15.5001 18.3 14.6001 18.6C13.2001 19 12.0001 17.5 12.6001 16C11.4001 18 13.0001 19.5 14.5001 19.3C15.4001 19.2 16.2001 18.1 16.2001 18.1C16.2001 18.1 17.0001 19.2 17.9001 19.3C19.6001 19.5 21.2001 17.9 20.0001 16Z" fill="#08080C"/>
<path d="M57.6996 25.7C57.7996 25.3 57.9996 25 58.0996 24.7V19.9L53.9996 21.5C53.6996 21.9 53.4996 22.3 53.1996 22.7C48.5996 31 59.2996 46.4 54.9996 53.4C53.2996 56.2 48.8996 55.7 48.8996 55.7L45.0996 56.6L48.5996 62C48.5996 62 59.8996 62.8 61.8996 51.8C63.3996 44.4 55.2996 33.4 57.6996 25.7Z" fill="#38355E"/>
<path d="M63.3996 19.5C62.8996 16.6 57.2996 17.2 54.0996 21.4C54.0996 21.4 55.1996 21.3 56.5996 22.4C58.0996 23.7 58.1996 24.6 58.1996 24.6C59.9996 21.4 63.9996 22.4 63.3996 19.5Z" fill="white"/>
<path d="M29.6995 42.4C29.6995 35.4 21.7995 30.2 21.7995 30.2C14.7995 40.9 23.1995 44.8 21.4995 56.2L22.7995 58.5L26.1995 58C28.5995 53.6 29.6995 46.5 29.6995 42.4Z" fill="#38355E"/>
<path d="M21.5002 56.1C21.5002 56.1 21.4002 56.5 21.4002 56.6C20.7002 60.6 18.6002 59.6 18.2002 62H22.8002C22.8002 62 24.6002 60.6 25.9002 58.4C26.0002 58.2 26.1002 58.1 26.2002 57.9C26.2002 57.9 25.0002 56.9 23.5002 56.5C22.5002 56.2 21.5002 56.1 21.5002 56.1Z" fill="white"/>
</g>
</svg>
