<svg width="64" height="64" viewBox="0 0 64 64" fill="none" xmlns="http://www.w3.org/2000/svg">
<path d="M48.9 8.1C43.7 3.1 34.4 1.6 28.6 5.9C14.9 16.2 15.7 44.3 17.1 52.1C17.4 54 17.9 56 18.9 57.7C21.8 62.7 29.3 62.7 33.7 58.9C38.4 54.9 39.5 47.4 41.7 45.5C47.1 40.8 50 38.6 53.3 28.2C55.4 21.4 54 13.1 48.9 8.1Z" fill="#F7DCC4"/>
<path d="M23.7002 31.7C23.7002 31.7 22.9002 17.7 30.2002 12.3C36.8002 7.3 45.4002 9 48.0002 16.1C50.6002 23.2 46.7002 34.2 43.6002 38.5C44.1002 34.6 49.0002 18.3 41.6002 14.6C27.5002 7.7 23.7002 31.7 23.7002 31.7Z" fill="#EFB9A3"/>
<path d="M26.2 30.1C26.2 30.1 34.2 30.9 32.8 39.7C31.3 49 24 49.9 24 49.9C24 49.9 28.8 46.9 29.9 39.8C31 33.1 26.2 30.1 26.2 30.1Z" fill="#EFB9A3"/>
<path d="M23.7 29.3C23.7 29.3 23.2 31.8 24.5 34.3C25.8 36.8 28 38.1 28 38.1L23.7 29.3Z" fill="#EFB9A3"/>
</svg>
