<svg width="64" height="64" viewBox="0 0 64 64" fill="none" xmlns="http://www.w3.org/2000/svg">
<path d="M60 20.9C45.3 22.3 39.4 13.5 31.2 22.6C23.9 13.9 15.7 22 4 21.1C4 21.1 18.3 28.3 32.2 28C46 27.8 60 20.9 60 20.9Z" fill="#E8887E"/>
<path d="M60 20.9C60 20.9 52.6 49.2 31 49C9.7 48.8 4 21.1 4 21.1L29.7 31.3L38.3 32.8L60 20.9Z" fill="#E8887E"/>
<path d="M4 21.1C7.3 22.5 10.6 23.5 13.9 24.3L32 29.2L50.5 23.9C56.4 22.5 60 20.9 60 20.9C60 20.9 55.8 30.5 46.1 36.1C42.1 38.4 37.1 38.5 31.2 38.5C25.5 38.5 21 38.7 17.3 36.6C7.5 31.1 4 21.1 4 21.1Z" fill="#2A2A2C"/>
<path d="M36.0999 33.4C34.7999 33.2 33.4999 33.1 32.1999 33.1C26.6999 33.1 21.1999 34.4 17.3999 36.6C20.9999 38.7 25.2999 40.3 31.4999 40.2C37.5999 40.1 42.2999 38.4 46.1999 36.1C43.1999 34.8 39.9999 33.9 36.0999 33.4Z" fill="#BF5656"/>
<path d="M32.4998 30C43.2998 29.7 50.4998 23.9 50.4998 23.9C41.8998 26 28.2998 27.8 13.7998 24.3C13.7998 24.4 21.5998 30.3 32.4998 30Z" fill="white"/>
</svg>
