<svg width="64" height="64" viewBox="0 0 64 64" fill="none" xmlns="http://www.w3.org/2000/svg">
<path d="M54.4996 24.4C50.8996 21.1 44.7997 24.2 44.6996 24.7C46.1996 24 49.4996 23.9 50.9996 25C55.9996 28.9 39.5996 38.8 31.5996 47.4C28.2996 50.9 37.6996 53.6 34.0996 55.3C38.9996 54.5 44.3996 50.9 49.1996 45.7C56.8997 37.5 57.6996 27.4 54.4996 24.4Z" fill="#A05440"/>
<path d="M38.9998 3.7C32.0998 4 26.9998 8.8 27.1998 14.4C27.1998 15 27.3998 18 25.7998 20.1C23.6998 22.8 15.9998 25 14.5998 41.9C13.1998 58.5 7.7998 62.9 7.7998 62.9C7.7998 62.9 17.5998 64.4 24.8998 57.2C33.2998 55.4 37.4998 51.1 41.2998 45.4C49.8998 32.5 46.4998 20.6 46.4998 20.6C48.2998 18.7 45.8998 3.5 38.9998 3.7Z" fill="#A05440"/>
<path d="M40.8996 57.4C39.3996 54.8 36.5996 53.1 33.4996 53.1C30.2996 53.1 27.4996 54.8 26.0996 57.4H40.8996Z" fill="#1D1D3F"/>
<path d="M51.3997 7.1C49.4997 3.4 45.5997 1 39.3997 1C31.1997 1 26.5997 5.2 26.5997 11.4C26.5997 12.5 26.7997 13.6 27.0997 14.7C27.6997 17.3 31.2997 22.5 36.2997 23.7C37.4997 24 39.1997 34.3 38.1997 37.7C36.6997 42.8 25.6997 54.4 25.6997 54.4C34.2997 56.8 40.7997 55.7 46.4997 46.6C54.4997 33.9 54.3997 13.2 51.3997 7.1Z" fill="#D18762"/>
<path d="M33.9997 52C29.2997 58 21.2997 59 18.6997 58.4C18.6997 58.4 25.4997 55.1 30.4997 49.5C35.5997 43.8 37.2997 36.3 37.2997 36.3C39.1997 37.7 38.6997 45.9 33.9997 52Z" fill="#F7CA9A"/>
<path d="M29.1996 24.9C30.6996 24.2 33.9996 24 35.4996 25.3C40.4996 29.6 37.1996 40.3 29.1996 49.7C25.8996 53.5 22.1996 56.5 18.5996 58.3C23.4996 57.4 28.8996 53.5 33.6996 47.8C41.4996 38.8 42.2996 27.8 38.9996 24.6C35.3996 21 29.2996 24.4 29.1996 24.9Z" fill="#7C3D31"/>
<path d="M19.4996 45.9C20.2996 46.5 20.7996 47.6 20.3996 48.7C20.0996 49.8 19.0996 50.4 18.0996 50.5L19.4996 45.9Z" fill="#7C3D31"/>
<path d="M22.5997 35.6C23.3997 36.2 23.8997 37.3 23.4997 38.4C23.1997 39.5 22.1997 40.1 21.1997 40.2L22.5997 35.6Z" fill="#7C3D31"/>
<path d="M24.4996 41.8C25.2996 42.4 25.7996 43.5 25.3996 44.6C25.0996 45.7 24.0996 46.3 23.0996 46.4L24.4996 41.8Z" fill="#7C3D31"/>
<path d="M31.4 30.3C32.2 30.9 32.7 32 32.3 33.1C32 34.2 31 34.8 30 34.9L31.4 30.3Z" fill="#7C3D31"/>
<path d="M43.3996 4.3C41.8996 4.3 40.4996 4.9 39.3996 6C38.2996 4.9 36.8996 4.3 35.3996 4.3C31.6996 4.3 28.5996 6.5 28.5996 11.5C28.5996 16.5 35.2996 22 39.3996 22C43.4996 22 50.1996 16.5 50.1996 11.5C50.1996 6.5 47.1996 4.3 43.3996 4.3Z" fill="#F7CA9A"/>
<path d="M46.0997 10.6C46.0997 10 45.6997 7.8 44.7997 7.8C40.6997 7.8 39.7997 11.6 39.7997 13.6L39.5997 14.3L39.3997 15.7L39.1997 14.3L38.9997 13.6C38.9997 11.6 38.0997 7.8 33.9997 7.8C33.0997 7.8 32.6997 10 32.6997 10.6C32.6997 11.3 35.4997 13.8 35.4997 13.8L35.2997 13.9C35.2997 13.9 35.8997 18.5 39.4997 19C43.0997 18.5 43.6997 13.9 43.6997 13.9L43.4997 13.8C43.3997 13.8 46.0997 11.3 46.0997 10.6Z" fill="white"/>
<path d="M43.7996 14.4C42.0996 13.8 41.0996 11.9 41.6996 10.1C42.2996 8.3 44.1996 7.4 45.9996 8C47.6996 8.6 48.6996 10.5 48.0996 12.3C47.4996 14.1 45.4996 15 43.7996 14.4Z" fill="#A05440"/>
<path d="M45.7 13.6C47 13.1 47.7 11.7 47.3 10.4C46.8 9.1 45.4 8.4 44.1 8.8C42.8 9.3 42.1 10.7 42.5 12C42.9 13.3 44.4 14 45.7 13.6Z" fill="white"/>
<path d="M45.4 12.7C46.2 12.4 46.7 11.5 46.4 10.6C46.1 9.8 45.2 9.3 44.4 9.6C43.6 9.9 43.1 10.8 43.4 11.7C43.6 12.6 44.5 13 45.4 12.7Z" fill="black"/>
<path d="M43.7999 12.4C44.1999 12.2 44.4999 11.8 44.2999 11.3C44.1999 10.9 43.6999 10.6 43.1999 10.8C42.7999 11 42.4999 11.4 42.6999 11.9C42.8999 12.4 43.3999 12.6 43.7999 12.4Z" fill="white"/>
<path d="M35.0997 14.4C36.7997 13.8 37.7997 11.9 37.1997 10.1C36.5997 8.3 34.6997 7.4 32.8997 8C31.1997 8.6 30.1997 10.5 30.7997 12.3C31.3997 14.1 33.3997 15 35.0997 14.4Z" fill="#A05440"/>
<path d="M34.7996 13.6C36.0996 13.1 36.7996 11.7 36.3996 10.4C35.8996 9.1 34.4996 8.4 33.1996 8.8C31.8996 9.3 31.1996 10.7 31.5996 12C32.0996 13.3 33.4996 14 34.7996 13.6Z" fill="white"/>
<path d="M34.5997 12.7C35.3997 12.4 35.8997 11.5 35.5997 10.6C35.2997 9.8 34.3997 9.3 33.5997 9.6C32.7997 9.9 32.2997 10.8 32.5997 11.7C32.7997 12.6 33.6997 13 34.5997 12.7Z" fill="black"/>
<path d="M32.9996 12.4C33.3996 12.2 33.6996 11.8 33.4996 11.3C33.3996 10.9 32.8996 10.6 32.3996 10.8C31.9996 11 31.6996 11.4 31.8996 11.9C32.0996 12.4 32.5996 12.6 32.9996 12.4Z" fill="white"/>
<path d="M39.3997 17.8C39.8997 17 40.4997 15.8 40.6997 14.5C40.7997 13.9 40.5997 13.3 40.0997 13C39.8997 12.9 39.6997 12.8 39.3997 12.8C39.1997 12.8 38.8997 12.9 38.6997 13C38.1997 13.3 37.9997 13.9 38.0997 14.5C38.3997 15.9 38.9997 17.1 39.3997 17.8Z" fill="#1D1D3F"/>
</svg>
