<svg width="64" height="64" viewBox="0 0 64 64" fill="none" xmlns="http://www.w3.org/2000/svg">
<g clip-path="url(#clip0_181_10443)">
<path d="M23.5001 44.9C23.3001 39.3 16.9001 35.4 16.9001 35.4C11.6001 44 18.4001 46.9 17.3001 56C17.3001 56 17.3001 56.3 17.3001 56.4C16.8001 59.6 13.9001 56.8 12.6001 60.8L18.6001 60.7C18.6001 60.7 20.0001 59.6 21.0001 57.8C21.1001 57.7 21.1001 57.5 21.2001 57.4C22.9001 53.8 23.6001 48.2 23.5001 44.9Z" fill="#D88355"/>
<path d="M37.5 33.2C36.4 31.5 35.4 31.2 33.5 30.5C32.2 30 29.5 28.2 27.6 27.4C25.5 26.6 20.9 26.4 20.9 26.4C20.9 26.4 15 18.9 12.2 29C9.40004 39.1 13.8 49.4 23.6 51.2L35.7 51.8C35.7 51.9 42.4 40.7 37.5 33.2Z" fill="#F4A062"/>
<path d="M58.8001 48C58.8001 56.7 51.5001 59 41.9001 59C32.3001 59 21.1001 49.7 21.1001 41C21.1001 32.3 28.7001 28.3 38.3001 28.3C47.9001 28.4 58.8001 39.4 58.8001 48Z" fill="#F4A062"/>
<path d="M23.1999 46.7C17.1999 45.3 14.0999 38.6 13.7999 31.4C13.7999 30.4 11.8999 32.6 11.4999 32.9C11.4999 32.9 8.19989 48 23.6999 51.2L24.8999 51.3C27.8999 55.9 33.4999 59.1 39.8999 59.1C40.3999 59.1 40.8999 59.1 41.3999 59.1C41.4999 58.4 41.5999 57.7 41.4999 56.9C40.9999 51.8 30.5999 48.4 23.1999 46.7Z" fill="#F7CAA6"/>
<path d="M26.6002 44.9C26.4002 39.3 20.0002 35.4 20.0002 35.4C14.7002 44 21.5002 46.9 20.4002 56C20.4002 56 20.4002 56.3 20.4002 56.4C19.9002 59.6 17.0002 56.8 15.7002 60.8L21.7002 60.7C21.7002 60.7 23.1002 59.6 24.1002 57.8C24.2002 57.7 24.2002 57.5 24.3002 57.4C25.9002 53.8 26.7002 48.2 26.6002 44.9Z" fill="#F4A062"/>
<path d="M53.2002 47.7C53.4002 46.6 54.8002 43.1 62.9002 42.2C62.9002 42.2 67.0002 56.2 55.1002 55.5L53.2002 47.7Z" fill="#F4A062"/>
<path d="M62.9001 42.2C62.9001 42.2 64.2001 50 57.4001 52.7C57.4001 52.7 56.9001 54.5 55.6001 55.6C68.3001 55.8 62.9001 42.2 62.9001 42.2Z" fill="#F7CAA6"/>
<path d="M12.4998 19.8C12.4998 19.8 11.1998 13.9 12.2998 9.9C13.3998 5.9 17.0998 3.3 18.2998 3.4C19.5998 3.5 19.7998 10.4 18.9998 12.8C18.3998 14.3 17.1998 17.6 15.7998 19.3C14.8998 20.1 12.4998 19.8 12.4998 19.8Z" fill="#D88355"/>
<path d="M19 18C17.8 17 14.2 15.8 9.8 16.7C6.6 17.3 4.2 20 2.2 22.3C0.7 24.1 0 25.3 0 26.9C0 27.4 0.4 27.4 0.7 27.8C0.8 28 0.9 28.7 1 28.8C2.1 29.9 2.9 30.7 3.8 30.7C4.7 30.8 5.7 31.4 6.6 31.8C8.1 32.4 11.1 33.2 14.2 33.1L23.9 26.7C24 26.7 22.4 20.8 19 18Z" fill="#F4A062"/>
<path d="M13.1998 20.4C13.7998 22.2 12.3998 24.3 10.0998 25.1C7.79977 25.9 5.89977 25.5 5.19977 23.7C4.69977 22.6 5.59977 20 7.99977 18.9C10.2998 17.8 12.5998 18.7 13.1998 20.4Z" fill="#F7CAA6"/>
<path d="M14.3001 25.3C14.9001 27.1 13.5001 29.2 11.2001 30C8.9001 30.8 6.4001 30.1 5.8001 28.3C5.2001 26.5 6.6001 24.4 8.9001 23.6C11.3001 22.8 13.7001 23.5 14.3001 25.3Z" fill="#F4A062"/>
<path d="M8.79991 23.1C8.39991 23.2 7.89991 24.1 7.89991 24.1C7.59991 24.3 7.29991 24.5 6.99991 24.8C5.89991 23.8 5.79991 22 6.79991 21C7.09991 20.7 7.49991 20.4 7.89991 20.3C9.29991 19.9 10.6999 20.7 11.0999 22C11.1999 22.4 11.1999 22.9 11.1999 23.3C10.8999 23.3 10.4999 23.3 10.1999 23.4C10.1999 23.3 9.19991 23 8.79991 23.1Z" fill="white"/>
<path d="M9.20004 23.5C8.80004 23.6 8.30004 23.8 7.90004 24C7.10004 23.5 6.90004 22.5 7.40004 21.8C7.60004 21.5 7.90004 21.2 8.30004 21.1C9.10004 20.9 10 21.3 10.3 22.2C10.4 22.6 10.4 22.9 10.3 23.3C9.80004 23.4 9.50004 23.5 9.20004 23.5Z" fill="#2A2A2C"/>
<path d="M9.5002 20.8C9.0002 20.8 8.7002 21.3 8.7002 21.8C8.7002 22.3 9.2002 22.7 9.6002 22.6C10.1002 22.6 10.4002 22.1 10.4002 21.6C10.4002 21.1 9.9002 20.8 9.5002 20.8Z" fill="white"/>
<path d="M8.0002 28.3C8.0002 29.6 6.30019 30.7 4.2002 30.7C2.1002 30.7 0.900195 29.7 0.900195 28.4C0.900195 28.3 0.700195 27.9 0.700195 27.9C3.0002 26.8 2.5002 26.2 2.5002 26.2C3.0002 26 3.60019 25.9 4.2002 25.9C6.30019 25.9 8.0002 27 8.0002 28.3Z" fill="#F7CAA6"/>
<path d="M0 26.7C1.2 27 2 27.1 2.5 26C2.7 27 1.6 28 0.7 28C0 27.9 0 27 0 26.7Z" fill="#2A2A2C"/>
<path d="M14.7002 17C14.7002 17 15.5002 11.3 18.2002 8.1C20.9002 4.9 25.6002 4.2 26.7002 4.8C27.8002 5.4 26.5002 11.1 24.1002 13.7C22.9002 15 20.2002 17.7 18.4002 18.9C17.3002 19.5 14.7002 17 14.7002 17Z" fill="#F4A062"/>
<path d="M17.3001 14.2C17.4001 12.8 17.9001 11.4 18.9001 10.1C21.0001 7.5 25.0001 5.9 25.6001 6.5C26.1001 7.1 24.4001 11.2 23.0001 12.8C22.6001 13.2 20.8001 14.8 19.9001 15.2C17.8001 16.3 17.1001 17.2 17.1001 17.2C17.1001 17.2 17.2001 16.4 17.3001 14.2Z" fill="#FFC6BD"/>
<path d="M50.0001 45.4C51.5001 51.4 48.4001 57.4 43.0001 58.7C37.6001 60 32.1001 56.3 30.6001 50.3C29.1001 44.3 32.2001 38.3 37.6001 37C42.9001 35.6 48.5001 39.4 50.0001 45.4Z" fill="#F7CAA6"/>
<path d="M53.2 37.7C47.6 33.5 40 35.5 39.4 35.6C34 36.9 30.9 42.9 32.4 48.9C33.3 52.3 35.4 55 38.1 56.4C30.1 55.1 25.1 55.3 25.4 60.4H52.1C53 59.8 53.4 58 52.9 57C50.5 51.7 53 46.2 54.8 43.6C55.6 42.8 54.2 38.5 53.2 37.7Z" fill="#F4A062"/>
</g>
<defs>
<clipPath id="clip0_181_10443">
<rect width="64" height="64" fill="white"/>
</clipPath>
</defs>
</svg>
