<svg width="64" height="64" viewBox="0 0 64 64" fill="none" xmlns="http://www.w3.org/2000/svg">
<g clip-path="url(#clip0_181_10465)">
<path d="M56.9004 21.7C57.2004 20.4 57.8004 18.5 58.8004 16.4C60.5004 12.9 62.2004 11.2 61.9004 10.9C61.5004 10.6 58.3004 12.4 56.6004 15.7C55.6004 17.6 55.4004 19.5 55.3004 20.7C55.2004 21.1 55.4004 21.5 55.7004 21.7C56.1004 22 56.5004 22 56.9004 21.7Z" fill="#7371AE"/>
<path d="M47.5002 54.9C53.4002 40.1 46.1002 23.3 31.3002 17.4C19.5002 12.6 6.00023 18.4 1.30023 30.3C-2.49977 39.8 2.20023 50.5 11.7002 54.3L16.2002 55.5L46.5002 56.3L47.5002 54.9Z" fill="#4BAB94"/>
<path d="M17.5003 21.2C19.5003 19 23.5003 20.9 25.1003 18.8C25.8003 17.9 25.8003 16.7 25.6003 15.9C17.4003 14.9 9.30029 18.3 4.30029 24.9C4.50029 27 5.40029 27.9 5.80029 28.3C8.50029 30.6 14.4003 28.6 16.3003 25.2C17.3003 23.4 16.4003 22.5 17.5003 21.2Z" fill="#77C9B5"/>
<path d="M25.9005 22.1C23.8005 21.1 20.5005 20.5 19.2005 21.9C18.1005 23.2 19.6005 25 18.5005 27.4C17.3005 30.1 14.6005 29.9 14.4005 31.4C14.1005 33.8 20.4005 38.4 25.8005 36.6C26.0005 36.5 30.0005 35.1 30.9005 31.3C32.0005 27.4 28.9005 23.6 25.9005 22.1Z" fill="#77C9B5"/>
<path d="M12.4003 33.2C10.6003 31.4 7.40033 30.3 5.20033 31.7C2.40033 33.4 2.10033 38.3 4.50033 41.1C6.70033 43.5 11.1003 44.2 13.3003 41.9C15.6003 39.5 14.5003 35.4 12.4003 33.2Z" fill="#77C9B5"/>
<path d="M57.2002 11.7C56.9002 13.6 58.1002 15.3 59.9002 15.7C61.8002 16 63.5002 14.8 63.9002 13C64.2002 11.1 63.0002 9.4 61.2002 9C59.4002 8.6 57.6002 9.8 57.2002 11.7Z" fill="#77C9B5"/>
<path d="M60.2002 11.9C60.0002 12.7 60.6002 13.6 61.5002 13.7C62.3002 13.9 63.2002 13.3 63.3002 12.4C63.5002 11.6 62.9002 10.7 62.0002 10.6C61.2002 10.5 60.3002 11.1 60.2002 11.9Z" fill="#3B4647"/>
<path d="M51.8003 22.9C51.6003 21.6 51.5002 19.6 51.6002 17.3C51.9002 13.4 52.9003 11.2 52.5003 11.1C52.0003 10.9 49.8003 13.8 49.4003 17.5C49.2003 19.6 49.6002 21.5 50.1002 22.6C50.2002 23 50.5003 23.3 50.9003 23.4C51.2003 23.4 51.6003 23.2 51.8003 22.9Z" fill="#7371AE"/>
<path d="M60.2004 24.8C57.7004 17.6 45.9004 14.9 48.3004 28.7C48.9004 31.9 49.4004 45.8 46.9004 47.2C45.8004 48.9 44.2004 50.7 42.0004 52.2C35.4004 56.9 28.0004 55.9 26.0004 55.5C24.5004 55.2 23.1004 54.8 22.0004 54.3C19.6004 54.8 14.7004 55.6 11.7004 54.1C8.70043 54.8 5.90043 55.4 3.70043 56C2.40043 56.3 2.70043 58 3.80043 58H47.0004H53.0004H55.3004C59.0004 58 62.2004 55.4 62.8004 51.7C64.3004 42.6 61.2004 27.3 60.2004 24.8Z" fill="#837DBA"/>
<path d="M15.7003 54.5C18.0003 54.6 20.0003 54.3 21.5003 54C22.0003 53.8 22.4003 53.7 22.7003 53.6C26.2003 52.1 28.8003 49.4 30.2003 45.9C31.3003 43.1 31.3003 40.1 30.1003 37.4C28.9003 34.7 26.7003 32.6 24.0003 31.5C21.8003 30.6 19.4003 30.7 17.3003 31.6C15.1003 32.5 13.5003 34.2 12.6003 36.4C11.2003 39.9 12.9003 43.9 16.5003 45.3C17.8003 45.8 19.3003 45.8 20.6003 45.2C21.9003 44.6 22.9003 43.6 23.5003 42.3C23.9003 41.3 23.9003 40.1 23.5003 39.1C23.1003 38.1 22.3003 37.3 21.2003 36.9C20.4003 36.6 19.5003 36.6 18.8003 36.9C18.0003 37.2 17.4003 37.9 17.1003 38.6L15.7003 38C16.2003 36.9 17.0003 36 18.1003 35.5C19.2003 35 20.5003 35 21.6003 35.4C23.0003 35.9 24.1003 37 24.6003 38.4C25.2003 39.8 25.2003 41.3 24.7003 42.6C24.0003 44.3 22.8003 45.6 21.1003 46.3C19.4003 47 17.6003 47 15.9003 46.4C11.7003 44.7 9.60029 39.9 11.3003 35.7C12.3003 33.2 14.2003 31.2 16.7003 30.1C19.2003 29 22.0003 29 24.5003 30C27.6003 31.2 30.1003 33.6 31.4003 36.7C32.7003 39.8 32.8003 43.2 31.5003 46.3C30.0003 50.1 27.0003 53.2 23.2003 54.8C22.5003 55.1 21.3003 55.4 19.9003 55.5C14.5003 56.2 10.3003 53.7 10.3003 53.7C11.7003 54.1 13.6003 54.4 15.7003 54.5Z" fill="#3D927D"/>
<path d="M48.5002 13.4C48.9002 15.2 50.7002 16.5 52.5002 16.1C54.3002 15.7 55.6002 13.9 55.2002 12.1C54.8002 10.3 53.0002 9 51.2002 9.4C49.3002 9.7 48.1002 11.5 48.5002 13.4Z" fill="#77C9B5"/>
<path d="M51.2002 12C51.0002 12.8 51.6002 13.7 52.5002 13.8C53.3002 14 54.2002 13.4 54.3002 12.5C54.5002 11.7 53.9002 10.8 53.0002 10.7C52.2002 10.6 51.4002 11.2 51.2002 12Z" fill="#3B4647"/>
</g>
<defs>
<clipPath id="clip0_181_10465">
<rect width="64" height="64" fill="white"/>
</clipPath>
</defs>
</svg>
