<svg width="64" height="64" viewBox="0 0 64 64" fill="none" xmlns="http://www.w3.org/2000/svg">
<path d="M36.1001 58.8H37.0001C39.7001 54.6 43.2001 51.6 47.5001 49.6C52.5001 47.3 58.1001 46.6 64.0001 46.2V45.5C54.2001 46.1 43.2001 47.6 36.1001 58.8Z" fill="white"/>
<path d="M0 24.6V26.5C1.7 31 1.7 35.8 0 41.1V43.3C2.7 36.4 2.7 30.3 0 24.6Z" fill="white"/>
<path d="M30.7998 5.6C31.0998 5.5 31.3998 5.3 31.7998 5.2H29.7998C26.3998 6.2 22.8998 6 20.0998 5.2H17.7998C20.9998 6.5 26.0998 7.4 30.7998 5.6Z" fill="white"/>
<path d="M7.4 25.3C10.4 34 7.5 39 4.5 44.4C4 45 3.6 45.7 3.2 46.4L3 46.8C1.9 47.5 0.9 48.1 0 48.6V49.4C1.1 48.8 2.5 48 4.1 47C15.9 47.5 27.9 52.8 31.2 58.8H32.6C35.2 53.9 43.2 41.5 59.5 41.8C61 42.6 62.5 43.4 63.9 44.3V43.5C62.6 42.7 61.3 42 60 41.3C50.2 29.4 53.8 21.1 57.6 15.8C60 15 62.1 14.5 63.6 14.2C59.8 22.4 56.5 30.4 64 42.2V40.8C57.8 30.2 60.6 22.8 64 15.2V13.3C56.7 11.2 51.8 8.6 48.2 5.3H47.1C50.7 8.8 55.5 11.5 62.7 13.7C61.3 14 59.6 14.5 57.6 15.1H57.5C52.5 14.5 44.1 12.5 40.3 5.3H39.5C43 12.2 50.7 14.7 56 15.5C54.1 16.1 52.2 16.9 50.1 17.7H50C45.5 17.1 40.5 16.5 38.2 8.9C38.5 7.8 38.7 6.5 39 5.3H38.2C38 6.4 37.8 7.5 37.5 8.5L37.4 8.6C34.3 12 27 15.5 20 10.6C26 12.4 33.2 9.5 37.4 5.2H36.4C31.5 9.9 24.1 11.4 19.4 9.6C18.6 8 17.8 6.5 17.2 5.2H16C16.5 8.4 15.6 11.6 13.5 14.6C10.2 19.1 4.3 22.2 0 22.9V24C2.6 24.4 5 24.8 7.4 25.3ZM5.1 44.7C8.1 39.6 11.1 34.2 8.2 25.4C11.4 30.8 13.9 36.6 10.1 42.1L10 42.4C7.8 43.8 6 45 4.4 46C4.6 45.6 4.8 45.1 5.1 44.7ZM42.9 33.6C41.7 33.2 40.4 32.7 39.1 32.3C37.8 30 36.5 26.8 37.9 24.1C39.3 23.3 40.8 22.6 42.4 21.8C40.5 26.4 40.6 30.3 42.9 33.6ZM43.5 21.4C45.2 20.6 46.9 19.9 48.5 19.2C44.4 24.3 44.8 30.3 49.5 36.2C47.8 35.5 46 34.8 44.2 34.1C43.1 32.8 39.9 28.8 43.5 21.4ZM38.1 32C37.1 31.7 36 31.3 34.9 31C34 30.2 33.5 27.7 34 26.5C34.9 25.9 35.9 25.3 36.9 24.8C36.2 26.8 36.6 29.2 38.1 32ZM28.9 33.3C28.3 32.6 27.6 32.3 26.7 32.3C26.6 32.3 26.4 32.3 26.3 32.3C27 31.8 27.6 31.4 28.3 30.9C28.5 30.8 28.7 30.6 28.8 30.5C28.8 31.2 28.8 32.2 28.9 33.3ZM27.8 30.3C26.8 31 25.9 31.6 25 32.2V32.1C25.3 31.2 25.6 30.3 24.8 29C26 29.3 27.2 29.6 28.3 29.9C28.2 30 28 30.2 27.8 30.3ZM24.5 28.2C25.5 27.7 26.3 27.1 26.6 26C27.2 27.2 27.8 28.3 28.4 29.2C27.1 28.8 25.8 28.5 24.5 28.2ZM29 34.8C29.1 35.8 29.2 36.9 29.3 38.1C27.6 36.6 24.5 35.4 21.8 35.4C22.8 34.7 23.8 34 24.9 33.3C27.2 32.8 28 32.9 29 34.8ZM29.1 28.9C28.5 28 27.9 26.8 27.2 25.4C28.5 25.9 29.8 25.8 30.9 25.3C30 26.7 29.4 27.9 29.1 28.9ZM33.8 30.6C32.6 30.2 31.3 29.9 30 29.5C30.9 28.7 31.9 27.9 33.2 27C33 28.2 33.2 29.6 33.8 30.6ZM30 28.6C30.3 27.8 30.9 26.8 31.6 25.6C31.7 25.4 31.8 25.2 31.9 25C32.1 25.7 32.5 26 33.1 26.3C31.9 27 30.8 27.8 30 28.6ZM29.5 30.2C30.8 30.6 32.1 30.9 33.3 31.3C32 31.8 30.4 32.5 29.5 33.4C29.5 32 29.5 30.9 29.5 30.2ZM34.6 31.7C35.5 32 36.3 32.2 37.1 32.5C34.3 33.4 31.5 36.1 30 38.2C29.9 36.9 29.8 35.7 29.7 34.6C30 33.7 31.9 32.6 34.6 31.7ZM33.8 25.7H33.7C32.9 25.5 32.5 25.3 32.4 23.9C32.8 23.1 33.3 22.2 33.8 21.3C34.2 22.8 35.1 23.7 36.6 24.1C35.6 24.6 34.7 25.1 33.8 25.7ZM31.8 23.6C30.5 25.2 28.6 25.4 26.6 24.3C26.2 23.5 25.8 22.7 25.4 21.8C27.8 22.9 31 22.2 33.2 21C32.7 21.9 32.2 22.8 31.8 23.6ZM26 24.8C26.1 26.6 25.2 27 23.6 27.8L23.4 27.9C22.3 27.6 21.1 27.4 20 27.1C21.9 26.3 23.5 24.4 24.4 21.5C24.9 22.7 25.5 23.8 26 24.8ZM23.7 28.7C25 30 24.7 30.8 24.4 31.9C24.3 32.2 24.2 32.5 24.1 32.9C23.1 33.6 22.1 34.3 21.1 35C21.6 32.9 21 29.9 19.4 27.8C20.8 28.1 22.3 28.4 23.7 28.7ZM29.4 39.3C29.6 40.9 29.8 42.7 30 44.5C28.7 42.8 26.6 41.3 23.8 40.2C21.5 39.2 19.1 38.7 17.4 38.4C18.4 37.7 19.5 37 20.6 36.3C23.7 35.7 28 37.5 29.4 39.3ZM30 45.9L30.1 46.1C30.3 48 30.6 50 30.8 51.9C27.8 46.7 19.4 43.5 11.6 42.2C13.1 41.2 14.7 40.2 16.4 39C20.5 39.4 27.6 41.5 30 45.9ZM30.7 44.4C30.5 42.6 30.3 40.9 30.2 39.3C31.5 37.1 35.5 33 38.7 32.9C40 33.3 41.3 33.8 42.6 34.2C35.9 35.9 32.8 40.7 30.7 44.4ZM37.6 23.5C35.5 23.3 34.6 22.3 34.3 20.2C34.9 19 35.4 17.6 36 16.1C37.2 20 39.4 21 41.8 21.3C40.4 22 39 22.7 37.6 23.5ZM33.8 19.7C31.7 21.5 27.1 22.5 24.8 20.6C24.2 19.4 23.6 18.2 23 16.9C27.2 18.9 31.5 17.3 35.6 15.3C35 16.9 34.4 18.4 33.8 19.7ZM23.9 20.5C22.9 24.4 20.8 26.6 18.2 26.7C17.3 26.5 16.4 26.3 15.5 26.1C19.5 24.6 20.7 20.9 21.9 17C21.9 16.9 22 16.8 22 16.7C22.7 18 23.3 19.3 23.9 20.5ZM18.1 27.4C20.6 29.7 21 34 20 35.6C18.9 36.3 17.9 37 16.9 37.7C17.9 34.7 17.1 31 14.6 26.7C15.8 26.9 17 27.2 18.1 27.4ZM15.9 38.5C14.3 39.6 12.8 40.6 11.5 41.5C14.4 36.2 12.3 30.8 9.3 25.7C10.8 26 12.3 26.3 13.8 26.6C16.6 31.4 17.4 35.4 15.9 38.5ZM5.2 46.3C6.8 45.3 8.6 44.1 10.7 42.8C23.8 44.9 29.7 49.9 30.9 54L31.2 54.9C31.3 55.3 31.3 55.8 31.4 56.2C31.5 56.8 31.5 57.4 31.6 57.9C27.7 51.9 16.7 47 5.2 46.3ZM30.8 45.7C32.9 41.8 36.2 36.1 43.7 34.7C45.7 35.5 47.7 36.2 49.6 37C39.5 38.5 33.8 47.7 31.5 52.3C31.3 50.2 31.1 47.9 30.8 45.7ZM32.3 58C32.2 57.4 32.1 56.7 32.1 56.1C32 55.3 31.9 54.5 31.8 53.7C33.6 49.7 39.6 38.6 51 37.7H51.1C53.6 38.8 55.9 39.9 58.3 41.1C42.9 41.4 35.1 52.8 32.3 58ZM50 18.5C52.2 17.6 54.4 16.8 56.4 16.1C53.4 20.6 52.3 25.3 53.2 29.9C53.9 33.3 55.5 36.7 58.3 40.4C55.9 39.1 53.4 37.9 50.8 36.8C47.6 32.9 43.3 25.7 50 18.5ZM37.9 10.2C40.2 16.6 44.6 17.7 48.7 18.3C46.9 19.1 45 19.9 43.2 20.7C40.1 20.5 37.7 19.9 36.5 14.8C37 13.4 37.5 11.9 37.9 10.2ZM37.2 9.8C36.8 11.4 36.3 12.9 35.9 14.3C31.3 16.6 26.8 18.5 22.4 15.8C22.3 15.6 22.3 15.5 22.2 15.3C21.6 14.1 21.1 12.9 20.5 11.8C27 15.7 33.7 13.1 37.2 9.8ZM19.6 11.6C20.2 12.9 20.9 14.2 21.5 15.6C21.5 15.7 21.6 15.7 21.6 15.8C21.5 16.1 21.4 16.5 21.3 16.8C20 20.9 18.7 24.8 14 25.8C12.8 25.5 11.6 25.3 10.3 25.1C15.7 23.1 18.8 18.6 19.6 11.6ZM14.1 15C16.1 12.2 17.1 9.2 16.9 6.1C17.5 7.3 18.3 8.8 19 10.3V10.4C18.4 18.2 15 23 8.7 24.7C6.3 24.2 3.8 23.8 1.2 23.3C5.5 22.4 10.8 19.4 14.1 15Z" fill="white"/>
<path d="M1.6 50.5C1.1 50.5 0.5 50.5 0 50.5V51.2C8.9 50.9 16.9 53.3 24.3 58.7H25.5C18.3 53.3 10.3 50.5 1.6 50.5Z" fill="white"/>
<path d="M54.4999 20.1C54.1999 19.9 53.6999 19.9 53.4999 20.3C50.0999 25.5 40.4998 32.2 35.0998 33C34.6998 33.1 34.3999 33.4 34.4999 33.9C34.4999 34.3 34.7999 34.6 35.1999 34.6H35.2998C41.0998 33.7 51.0999 26.9 54.6999 21.3C54.8999 20.9 54.7999 20.4 54.4999 20.1Z" fill="#282842"/>
<path d="M47.5002 10C47.1002 10 46.8002 10.3 46.8002 10.7C47.8002 19.5 41.5002 28.4 34.8002 31.9C34.4002 32.1 34.3002 32.5 34.6002 32.8C34.7002 33 35.0002 33.1 35.3002 33.1C35.4002 33.1 35.6002 33.1 35.7002 33C42.7002 29.4 49.5002 20.3 48.4002 10.6C48.3002 10.2 47.9002 9.9 47.5002 10Z" fill="#282842"/>
<path d="M36.4999 34.6C36.0999 34.5 35.6999 34.4 35.3999 34.3C34.9999 34.2 34.5999 34.5 34.4999 34.9C34.3999 35.3 34.6998 35.7 35.0998 35.8C35.4998 35.9 35.8998 36 36.2998 36.1C40.6998 37 47.9999 38.6 51.3999 52.6C51.4999 53 51.7999 53.2 52.0998 53.2C52.1999 53.2 52.1999 53.2 52.2999 53.2C52.6999 53.1 52.9999 52.7 52.8999 52.3C49.1999 37.3 40.8999 35.5 36.4999 34.6Z" fill="#282842"/>
<path d="M35.1999 35C34.7999 34.8 34.2999 35 34.0999 35.3C33.8999 35.7 34.0999 36.1 34.4999 36.3C37.3999 37.7 42.6999 44.4 38.2999 52.8C38.0999 53.2 38.2999 53.6 38.6999 53.8C38.7999 53.9 38.8999 53.9 39.0999 53.9C39.3999 53.9 39.6999 53.7 39.7999 53.5C42.4999 48.3 41.6999 44 40.5999 41.3C39.2999 38.1 36.9999 35.9 35.1999 35Z" fill="#282842"/>
<path d="M28.8999 33C23.4999 32.2 13.8999 25.5 10.4999 20.3C10.2999 20 9.79985 19.9 9.49985 20.1C9.19985 20.3 9.09985 20.8 9.29985 21.2C12.8999 26.8 22.8999 33.7 28.6999 34.5H28.7999C29.0999 34.5 29.3999 34.2 29.4999 33.8C29.4999 33.5 29.1999 33.1 28.8999 33Z" fill="#282842"/>
<path d="M29.2002 31.8C22.5002 28.3 16.2002 19.5 17.2002 10.6C17.2002 10.2 16.9002 9.89999 16.5002 9.89999C16.1002 9.89999 15.7002 10.1 15.7002 10.5C14.6002 20.2 21.5002 29.2 28.4002 32.9C28.5002 33 28.7002 33 28.8002 33C29.1002 33 29.3002 32.9 29.5002 32.7C29.7002 32.4 29.6002 32 29.2002 31.8Z" fill="#282842"/>
<path d="M28.6 34.3C28.3 34.4 27.9 34.5 27.5 34.6C23.1 35.6 14.8 37.3 11.2 52.3C11.1 52.7 11.4 53.1 11.8 53.2C11.9 53.2 11.9 53.2 12 53.2C12.3 53.2 12.7 53 12.7 52.6C16.1 38.6 23.5 37 27.8 36.1C28.2 36 28.6 35.9 29 35.8C29.4 35.7 29.7 35.3 29.6 34.9C29.5 34.5 29.1 34.2 28.6 34.3Z" fill="#282842"/>
<path d="M28.9 34.8C27.2 35.6 24.8 38 23.5 41.2C22.4 43.9 21.7 48.3 24.3 53.6C24.4 53.9 24.7 54 25 54C25.1 54 25.2 54 25.4 53.9C25.8 53.7 26 53.2 25.8 52.9C21.5 44.3 26.7 37.5 29.6 36.1C30 35.9 30.2 35.4 30 35C29.8 34.7 29.3 34.6 28.9 34.8Z" fill="#282842"/>
<path d="M32.2 30.6C30.1 30.6 28.5 31.1 28.5 32.8C28.5 34.5 30.2 36.7 32.2 36.7C34.2 36.7 35.9 34.5 35.9 32.8C35.9 31.1 34.2 30.6 32.2 30.6Z" fill="#282842"/>
<path d="M32.2 15.1C30.3 15.1 25.4 19.1 25.8 25.2C26.2 30.7 29.9 31.8 32.2 31.8C34.5 31.8 38.2 30.7 38.6 25.2C39 19 33.6 15.1 32.2 15.1Z" fill="#494966"/>
<path d="M32.3999 40.1C32.8999 41.1 32.7999 43.6 32.3999 45C35.2999 44 35.3999 39.9 34.6999 38.4C34.6999 38.4 33.2999 38.7 32.3999 40.1Z" fill="#282842"/>
<path d="M29.2998 38.3C28.5998 39.8 28.6998 43.9 31.5998 45C31.2998 43.6 31.0998 41.1 31.6998 40.1C30.6998 38.6 29.2998 38.3 29.2998 38.3Z" fill="#282842"/>
<path d="M32.1 35.2C29.8 35.2 28 36.8 28 38.2C28 39.6 29.8 41.3 32.1 41.3C34.4 41.3 36.3 39.6 36.3 38.2C36.3 36.7 34.4 35.2 32.1 35.2Z" fill="#282842"/>
<path d="M30.1001 40.8C30.2001 41 30.9001 42.2 31.6001 42.1C32.1001 42 32.0001 41.1 32.0001 41.1C31.3001 40.9 30.1001 40.8 30.1001 40.8Z" fill="#282842"/>
<path d="M32.4002 42.1C33.1002 42.2 33.8002 41.1 34.0002 40.9C34.0002 40.9 32.7002 41 32.1002 41.1C32.0002 41.1 31.9002 42 32.4002 42.1Z" fill="#282842"/>
<path d="M34.0999 37.4C33.1999 37.5 32.4999 38.4 32.5999 39.4C32.6999 40.4 33.5999 41 34.5999 40.9C35.4999 40.8 36.1999 39.9 36.0999 38.9C35.8999 38 34.9999 37.3 34.0999 37.4Z" fill="white"/>
<path d="M34.2002 37.9C33.6002 38 33.2002 38.6 33.2002 39.2C33.3002 39.8 33.9002 40.3 34.5002 40.2C35.1002 40.1 35.5002 39.5 35.5002 38.9C35.4002 38.2 34.8002 37.8 34.2002 37.9Z" fill="black"/>
<path d="M33.4999 38.8C33.0999 38.8 32.8999 39.2 32.8999 39.5C32.8999 39.9 33.2999 40.1 33.5999 40.1C33.9999 40.1 34.1999 39.7 34.1999 39.4C34.1999 39 33.8999 38.7 33.4999 38.8Z" fill="white"/>
<path d="M29.4998 37.4C28.5998 37.5 27.8998 38.4 27.9998 39.4C28.0998 40.4 28.9998 41 29.9998 40.9C30.8998 40.8 31.5998 39.9 31.4998 38.9C31.2998 38 30.3998 37.3 29.4998 37.4Z" fill="white"/>
<path d="M29.6001 37.9C29.0001 38 28.6001 38.6 28.6001 39.2C28.7001 39.8 29.3001 40.3 29.9001 40.2C30.5001 40.1 30.9001 39.5 30.9001 38.9C30.8001 38.2 30.2001 37.8 29.6001 37.9Z" fill="black"/>
<path d="M28.8998 38.8C28.4998 38.8 28.2998 39.2 28.2998 39.5C28.2998 39.9 28.6998 40.1 28.9998 40.1C29.3998 40.1 29.5998 39.7 29.5998 39.4C29.5998 39 29.2998 38.7 28.8998 38.8Z" fill="white"/>
</svg>
