<svg width="64" height="64" viewBox="0 0 64 64" fill="none" xmlns="http://www.w3.org/2000/svg">
<path d="M50.1002 52.6C48.8002 52.7 47.7002 51.9 47.6002 50.6L43.7002 17.3L48.2002 16.8L52.1002 50.1C52.2002 51.3 51.3002 52.5 50.1002 52.6Z" fill="#6F61AA"/>
<path d="M17.3 45.8C16 45.7 15.1 44.6 15.2 43.4L17.2 14.1C17.3 12.8 18.4 11.9 19.6 12C20.9 12.1 21.8 13.2 21.7 14.4L19.7 43.7C19.6 45 18.5 45.9 17.3 45.8Z" fill="#584B9E"/>
<path d="M62.2002 45.5C61.0002 45.8 59.8002 45 59.5002 43.8L52.9002 13.6C52.6002 12.4 53.4002 11.2 54.6002 10.9C55.8002 10.6 57.0002 11.4 57.3002 12.6L63.9002 42.8C64.2002 44 63.4002 45.2 62.2002 45.5Z" fill="#584B9E"/>
<path d="M7.4 52.6C6.1 52.4 5.3 51.3 5.4 50.1L9.4 16.8L13.9 17.3L9.9 50.6C9.7 51.9 8.6 52.8 7.4 52.6Z" fill="#6F61AA"/>
<path d="M5.6001 17L5.8001 25.5H48.0001L60.0001 15.6V10L5.6001 17Z" fill="#682875"/>
<path d="M51.1 19.9H0V16.8L62.4 7.39999V10.4L51.1 19.9Z" fill="#833992"/>
<path d="M51.1 16.8H0L18.6 7.39999H62.4L51.1 16.8Z" fill="#742A85"/>
</svg>
