<svg width="64" height="65" viewBox="0 0 64 65" fill="none" xmlns="http://www.w3.org/2000/svg">
<g>
<path d="M39 35.6223C38 35.6223 37.1 35.5223 36.1 35.5223C35.3 36.4223 34.4 37.6223 33.5 38.9223C31.5 41.9223 30.6 45.9223 27.8 48.4223C25 50.7223 22.5 51.4223 22.5 51.4223C22.5 51.4223 25.7 52.3223 28.8 49.8223C31.9 47.2223 33.5 42.0223 34.4 40.7223C35.6 39.0223 37.5 37.1223 39 35.6223Z" fill="#04040A"/>
<path d="M26.7002 23.4223C26.7002 23.4223 50.9002 14.3223 57.4002 16.2223C62.5002 17.7223 63.5002 22.0223 63.1002 22.8223C62.0002 24.5223 27.5002 24.7223 27.5002 24.7223L26.7002 23.4223Z" fill="white"/>
<path d="M34.7002 32.6223C34.7002 32.6223 39.7002 29.4223 43.2002 32.2223C44.7002 33.4223 53.7002 48.3223 47.1002 57.0223C42.6002 63.0223 40.0002 62.4223 40.0002 62.4223C40.0002 62.4223 41.7002 61.0223 39.6002 58.4223C32.7002 49.9223 32.7002 37.1223 32.7002 35.7223C32.7002 34.3223 34.7002 32.6223 34.7002 32.6223Z" fill="#FFCC3E"/>
<path d="M10.2993 39.6223C10.2993 39.6223 9.8993 34.5223 14.0993 32.8223C18.8993 30.8223 20.2993 27.4223 20.2993 27.4223L22.3993 27.9223C22.3993 27.9223 19.3993 33.0223 14.6993 34.6223C12.8993 35.2223 11.8993 36.9223 10.2993 39.6223Z" fill="#FFCC3E"/>
<path d="M20.4001 24.2223C20.4001 24.2223 24.6001 18.1223 33.4001 22.8223C40.4001 26.6223 36.6001 34.8223 32.4001 36.7223C28.2001 38.6223 18.7001 34.4223 19.0001 30.2223C19.3001 26.1223 20.4001 24.2223 20.4001 24.2223Z" fill="#04040A"/>
<path d="M10.9994 31.0223C9.39942 30.1223 8.69942 20.9223 14.5994 19.1223C19.3994 17.6223 23.3994 20.3223 23.2994 23.6223C23.1994 27.9223 14.0994 32.7223 10.9994 31.0223Z" fill="#04040A"/>
<path d="M21.2993 23.2223C21.5993 24.8223 20.5993 26.4223 18.9993 26.7223C17.3993 27.0223 15.7993 26.0223 15.4993 24.4223C15.1993 22.8223 16.1993 21.2223 17.7993 20.9223C19.4993 20.6223 20.9993 21.6223 21.2993 23.2223Z" fill="#FFCC3E"/>
<path d="M20.3999 23.4223C20.5999 24.5223 19.8999 25.5223 18.7999 25.7223C17.6999 25.9223 16.6999 25.2223 16.4999 24.1223C16.2999 23.0223 16.9999 22.0223 18.0999 21.8223C19.0999 21.7223 20.0999 22.4223 20.3999 23.4223Z" fill="#04040A"/>
<path d="M20.2 22.7223C20.3 23.2223 20 23.7223 19.5 23.8223C19 23.9223 18.5 23.6223 18.4 23.1223C18.3 22.6223 18.6 22.1223 19.1 22.0223C19.7 21.9223 20.1 22.2223 20.2 22.7223Z" fill="white"/>
<path d="M18.5994 19.8223C18.5994 19.8223 16.7994 9.32225 12.2994 7.12225C8.29939 5.12225 4.99939 5.82225 6.29939 7.02225C6.79939 7.52225 9.09939 7.72225 11.4994 9.42225C14.1994 11.4223 16.9994 15.2223 17.4994 19.7223L18.5994 19.8223Z" fill="#04040A"/>
<path d="M17.5998 19.4223C17.5998 19.4223 10.3998 11.6223 5.39978 12.2223C0.899777 12.7223 -1.40022 15.1223 0.299777 15.4223C0.999777 15.6223 2.99978 14.4223 5.99978 14.6223C9.39978 14.8223 13.7998 16.5223 16.6998 19.9223L17.5998 19.4223Z" fill="#04040A"/>
<path d="M14.8002 26.0223L20.6002 21.1223C20.6002 21.1223 17.7002 19.2223 15.8002 21.0223C14.0002 22.9223 14.8002 26.0223 14.8002 26.0223Z" fill="#04040A"/>
<path d="M28 24.8223C28 24.8223 53.7 21.9223 59.5 25.4223C64.1 28.1223 64 32.6222 63.4 33.2222C61.9 34.6222 28.4 26.3223 28.4 26.3223L28 24.8223Z" fill="#E1F7FF"/>
<path d="M38.2002 56.5223C38.6002 57.2223 39.1002 57.8223 39.6002 58.4223C41.7002 61.0223 40.0002 62.4223 40.0002 62.4223C40.0002 62.4223 42.5002 63.0223 47.1002 57.0223C47.4002 56.6223 47.7002 56.1223 48.0002 55.7223C43.1002 59.9223 38.2002 56.5223 38.2002 56.5223Z" fill="#04040A"/>
<path d="M32.0996 36.1223C32.0996 36.1223 30.4996 36.9223 31.0996 38.2223C31.5996 39.4223 33.0996 38.7223 34.5996 38.2223C36.4996 37.5223 38.9996 37.1223 38.9996 37.1223C38.9996 37.1223 36.9996 40.1223 35.1996 44.5223C33.7996 47.8223 33.8996 52.0223 31.5996 55.0223C29.3996 58.0223 27.0996 59.2223 27.0996 59.2223C27.0996 59.2223 30.3996 59.4223 32.8996 56.2223C35.3996 53.0223 35.7996 47.5223 36.3996 46.1223C37.6996 42.9223 41.0996 38.5223 41.1996 37.4223C41.2996 36.2223 40.6996 34.4223 39.1996 34.4223C37.6996 34.3223 32.0996 36.1223 32.0996 36.1223Z" fill="#04040A"/>
<path d="M31.1996 29.4223C30.2996 28.3223 29.1996 28.5223 28.5996 31.3223C28.0996 33.8223 25.5996 40.2223 24.2996 41.4223C22.9996 42.6223 19.2996 45.6223 18.5996 47.4223C18.5996 47.4223 22.7996 44.6223 24.6996 43.6223C26.6996 42.6223 26.7996 41.2223 28.2996 38.3223C29.3996 36.1223 31.8996 30.2223 31.1996 29.4223Z" fill="#FFCC3E"/>
<path d="M31.2 29.4223C31.2 29.4223 30 27.7223 28.6 29.0223C25 32.2223 23.2 34.2223 23.2 34.2223C23.2 34.2223 22 35.4223 23.1 36.3223C24.2 37.2223 24.8 36.1223 24.8 36.1223L31.2 29.4223Z" fill="#FFCC3E"/>
<path d="M46.7001 37.9223C45.6001 38.9223 44.0001 39.9223 41.8001 40.6223C38.5001 41.7223 39.2001 44.3223 41.3001 44.2223C42.9001 44.1223 45.9001 43.2223 48.0001 41.2223C47.6001 39.9223 47.1001 38.8223 46.7001 37.9223Z" fill="#04040A"/>
<path d="M49.2995 46.5223C49.0995 45.3223 48.8995 44.0223 48.4995 42.8223C47.2995 44.0223 45.4995 45.5223 42.6995 46.4223C39.3995 47.5223 40.0995 50.1223 42.1995 50.0223C43.9995 49.8223 47.1995 48.8223 49.2995 46.5223Z" fill="#04040A"/>
<path d="M44.8001 51.6223C41.5001 52.7223 42.2001 55.3223 44.3001 55.2223C45.4001 55.1223 47.2001 54.6223 48.9001 53.7223C49.4001 52.2223 49.6001 50.7223 49.5001 49.1223C48.4001 49.9223 46.9001 50.9223 44.8001 51.6223Z" fill="#04040A"/>
<path d="M13.7001 46.2223C13.7001 46.2223 12.2001 41.5223 15.9001 38.7223C19.0001 36.3223 20.1001 33.9223 20.5001 32.7223C20.6001 32.3223 21.0001 32.0223 21.4001 32.0223C22.1001 32.0223 22.6001 32.7223 22.3001 33.4223C21.6001 35.2223 20.0001 38.5223 17.4001 40.3223C15.8001 41.3223 14.6001 43.3223 13.7001 46.2223Z" fill="#FFCC3E"/>
</g>
</svg>
