<svg width="64" height="64" viewBox="0 0 64 64" fill="none" xmlns="http://www.w3.org/2000/svg">
<g clip-path="url(#clip0_181_10395)">
<path d="M62.9998 64H13.7998C13.7998 64 20.0998 53.2 53.7998 53.2C62.7998 53.3 62.9998 64 62.9998 64Z" fill="#662E3B"/>
<path d="M50.0997 7.5C50.0997 7.5 45.8997 9.7 44.1997 10C45.4997 12 48.4997 11.1 48.4997 11.1L50.0997 7.5Z" fill="#61617F"/>
<path d="M63.3998 19.5C62.0998 18.5 61.1998 17.4 60.5998 16.3C60.2998 15.6 59.4998 13.4 59.7998 10.5C59.9998 8.4 63.3998 5.6 63.3998 3.9C63.3998 3.4 62.7998 3.4 62.6998 3.2C62.6998 3.2 62.4998 2.8 62.4998 2.7C62.4998 2.5 62.3998 2.1 62.2998 1.8C62.0998 0.900003 61.5998 -0.0999971 60.7998 1C60.5998 1.2 60.3998 1.4 60.1998 1.7C58.7998 3 56.7998 4 56.5998 4.2C56.5998 4.2 55.4998 3.9 54.4998 4C53.6998 4.1 49.8998 6.5 48.7998 9.9L44.7998 14.1C44.7998 14.1 46.1998 14.6 48.1998 14.1C47.4998 15.8 45.9998 18 44.0998 19.8C35.2998 21.8 25.3998 24.3 19.7998 28C18.1998 28.3 16.0998 29.4 14.5998 32.4C13.1998 35.1 10.7998 44.3 0.799805 39.2C0.799805 39.2 2.4998 46.3 9.2998 46C9.9998 46 10.5998 45.9 11.1998 45.7C10.9998 46.2 10.5998 46.7 9.9998 47.1C13.6998 47.3 17.2998 42.7 17.1998 37.9C17.1998 37.8 17.2998 37.8 17.2998 37.7C17.7998 39.2 18.4998 40.4 18.7998 41.2C19.2998 43.6 19.2998 45.8 16.9998 48.1C16.7998 48.3 16.5998 48.5 16.2998 48.6L15.6998 49C15.4998 51.2 15.3998 57.6 17.0998 59.8L22.9998 59.3L18.9998 57.1C18.0998 56 18.6998 51.7 21.1998 49.9C23.7998 48 26.2998 45 27.4998 41.5C27.8998 43.6 27.8998 45.6 25.7998 47.6C25.5998 47.8 25.3998 48 25.1998 48.1L24.5998 48.5C24.3998 50.6 27.0998 56.3 28.6998 58.4L33.8998 57.6L30.4998 55.9C29.5998 54.9 27.3998 51.1 29.6998 49.3C32.9998 46.9 36.1998 42.4 36.1998 37.7C38.0998 37.4 39.8998 37.3 41.7998 37.1C41.9998 37.2 42.0998 37.2 42.2998 37.3C42.6998 41.5 43.1998 47 43.0998 50.1C42.9998 51.7 44.6998 54.3 45.0998 55.1L55.2998 54L51.8998 51.8C50.6998 50.4 53.5998 40.7 54.8998 35.9C54.9998 35.5 55.0998 35.1 55.1998 34.8C57.2998 32.8 59.9998 28.8 60.8998 23.4C61.2998 23.9 61.4998 24.8 61.4998 25.6C62.5998 24.6 62.8998 22.4 61.9998 20.1C62.2998 20.1 63.1998 19.8 63.3998 19.5Z" fill="#8B8AA8"/>
<path d="M48.3998 49.8C48.2998 50.7 48.6998 51.7 49.0998 52.5L46.3998 51.3C45.1998 50.1 47.1998 42 48.3998 36.7C48.4998 36.7 48.4998 36.7 48.5998 36.7C48.5998 40.8 48.5998 46.3 48.3998 49.8Z" fill="#8B8AA8"/>
<path d="M61.6999 19.9C62.5999 22.2 62.2999 24.4 61.1999 25.4C61.1999 24.6 60.9999 23.7 60.5999 23.2C59.6999 28.6 56.9999 32.7 54.8999 34.6C52.7999 35.5 50.6999 36.2 48.5999 36.6H48.3999V32.4C52.8999 29.7 55.1999 26 56.1999 21.7C49.2999 15.4 49.3999 4.10001 56.5999 4.00001C56.8999 3.80001 58.8999 2.80001 60.1999 1.50001C60.3999 1.30001 60.5999 1.10001 60.7999 0.800006C61.6999 -0.299994 62.0999 0.700006 62.2999 1.60001C62.3999 2.00001 62.3999 2.30001 62.4999 2.50001C62.4999 2.60001 62.6999 3.00001 62.6999 3.00001C62.7999 3.20001 63.3999 3.10001 63.3999 3.60001C63.3999 5.30001 59.9999 8.20001 59.7999 10.2C59.4999 13.2 60.1999 15.3 60.5999 16C61.2999 17.2 62.0999 18.2 63.3999 19.2C63.1999 19.8 62.2999 20.1 61.6999 19.9Z" fill="#ABA9C4"/>
<path d="M62.8998 3.40001C62.8998 3.40001 62.5998 2.80001 62.4998 2.60001C61.4998 3.80001 62.1998 5.10001 62.8998 3.40001Z" fill="#444466"/>
<path d="M62.3998 1.8C62.1998 1.7 61.8998 1.5 61.5998 1.6C61.2998 1.8 61.4998 2.1 61.4998 2.1C61.1998 2.3 60.5998 2 60.2998 1.7C60.4998 1.5 60.6998 1.3 60.8998 1C61.6998 -0.0999971 62.1998 0.900003 62.3998 1.8Z" fill="#04040A"/>
<path d="M41.9998 37L41.7998 34.1L28.7998 35.9C28.7998 35.9 29.6998 38.5 27.2998 41.3C29.9998 39.4 36.0998 37.9 36.0998 37.9L41.9998 37Z" fill="#ABA9C4"/>
<path d="M53.9999 6C53.5999 6.7 54.2999 7.7 54.2999 7.7C55.1999 7.6 55.8999 6.3 55.7999 5.5C55.7999 5.5 54.4999 5.2 53.9999 6Z" fill="#8B8AA8"/>
<path d="M55.2998 6.80001C54.9998 7.20001 54.4998 7.60001 54.2998 7.70001C54.4998 7.80001 55.1998 7.60001 55.5998 7.10001C55.9998 6.50001 55.9998 5.80001 55.7998 5.40001C55.6998 5.90001 55.5998 6.40001 55.2998 6.80001Z" fill="#04040A"/>
</g>
<defs>
<clipPath id="clip0_181_10395">
<rect width="64" height="64" fill="white"/>
</clipPath>
</defs>
</svg>
